<?xml version="1.0" encoding="UTF-8"?>
<svg xmlns="http://www.w3.org/2000/svg" xmlns:xlink="http://www.w3.org/1999/xlink" viewBox="0 0 422.1 319.6">
  <defs>
    <style>
      .cls-1 {
        fill: #904b4f;
      }

      .cls-1, .cls-2, .cls-3, .cls-4, .cls-5, .cls-6, .cls-7, .cls-8, .cls-9, .cls-10, .cls-11, .cls-12, .cls-13, .cls-14, .cls-15, .cls-16, .cls-17, .cls-18, .cls-19, .cls-20, .cls-21, .cls-22, .cls-23, .cls-24, .cls-25, .cls-26, .cls-27, .cls-28, .cls-29, .cls-30, .cls-31, .cls-32, .cls-33, .cls-34, .cls-35 {
        stroke-width: 0px;
      }

      .cls-2 {
        fill: url(#linear-gradient);
      }

      .cls-3 {
        fill: url(#radial-gradient);
      }

      .cls-4 {
        fill: #d7bdcf;
      }

      .cls-4, .cls-36, .cls-35 {
        isolation: isolate;
      }

      .cls-4, .cls-35 {
        mix-blend-mode: multiply;
      }

      .cls-5 {
        fill: #f0c996;
      }

      .cls-6 {
        fill: url(#linear-gradient-29);
      }

      .cls-7 {
        fill: url(#linear-gradient-28);
      }

      .cls-8 {
        fill: url(#linear-gradient-25);
      }

      .cls-9 {
        fill: url(#linear-gradient-11);
      }

      .cls-10 {
        fill: url(#linear-gradient-12);
      }

      .cls-11 {
        fill: url(#linear-gradient-13);
      }

      .cls-12 {
        fill: url(#linear-gradient-10);
      }

      .cls-13 {
        fill: url(#linear-gradient-17);
      }

      .cls-14 {
        fill: url(#linear-gradient-16);
      }

      .cls-15 {
        fill: url(#linear-gradient-19);
      }

      .cls-16 {
        fill: url(#linear-gradient-15);
      }

      .cls-17 {
        fill: url(#linear-gradient-23);
      }

      .cls-18 {
        fill: url(#linear-gradient-21);
      }

      .cls-19 {
        fill: url(#linear-gradient-18);
      }

      .cls-20 {
        fill: url(#linear-gradient-14);
      }

      .cls-21 {
        fill: url(#linear-gradient-22);
      }

      .cls-22 {
        fill: url(#linear-gradient-20);
      }

      .cls-23 {
        fill: url(#linear-gradient-27);
      }

      .cls-24 {
        fill: url(#linear-gradient-24);
      }

      .cls-25 {
        fill: url(#linear-gradient-26);
      }

      .cls-26 {
        fill: #fbc433;
      }

      .cls-27 {
        fill: url(#linear-gradient-4);
      }

      .cls-28 {
        fill: url(#linear-gradient-2);
      }

      .cls-29 {
        fill: url(#linear-gradient-3);
      }

      .cls-30 {
        fill: url(#linear-gradient-8);
      }

      .cls-31 {
        fill: url(#linear-gradient-9);
      }

      .cls-32 {
        fill: url(#linear-gradient-7);
      }

      .cls-33 {
        fill: url(#linear-gradient-5);
      }

      .cls-34 {
        fill: url(#linear-gradient-6);
      }

      .cls-35 {
        fill: #f2e4d7;
      }
    </style>
    <linearGradient id="linear-gradient" x1="425.02" y1="180.55" x2="403.92" y2="149.25" gradientTransform="translate(0 224.4) scale(1 -1)" gradientUnits="userSpaceOnUse">
      <stop offset="0" stop-color="#cb910b"/>
      <stop offset=".5" stop-color="#947133"/>
      <stop offset="1" stop-color="#584f60"/>
    </linearGradient>
    <linearGradient id="linear-gradient-2" x1="377.28" y1="243" x2="373.08" y2="203.6" xlink:href="#linear-gradient"/>
    <linearGradient id="linear-gradient-3" x1="419.14" y1="204.17" x2="401.34" y2="185.57" xlink:href="#linear-gradient"/>
    <linearGradient id="linear-gradient-4" x1="418.36" y1="203.69" x2="396.16" y2="170.89" xlink:href="#linear-gradient"/>
    <linearGradient id="linear-gradient-5" x1="389.71" y1="239.53" x2="351.91" y2="183.73" xlink:href="#linear-gradient"/>
    <linearGradient id="linear-gradient-6" x1="404.7" y1="242.7" x2="385.8" y2="190" xlink:href="#linear-gradient"/>
    <linearGradient id="linear-gradient-7" x1="405.62" y1="231.14" x2="372.72" y2="160.84" xlink:href="#linear-gradient"/>
    <linearGradient id="linear-gradient-8" x1="-300.31" y1="-282.78" x2="-304.51" y2="-322.18" gradientTransform="translate(-345.71 503.29) rotate(102.2)" xlink:href="#linear-gradient"/>
    <linearGradient id="linear-gradient-9" x1="-258.3" y1="-321.54" x2="-276.1" y2="-340.14" gradientTransform="translate(-345.71 503.29) rotate(102.2)" xlink:href="#linear-gradient"/>
    <linearGradient id="linear-gradient-10" x1="-259.17" y1="-322.08" x2="-281.37" y2="-354.78" gradientTransform="translate(-345.71 503.29) rotate(102.2)" xlink:href="#linear-gradient"/>
    <linearGradient id="linear-gradient-11" x1="-287.75" y1="-286.19" x2="-325.55" y2="-342.09" gradientTransform="translate(-345.71 503.29) rotate(102.2)" xlink:href="#linear-gradient"/>
    <linearGradient id="linear-gradient-12" x1="-272.87" y1="-283.02" x2="-291.77" y2="-335.82" gradientTransform="translate(-345.71 503.29) rotate(102.2)" xlink:href="#linear-gradient"/>
    <linearGradient id="linear-gradient-13" x1="-271.87" y1="-294.69" x2="-304.77" y2="-364.89" gradientTransform="translate(-345.71 503.29) rotate(102.2)" xlink:href="#linear-gradient"/>
    <linearGradient id="linear-gradient-14" x1="414.43" y1="83.52" x2="396.53" y2="115.92" xlink:href="#linear-gradient"/>
    <linearGradient id="linear-gradient-15" x1="429.55" y1="138.26" x2="400.25" y2="109.26" xlink:href="#linear-gradient"/>
    <linearGradient id="linear-gradient-16" x1="417.61" y1="123.18" x2="389.21" y2="108.98" xlink:href="#linear-gradient"/>
    <linearGradient id="linear-gradient-17" x1="410.19" y1="83.7" x2="395.89" y2="133.8" xlink:href="#linear-gradient"/>
    <linearGradient id="linear-gradient-18" x1="-1037.56" y1="282.87" x2="-1057.06" y2="318.17" gradientTransform="translate(-1030.45 -78.26) rotate(-147.1)" xlink:href="#linear-gradient"/>
    <linearGradient id="linear-gradient-19" x1="-1021.04" y1="342.44" x2="-1052.94" y2="310.94" gradientTransform="translate(-1030.45 -78.26) rotate(-147.1)" xlink:href="#linear-gradient"/>
    <linearGradient id="linear-gradient-20" x1="-1034.07" y1="326.18" x2="-1064.97" y2="310.58" gradientTransform="translate(-1030.45 -78.26) rotate(-147.1)" xlink:href="#linear-gradient"/>
    <linearGradient id="linear-gradient-21" x1="-1042.19" y1="283.03" x2="-1057.79" y2="337.63" gradientTransform="translate(-1030.45 -78.26) rotate(-147.1)" xlink:href="#linear-gradient"/>
    <linearGradient id="linear-gradient-22" x1="209.26" y1="217.61" x2="215.86" y2="-138.69" gradientTransform="translate(0 224.4) scale(1 -1)" gradientUnits="userSpaceOnUse">
      <stop offset="0" stop-color="#d89979"/>
      <stop offset=".3" stop-color="#ac645f"/>
      <stop offset=".6" stop-color="#792640"/>
      <stop offset=".8" stop-color="#5b316c"/>
      <stop offset="1" stop-color="#4b3884"/>
    </linearGradient>
    <radialGradient id="radial-gradient" cx="222.3" cy="222.9" fx="222.3" fy="222.9" r="690.4" gradientTransform="translate(0 224.4) scale(1 -1)" gradientUnits="userSpaceOnUse">
      <stop offset="0" stop-color="#e4a482"/>
      <stop offset="1" stop-color="#865f6a"/>
    </radialGradient>
    <linearGradient id="linear-gradient-23" x1="370.59" y1="249.79" x2="383.29" y2="123.99" xlink:href="#linear-gradient"/>
    <linearGradient id="linear-gradient-24" x1="363.86" y1="216.92" x2="404.66" y2="89.02" xlink:href="#linear-gradient"/>
    <linearGradient id="linear-gradient-25" x1="378.03" y1="161.85" x2="399.13" y2="134.15" xlink:href="#linear-gradient"/>
    <linearGradient id="linear-gradient-26" x1="97.7" y1="11.4" x2="65.7" y2="-61.9" xlink:href="#linear-gradient"/>
    <linearGradient id="linear-gradient-27" x1="45.9" y1="-26.8" x2="52.2" y2="-58" xlink:href="#linear-gradient"/>
    <linearGradient id="linear-gradient-28" x1="76.46" y1="-37.48" x2="59.96" y2="-75.28" xlink:href="#linear-gradient"/>
    <linearGradient id="linear-gradient-29" x1="62.48" y1="-59.02" x2="94.68" y2="-72.62" xlink:href="#linear-gradient"/>
  </defs>
  <g class="cls-36">
    <g id="Layer_2" data-name="Layer 2">
      <g id="Layer_1-2" data-name="Layer 1">
        <g>
          <path class="cls-2" d="M417.7,53.1c.8,3.7.2,7.7-1.5,11.1-1.1,2.2-7.3,10.5-10.3,7.2-3.1-3.4,2.1-9.9,4.2-12.3,2.2-2.4,4.8-4.5,7.6-6.1v.1Z"/>
          <g>
            <path class="cls-28" d="M382.5,16.4c-.4,2-1.1,3.9-1.5,5.9-.5,2.6-3.5,3.4-6.2,3.4s-6-.3-7.5-2.5c-1.2-1.8-2-3.7-2.5-5.8-.2-.7-.2-1.4-.2-2,0-1.1.4-2.1.9-3.4,1.4-3.8,3.6-7.2,6.6-9.9,1-.9,2.1-1.8,3.4-2,.8,1.8,1.7,3.9,3.2,5.3.7.7,1.4,1.4,2.1,2.2h0c.7.9,1.2,1.8,1.6,2.8.7,1.9.6,4,.1,6h0Z"/>
            <path class="cls-29" d="M416.7,35.6h-.1c-1.7-.2-2.4.5-3.8,1.5-1.4,1-2.8,2-4.1,3.1-2.6,2.1-5.1,4.4-7.4,6.9-1,1.1-2.1,2.2-3.6,2.2-3,0-3.4-3.9-3.9-6.1-.7-3.1-.4-6.5.9-9.4.6-1.3,1.3-2.6,2.5-3.4.9-.7,2-1.1,3.1-1.3,1.3-.3,2.7-.5,4-.4h.1c1.8,0,3.6.5,5.2,1.2.3.1.5.2.8.4,1.8.9,3.4,2,4.7,3.5.5.6,1.1,1.2,1.6,1.9v-.1Z"/>
            <path class="cls-27" d="M416.7,35.6h-.1c-.2,0-.4-.1-.6-.2h0c-.7-.2-1.5-.3-2.2-.2-.9.1-1.8.6-2.7,1-2.2,1.1-4.4,2.1-6.5,3.2-1.4-1.7-1.7-4-1.8-6.2v-1.4c.1-1,.9-2.2,1.6-3.1h.1c1.8,0,3.6.5,5.2,1.2.3.1.5.2.8.4,1.8.9,3.4,2,4.7,3.5.5.6,1.1,1.2,1.6,1.9l-.1-.1Z"/>
            <path class="cls-33" d="M380.7,7.6h0c0,.1-.1.2-.2.3-2,2.9-4.6,5.7-8,6.6h-.6c0-.1-.1-.2-.1-.4-.5-2.8-.2-5.7.8-8.3-1.3,2.9-2,6.1-2,9.3-1.7.4-3.5.7-5.3.7-.2,0-.5,0-.7-.2s0,0,0,0c0-1.1.4-2.1.9-3.4,1.4-3.8,3.6-7.2,6.6-9.9,1-.9,2.1-1.8,3.4-2,.8,1.8,1.7,3.9,3.2,5.3.7.7,1.4,1.4,2.1,2.2l-.1-.2Z"/>
            <path class="cls-34" d="M404.6,22.6c-.8,2.5-2,4.9-3.4,7.1-2.6,4.2-6.2,7.9-10.3,10.7-4.2-.5-7-2.9-10.1-5.8-3-3-5-7-5.6-11.2,0-.4.5-1.3,1-1.4,1.6-3.2,4.1-5.9,6.9-8.1,1.9-1.5,4-2.9,6.1-4.1,5.2-3,10.8-5.6,15.3-9.6,2.5,7.2,2.5,15.2,0,22.5l.1-.1Z"/>
            <path class="cls-32" d="M404.6,22.6c-.8,2.5-2,4.9-3.4,7.1-1.1,1.2-2.4,2.2-3.9,3-2.3-2.7-4.1-5.8-5.4-9.1,2.8-3.9,5.8-7.7,8.8-11.4l-8.1,8.2c-.5.6-1.1,1.2-1.9,1.3-.8.2-1.6-.1-2.3-.5-2.1-.9-4.3-2.2-5.3-4.4-.4-1-.4-2,0-3.1,1.9-1.5,4-2.9,6.1-4.1,5.2-3,10.8-5.6,15.3-9.6,2.5,7.2,2.5,15.2,0,22.5l.1.1Z"/>
          </g>
          <g>
            <path class="cls-30" d="M27.4,282.1c2,0,4.1-.2,6.1-.2,2.7,0,4.1-2.7,4.7-5.3.6-2.6,1-6-.9-7.9-1.5-1.5-3.2-2.8-5.1-3.7-.7-.3-1.3-.5-1.9-.6-1.1-.2-2.2,0-3.5.1-4,.5-7.8,2-11.1,4.3-1.1.8-2.2,1.7-2.7,2.9,1.6,1.2,3.4,2.5,4.5,4.2.5.8,1.1,1.7,1.7,2.5h0c.7.8,1.5,1.6,2.3,2.1,1.7,1.1,3.8,1.4,5.8,1.4l.1.2Z"/>
            <path class="cls-31" d="M38.9,319.5v-.1c.2-1.7,1-2.2,2.3-3.4,1.3-1.2,2.6-2.3,3.9-3.3,2.6-2.1,5.4-4,8.3-5.8,1.2-.8,2.6-1.6,2.9-3,.6-2.9-3.1-4.2-5.1-5.1-2.9-1.3-6.2-1.7-9.4-1.1-1.4.3-2.8.8-3.9,1.7-.8.7-1.4,1.7-1.9,2.7-.6,1.2-1,2.5-1.3,3.8h0c-.3,1.9-.3,3.7,0,5.5,0,.3.1.6.2.8.5,1.9,1.2,3.7,2.5,5.3.5.7,1,1.3,1.5,2Z"/>
            <path class="cls-12" d="M38.9,319.5v-.8h0c0-.8,0-1.5.3-2.2.3-.9.9-1.7,1.5-2.4,1.5-1.9,3-3.8,4.5-5.7-1.3-1.8-3.6-2.5-5.7-3.1-.4-.1-.9-.3-1.3-.3-1,0-2.4.4-3.3,1h0c-.3,1.9-.3,3.7,0,5.5,0,.3.1.6.2.8.5,1.9,1.2,3.7,2.5,5.3.5.7,1,1.3,1.5,2l-.2-.1Z"/>
            <path class="cls-9" d="M19.2,278.5h0c.1,0,.2,0,.3-.1,3.3-1.3,6.5-3.3,8.1-6.4,0-.2.2-.4,0-.6,0-.1-.2-.2-.3-.2-2.6-1.1-5.5-1.4-8.3-.9,3.1-.7,6.4-.7,9.5,0,.8-1.6,1.4-3.3,1.8-5v-.7h0c-1.1-.2-2.2,0-3.5.1-4,.5-7.8,2-11.1,4.3-1.1.8-2.2,1.7-2.7,2.9,1.6,1.2,3.4,2.5,4.5,4.2.5.8,1.1,1.7,1.7,2.5v-.1Z"/>
            <path class="cls-10" d="M28.8,305c2.6-.3,5.2-.9,7.7-1.8,4.7-1.7,9.1-4.3,12.6-7.8.4-4.2-1.3-7.5-3.6-11.1-2.3-3.6-5.8-6.4-9.8-7.9-.4-.2-1.4.2-1.6.6-3.5.9-6.6,2.8-9.4,5.1-1.9,1.6-3.6,3.3-5.3,5.1-4,4.5-7.7,9.4-12.6,12.9,6.5,3.9,14.4,5.6,22,4.8v.1Z"/>
            <path class="cls-11" d="M28.8,305c2.6-.3,5.2-.9,7.7-1.8,1.4-.8,2.7-1.9,3.7-3.2-2.1-2.8-4.8-5.3-7.8-7.2-4.4,2-8.7,4-13,6.2l9.8-6.1c.7-.4,1.4-.9,1.7-1.6.3-.7.2-1.6,0-2.4-.5-2.3-1.3-4.7-3.2-6.1-.9-.7-1.9-.8-3-.7-1.9,1.6-3.6,3.3-5.3,5.1-4,4.5-7.7,9.4-12.6,12.9,6.5,3.9,14.4,5.6,22,4.8v.1Z"/>
          </g>
          <g>
            <path class="cls-20" d="M413.5,124.9c0,3.3-.4,6.7-1.4,9.9-1.5-3-4.8-4.9-7.9-5.8-2.1-.6-4.3-.8-6.1-1.9-.3-.1-.5-.3-.8-.5-1.1-.9-1.9-2.2-2.5-3.5-1.5-3.1-3.4-8.1-2.9-11.6,0-.6.2-1.2.7-1.5,2.2-1.9,7.3-.1,9.6.8,3.4,1.4,6.5,3.6,8.8,6.4.5.7,1,1.4,1.4,2.2.2.3.3.7.5,1.1.5,1.4.7,3,.7,4.5l-.1-.1Z"/>
            <g>
              <path class="cls-16" d="M422.1,112.9c-1.6-1.7-3.9-2.8-6.3-2.8s-4.3,1.5-6.4,2.6c-1.2.6-2.4,1.3-3.5,2-1.1.6-2.1,1.4-3.2,2.1-.5.3-1,.7-1.5.7s-1-.2-1.5-.5c-3.2-1.8-6.1-4-8.9-6.4.7-3.8,2.4-6.1,4.5-9.4,1.5-2.3,3.5-4.2,5.9-5.5.5-.3,1-.5,1.5-.5h.3c.6,0,1.1.3,1.7.6,5.5,2.7,10.7,5.5,14.4,10.6.8,1.1,1.5,2.3,2.1,3.5.1.3.3,1.3.5,2,0,.5.2.9.3,1h.1Z"/>
              <path class="cls-14" d="M421.7,112.3h0c-.4-.5-.9-.8-1.4-1.1-1.3-.7-2.5-1.6-4.1-1.7-1.8,0-3.6.7-5.2,1.5-1.7.8-3.4,1.6-5.1,2.4-.5.2-1,.5-1.6.5-1.6,0-2.3-3.9-2.9-5.1-.2-.5-.4-1.1-.2-1.6s.6-.8,1.1-1c2-1.1,4.1-1.9,6.3-2.4-2.5-.4-5-.7-7.5-1.1-.5,0-1.1-.2-1.4-.5-.5-.6-.4-1.5,0-2.2.7-1.9,2.1-3.2,3.3-4.7h.3c.6,0,1.1.3,1.7.6,3,1.5,6,3,8.7,5,1.3,1,2.6,2.1,3.8,3.3.6.6,1.1,1.3,1.6,1.9.7.9,1.6,1.7,2.1,2.8s.6,2.3.7,3.4h-.2Z"/>
            </g>
            <path class="cls-13" d="M413.5,124.9c0,3.3-.4,6.7-1.4,9.9-1.5-3-4.8-4.9-7.9-5.8-2.1-.6-4.3-.8-6.1-1.9-.7-1.6-1.3-3.2-1-4.7.4-2.2,2.1-2.6,4.1-2.2,2.3.5,5,2,6.2,2.8-1.3-1.2-2.6-2.3-3.9-3.5,1.2-2.5,4.9-2.8,7.2-1.4.6.4,1.1.8,1.6,1.3.2.3.3.7.5,1.1.5,1.4.7,3,.7,4.5v-.1Z"/>
          </g>
          <g>
            <path class="cls-19" d="M4.6,233.9c-2,3-3.6,6.3-4.6,9.8,3.2-1.8,7.3-1.7,10.7-.7,2.2.7,4.4,1.8,6.7,1.9h1c1.6-.2,3-.9,4.4-1.7,3.2-1.9,7.9-5.4,9.5-8.8.3-.6.5-1.2.3-1.8-.9-3.1-6.6-4.5-9.3-5-3.9-.8-8-.6-11.8.7-.9.3-1.8.7-2.6,1.1-.4.2-.7.4-1.1.7-1.3,1-2.4,2.3-3.3,3.7l.1.1Z"/>
            <g>
              <path class="cls-15" d="M3.9,217.8c2.5-.7,5.2-.2,7.4,1.1,2.3,1.4,3,3.9,4.3,6.2.7,1.3,1.4,2.6,2.1,3.9.6,1.2,1.2,2.5,1.7,3.8.2.6.5,1.2,1,1.6.5.3,1.1.4,1.6.4,4,.2,8,0,11.9-.6,1.6-3.9,1.4-7,1.4-11.3,0-3-.8-5.9-2.2-8.5-.3-.5-.6-1-1.1-1.4,0,0-.2-.1-.2-.2-.6-.3-1.2-.4-1.9-.5-6.7-.7-13.1-1.3-19.4,1.2-1.4.5-2.8,1.2-4,2-.3.2-1,1-1.6,1.6-.4.4-.7.7-.9.7h-.1Z"/>
              <path class="cls-22" d="M4.6,217.5h0c.6-.2,1.3-.2,2-.2,1.7,0,3.2,0,4.7.9,1.7,1,2.8,2.8,3.9,4.4,1.1,1.7,2.2,3.5,3.3,5.2.3.5.7,1,1.2,1.4,1.4.9,4.4-2.2,5.6-3,.5-.3,1-.7,1.2-1.3.1-.5-.1-1.1-.4-1.6-1.2-2.1-2.6-4.1-4.4-5.9,2.5,1.2,5,2.3,7.5,3.4.5.2,1.1.5,1.6.3.8-.2,1.2-1.2,1.4-2,.4-2.1,0-4.2-.3-6.2,0,0-.2-.1-.2-.2-.6-.3-1.2-.4-1.9-.5-3.6-.4-7.3-.8-10.9-.6-1.8,0-3.6.3-5.4.8-.9.2-1.8.5-2.6.8-1.2.4-2.5.7-3.5,1.4-1.1.7-1.9,1.7-2.7,2.8l-.1.1Z"/>
            </g>
            <path class="cls-18" d="M4.6,233.9c-2,3-3.6,6.3-4.6,9.8,3.2-1.8,7.3-1.7,10.7-.7,2.2.7,4.4,1.8,6.7,1.9,1.6-1,3.1-2.2,3.7-3.7,1-2.3-.4-3.7-2.4-4.5-2.4-1-5.7-1.1-7.3-1.1,1.9-.3,3.7-.6,5.6-.9.3-3-2.8-5.5-5.8-5.5-.8,0-1.5,0-2.2.3-.4.2-.7.4-1.1.7-1.3,1-2.4,2.3-3.3,3.7h0Z"/>
          </g>
          <g>
            <g>
              <path class="cls-21" d="M397.5,45.8c-.2,5.2-.5,10.4-.7,15.6-.5,10.4-1,20.9-1.5,31.3-.2,5.3-.5,10.7-.7,16-.2,4.9.2,10.5-.9,15.3,0,.2,0,.4-.2.5-.2.2-.4.3-.7.3-.8.2-1.6.2-2.4.1,1.6,1.5,3.3,1.8,3.1,4.5-.2,3-.4,5.9-.6,8.9-.4,5.7-.4,11.4-.7,17.1-.2,4.6-.4,9.1-.6,13.7-.1,2.3.3,6.1-1.3,8.1-.8,1-1.9,1.1-3,1.7,1-.5,2.6,1.1,2.9,1.8.3.8.3,1.6.4,2.4.2,4.6-.2,9.2-.4,13.8-.6,11.3-1.2,22.6-1.9,33.9-.7,12.7-1.5,25.5-2.2,38.2-.2,4.4-.5,8.7-.8,13.1-.3,5.4-3.3,9.7-6.6,13.8-1.4,1.7-2.8,3.4-4.3,5-2.5,2.6-3.9,4-7.6,4h-4.5c-4.5,0-9.1,0-13.6-.1-8.9,0-17.9-.2-26.8-.2h-1.7c-27.9-.2-55.7,1.1-83.6-.6-.8,0-1.6-.1-2.4-.5-.5-.3-.9-.7-1.5-.9-.7-.3-1.5-.2-2.3,0-1.8.3-3.5.8-5.1,1.5-.8.4-1.6.8-2.5.9-.7.1-1.4,0-2.2,0-9.2-.6-18.3-.8-27.5-.8-28.1,0-56.2.1-84.3.3h-4.8c-11.1,0-22.2.2-33.2.3-4.5,0-9.1,0-13.6.1h-4.5c-3.7,0-5.2-1.4-7.6-4-1.5-1.6-2.9-3.2-4.3-5-3.3-4.1-6.3-8.4-6.6-13.8-.1-1.9-.2-3.7-.3-5.6-.1-1.8-.2-3.6-.3-5.3-1-17.5-2-35.1-3-52.6-.2-3.9-.4-7.7-.6-11.6-.6-11.7-1.3-23.5-1.8-35.2-.2-5.6,0-11.4-.7-17-.4-3-1.3-6.1-.5-9,.5-2.1,1.2-4,1.6-6.2.9-4.5-3.3-4.5-3.5-8.6-.3-7.2-.5-14.5-.8-21.7-.5-16-.9-32-1.6-48-.2-5.2-.5-10.4-.7-15.6,0-2.2-.4-4.6.2-6.7.6-1.9,1.9-3.6,3-5.2,1.8-2.7,3.7-5.3,5.8-7.8,2.3-2.7,4.4-5.9,7.6-7.5,1.8-.9,3.9-1,6-1h8.3c6.3,0,12.5.2,18.8.2s11.6,1.4,17.5,2.3c1.2.2,2.4.4,3.5.2,1.2-.2,2.3-.9,3.4-1.3,4-1.5,10.2-.7,14.5-.7,11.5.1,23.1.3,34.6.4,20.6.2,41.1.5,61.7.7,13.1-.1,26.2-.3,39.3-.4,6.5,0,13.1-.2,19.6-.2,2.9,0,6.5-.6,9.4,0,2.5.5,5.1,1.8,7.5,2.6-.4-.5-.8-1.1-.9-1.7,3.9-1.6,8.8-1.1,13-1.1,4.8,0,9.5-.1,14.3-.2,10.8-.1,21.7-.3,32.5-.4,8.4-.1,16.8-.2,25.3-.3h8.3c2,0,4.1,0,6,1,3.2,1.6,5.4,4.8,7.6,7.5,2.1,2.5,4,5.1,5.8,7.8,1.1,1.7,2.4,3.3,3,5.2.6,2.1.3,4.5.2,6.7h-.3Z"/>
              <path class="cls-3" d="M390.5,42.4v1.4c-.2,3.7-.3,7.4-.5,11.1v4.5c-.1,2.5-.2,5-.3,7.4v2.1c-.1,3.3-.3,6.6-.5,9.9,0,.8,0,1.5-.1,2.2,0,1.5-.1,3-.2,4.5,0,.8.1,1.9-.2,2.7-.2.7-.8,1.4-1.1,2.1-.2.4-.4.8-.5,1.2-.2.6-.3,1.3-.3,2-.2,2.5-.4,5,0,7.4.5,2.5,1.6,4.6,1,7.2-.3,1.3-.2,2.8-.2,4.1,0,1.5-.1,2.9-.2,4.4-.1,2.1-.2,4.3-.3,6.4-.3,5.4-.5,10.8-.8,16.2,0,.8,0,1.6-.1,2.4-.2,4-.4,7.9-.6,11.9-.3,6.8-.7,13.6-1.1,20.4,0,1.1,0,2.3-.3,3.3s-.6,2.1-.3,3.1.2,1.8.1,2.8c-.2,3.4-.4,6.7-.5,10.1,0,.6,0,1.2-.1,1.8-.3,5.1-.5,10.1-.8,15.2,0,.7,0,1.5-.1,2.2,0,1.4-.1,2.8-.2,4.2-.4,8-.9,16.2-1.4,24.3,0,1.3-.1,2.7-.2,4-.2,3.1-.4,6.2-.5,9.4-.1,1.8-.3,3.6-.5,5.4,0,1.2-.4,2.3-.4,3.4,0,1.6.2,3.1.2,4.7s-.4,3.2-.5,4.8c-.1,2.1-.2,4.1-.3,6.2v1.4c-.2,3.4-2.4,6.5-5.2,9.9-1.2,1.6-2.6,3.1-3.9,4.5-.5.5-1.5,1.6-1.9,1.8h-3.6l-22.4-.2c-6.1,0-12.2-1.8-18.1-2.9-1.4-.3-3.1-.4-4.1.6-.7.7-.9,1.8-1.8,2.2-.4.1-.8.1-1.2,0-6.6-.6-13.3-.3-19.9-.3-11.3,0-22.9-.8-34.2-.1-2.8.2-5.7,0-8.5,0h-100.3c-28.6,0-56.3.3-83.7.5h-15.3c-1,.2-1.9.2-2.9.2s-.7,0-.7,0c-.3-.2-1.3-1.2-1.8-1.8-1.3-1.4-2.7-3-3.9-4.5-1-1.2-1.9-2.4-2.7-3.6-.1-.2-.3-.5-.4-.7-1.2-1.9-1.9-3.7-2.1-5.6-.2-3.2-.4-6.4-.6-9.6v-.6c-.2-3-.4-6-.5-9,0-1,.1-2,.1-3,0-1.2-.3-2.4-.5-3.6-.2-1.6.1-3.1,0-4.7-.1-1.1-.4-2.3-.4-3.4-.2-2.8-.3-5.6-.5-8.4,0-.9,0-1.8-.1-2.7-.3-5.3-.6-10.6-.9-15.9-.1-2.3,1.7-1.5,2.2-3.6-1.2-2.8-2.5-5.5-2.8-8.5-.4-3.3-.4-6.7-.5-10,0-.9-.1-1.9-.2-2.9-.2-4.4-.5-8.7-.7-13l-.2-3.5c-.1-2.1-.7-4.8-.4-6.8.3-1.9,1.5-3.1.7-5.1-1.4-3.5-1.3-7-1.5-10.8v-1.7c-.2-4.3-.4-8.6-.7-12.9v-1.3c-.2-3.9-.4-7.8-.6-11.7-.2-4.2-.6-8.5-.8-12.7,0-2.7-.2-5.5-.3-8.2-.2-5.2-.5-10.4-.7-15.6v-.4c-.2-4.8-.4-9.5-.7-14.3,0-1.1,0-2.2-.1-3.3-.2-4.1-.4-8.2-.6-12.4v-1.4c0-.8,0-1.6-.1-2.4-.2-4.4-.4-8.8-.6-13.2v-1.4c0-1-.2-2.4,0-2.9.1-.5.8-1.4,1.4-2.2.3-.4.5-.8.8-1.2,1.7-2.6,3.5-5,5.4-7.1.5-.5.9-1.1,1.4-1.7h0c.4-.4.7-.9,1.1-1.3,1-1.2,2-2.3,2.9-2.7.4-.2,1.2-.3,2.4-.3l32,.4h4.7l88,1.1h2.7c2.9,0,5.9,0,8.8.1,9,0,18,.2,27,.3h1.9c3.2,0,6.4,0,9.6-.1,6.6,0,13.1-.1,19.6-.2h5.8c21.9-.2,43.7-.5,65.6-.8l15.9-.2h4.7l46-.6c1.2,0,2,0,2.4.3.6.3,1.3.9,2,1.7.2.2.4.4.5.6.5.6,1,1.2,1.4,1.8.5.6.9,1.1,1.4,1.7,1.8,2.2,3.7,4.6,5.4,7.1v.1c.2.4.5.7.7,1h0c.5.8,1.2,1.7,1.3,2.2s0,1.9,0,2.9l-.4.2Z"/>
            </g>
            <path class="cls-5" d="M390.4,42.4v1.4c-.2,3.7-.3,7.4-.5,11.1,0,.8,0,1.6-.1,2.3v2.2c-.1,2.5-.2,5-.3,7.4v2.1c-.2,3.3-.3,6.6-.5,9.9,0,.8,0,1.5-.1,2.2,0,1.5-.1,3-.2,4.5,0,1.3,0,2.8-.2,4.1-.3,1.2-.9,2.4-1.3,3.5-.3.9-.6,1.9-.6,2.9,0,.7,0,1.5.2,2.2l.9,5.7c0,.5.1,1,.2,1.5,0,3.7-.4,7.5-.6,11.3,0,2.1-.2,4.3-.3,6.4-.3,5.4-.5,10.8-.8,16.2,0,.8,0,1.6-.1,2.4-.2,4-.4,7.9-.6,11.9-.3,6.8-.7,13.6-1.1,20.4,0,1.5-.2,2.9-.2,4.4-.3,5-.5,10-.8,15v1.8c-.3,5.1-.5,10.2-.8,15.2,0,.7,0,1.5-.1,2.2,0,1.4-.1,2.8-.2,4.2-.4,8-.9,16.2-1.4,24.3,0,1.3-.1,2.7-.2,4-.2,3.1-.4,6.2-.5,9.4-.2.9-.4,1.8-.5,2.7.2-1.2.1-2.6.2-3.8,0-1.3.1-2.7.2-4,.1-2.7.2-5.3.3-8,.2-5.3.4-10.6.6-15.9.4-10.6.9-21.2,1.3-31.9.1-2.7.2-5.4.3-8.1,0-1.1,0-2.3.2-3.4.2-1,.3-1.9-.6-2.7-.9-.7-2-.9-3.1-1-2.3-.3-4.7-.6-7-.9,4.1.6,8.1,1.1,12.2,1.5-.3-.6-.9-1.1-1.6-1.3.8-.8.4-1.8.4-2.7,0-1.3.1-2.7.2-4,.1-2.8.3-5.5.3-8.3,0-1-.3-2-.2-3,0-1.1.9-2,1-3.2.1-1.4-.5-2.8-.4-4.2.1-1.7.2-3.5.3-5.2.1-3.7.3-7.3.4-11,0-2.4.6-4.9.4-7.3,0-1.3-.6-2.2-.3-3.4.4-1.5,1-3,1.6-4.5-1.6.2-1.2-.8-1.2-1.9v-2.8c0-2.2.2-4.5.3-6.7.2-3.3.4-6.5.6-9.8h0c.3-8.2.7-16.4,1-24.5.4-10.1,1.4-20.4,1.2-30.6,0-7.4-4.3-13.3-9.9-18.4-4.1-3.8-12.1-1.5-17.1-1.6-6-.2-12.1-.2-18.1,0-5.7.1-11.3.4-17,.7-5.2.3-9.3,1.6-14.3,3.2,1.4-.8,2.9-1.6,4.3-2.4-7.4,0-14.7.1-22.1.2-14.2.1-28.3.2-42.5.3-7.1,0-14.2,0-21.3.1h-10.6c-3.1,0-6.4,0-9.4.4,0,.6.7,2.8,1.2,3.1-1.6-1-3.2-2.3-5-2.8-1.9-.6-4-.6-5.9-.6h-31.9c-14.2,0-28.3,0-42.5-.2-14.2,0-28.3-.2-42.5-.4s-28.3-.4-42.5-.8c-1.1,0-2.9,2.6-3.3,3.5-.6,1.5-.3,3.2.7,4.5-1.7-1-3.7-1.5-4.9,0-1.3,1.7-2.6,3.5-3.7,5.4-2.4,4.3-1.5,8.3-1.3,13.2.2,4.3.4,8.7.6,13,0,1.9-.1,4,.4,5.8.6,2.1,1.3,4.1.9,6.3-.1.6-.3,1.2-.4,1.8-.6,2.9,0,5.9,0,8.8.1,3.3.2,6.5.4,9.8.2,6.4.5,12.8.8,19.2-.4-8.7-.8-17.4-1.3-26-.2-4.8-.4-9.5-.7-14.3,0-1.1,0-2.2-.1-3.3-.2-4.1-.4-8.2-.6-12.4v-1.3c0-.8,0-1.6-.1-2.4-.2-4.4-.4-8.8-.6-13.2v-1.4c0-1-.2-2.4,0-2.9.1-.5.8-1.4,1.4-2.2.3-.4.5-.8.8-1.2,1.7-2.5,3.5-4.9,5.4-7.1.4-.5.9-1.1,1.4-1.7h0c.4-.4.7-.9,1.1-1.3,1-1.2,2-2.3,2.9-2.7.4-.2,1.2-.3,2.4-.3l32,.4h4.7l88,1.1h2.7c2.9,0,5.8,0,8.8.1,9,.1,18,.2,27,.3h1.9c3.2,0,6.4,0,9.6-.1,6.5,0,13.1-.1,19.6-.2h5.8c21.9-.2,43.7-.5,65.6-.8l15.9-.2h4.7l46-.6c1.2,0,2,0,2.4.3.6.3,1.3.9,2,1.7.2.2.4.4.5.6.5.6,1,1.2,1.4,1.8.5.6.9,1.1,1.4,1.7,1.8,2.2,3.7,4.6,5.4,7.1v.1c.2.4.5.7.7,1h0c.5.8,1.2,1.7,1.3,2.2s0,1.9,0,2.9h-.4Z"/>
          </g>
          <g>
            <g>
              <path class="cls-5" d="M202.8,31.4c-.7-.2-2,0-2.6.1-2.9.2-5.9.3-8.8.3-5.9,0-11.8-.3-17.6-.5-3.4-.2-6.8-.3-10.2-.4-12.7-.3-25.4-.5-38.1-.5s-24.7.1-37,.4c-8.7.2-17.5.3-26.3.6-7,.2-14.7-.2-20.3,4.5-2.2,1.8-3.9,4-5.7,6.1-1.4,1.6-3.7,2.9-2.8,5.1,1.9,4.3,6.8,7.6,10.7,10.1,2.3,1.5,5.2-3.1,6.2-4.4,1.7-2.3,3.3-4.9,5.2-7.1,1.3-1.4,2.5-1.7,1-3.2-1.2-1.2-2.4-2.3-3.5-3.5-.7-.8-2.8.3-3.3.8-2.3,2.2-4.5,4.7-6.9,6.9-1.4,1.2,2.5.6,3.2-.3,1.4-1.7,3.2-3.3,5-4.6,1.2-.9.8-.7,1.7,0,.7.6,1.4,1.4,1.4,2.3,0,.3-.2.7-.3,1-1.9,3.4-5.4,5.9-7.6,9.1-.5.7-8.3-6.9-9-7.5-1.7-1.6-1.7-2.7-.1-4.4,2.5-2.6,5-5.3,8.1-7.2,4.6-2.7,10.5-2,15.7-2.1,8.6-.1,17.3-.7,25.9-.9,13-.3,26.1-.4,39.1-.4s25.4.2,38.1.6c12.4.3,24.8,1.4,37.1.4-1.9,1.4-3.5,3.3-5.3,4.8-2,1.7-4.2,3.2-6.5,4.5-1.9-1.3-3.8-2.6-5.6-3.9,0-.2-.1-.4-.2-.6,0-.1,7.1-.9,7.7-.9-.7.7-1.4,1.3-2,2-.2.2,1.1.4,1.3.4.5-.1,1-.6,1.4-.8,1-.7,2-1.5,2.8-2.4.4-.5-.2-.7-.6-.7-2.3-.1-4.6.2-6.8.7-1.1.2-2.2.5-3.4.7-.5.1-2,.2-2.2.8s.7,1,1.1,1.3c.6.4,1.1,1,1.7,1.5,1,.8,3,2.9,4.4,2.8,1.5,0,2.9-1.6,4-2.3,1.6-1,3.1-2,4.5-3.1,1.2-.9,2.5-1.8,3.5-2.9.6-.6,2-1.6,2.2-2.5,0-.3-.1-.5-.4-.6l.1-.1Z"/>
              <path class="cls-1" d="M202.1,30.9c-.7-.2-2,0-2.6.1-2.9.2-5.9.3-8.8.3-5.9,0-11.8-.3-17.6-.5-3.4-.2-6.8-.3-10.2-.4-12.7-.3-25.4-.5-38.1-.5s-24.7.1-37,.4c-8.7.2-17.5.3-26.2.6-7,.2-14.7-.2-20.3,4.5-2.2,1.8-3.9,4-5.7,6.1-1.4,1.6-3.7,2.9-2.8,5.1,1.9,4.3,6.8,7.6,10.7,10.1,2.3,1.5,5.2-3.1,6.2-4.4,1.7-2.3,3.3-4.9,5.2-7.1,1.3-1.4,2.5-1.7,1-3.2-1.2-1.2-2.4-2.3-3.5-3.5-.7-.8-2.8.3-3.3.8-2.3,2.2-4.5,4.7-6.9,6.9-1.4,1.2,2.5.6,3.2-.3,1.4-1.7,3.2-3.3,5-4.6,1.2-.9.8-.7,1.7,0,.7.6,1.4,1.4,1.4,2.3,0,.3-.2.7-.3,1-1.9,3.4-5.4,5.9-7.6,9.1-.5.7-8.3-6.9-9-7.5-1.7-1.6-1.7-2.7-.1-4.4,2.5-2.6,5-5.3,8.1-7.2,4.6-2.7,10.5-2,15.7-2.1,8.6-.1,17.3-.7,25.9-.9,13-.3,26.1-.4,39.1-.4s25.4.2,38.1.6c12.4.3,24.8,1.4,37.1.4-1.9,1.4-3.5,3.3-5.3,4.8-2,1.7-4.2,3.2-6.5,4.5-1.9-1.3-3.8-2.6-5.6-3.9,0-.2-.1-.4-.2-.6,0-.1,7.1-.9,7.7-.9-.7.7-1.4,1.3-2,2-.2.2,1.1.4,1.3.4.5-.1,1-.6,1.4-.8,1-.7,2-1.5,2.8-2.4.4-.5-.2-.7-.6-.7-2.3-.1-4.6.2-6.8.7-1.1.2-2.2.5-3.4.7-.5.1-2,.2-2.2.8s.7,1,1.1,1.3c.6.4,1.1,1,1.7,1.5,1,.8,3,2.9,4.4,2.8,1.5,0,2.9-1.6,4-2.3,1.6-1,3.1-2,4.5-3.1,1.2-.9,2.5-1.8,3.5-2.9.6-.6,2-1.6,2.2-2.5,0-.3-.1-.5-.4-.6v-.1Z"/>
            </g>
            <path class="cls-5" d="M213,31.7c.7-.2,2,0,2.6.1,2.9.2,5.9.3,8.8.3,5.9,0,11.8-.3,17.6-.5,3.4-.2,6.8-.3,10.2-.4,12.7-.3,25.4-.5,38.1-.5s24.7.1,37,.4c8.7.2,17.5.3,26.2.6,7,.2,14.7-.2,20.3,4.5,2.2,1.8,3.9,4,5.7,6.1,1.4,1.6,3.7,2.9,2.8,5.1-1.9,4.3-6.8,7.6-10.7,10.1-2.3,1.5-5.2-3.1-6.2-4.4-1.7-2.3-3.3-4.9-5.2-7.1-1.3-1.4-2.5-1.7-1-3.2,1.2-1.2,2.4-2.3,3.5-3.5.7-.8,2.8.3,3.3.8,2.3,2.2,4.5,4.7,6.9,6.9,1.4,1.2-2.5.6-3.2-.3-1.4-1.7-3.2-3.3-5-4.6-1.2-.9-.8-.7-1.7,0-.7.6-1.4,1.4-1.4,2.3,0,.3.2.7.3,1,1.9,3.4,5.4,5.9,7.6,9.1.5.7,8.3-6.9,9-7.5,1.7-1.6,1.7-2.7.1-4.4-2.5-2.6-5-5.3-8.1-7.2-4.6-2.7-10.5-2-15.7-2.1-8.6-.1-17.3-.7-25.9-.9-13-.3-26.1-.4-39.1-.4s-25.4.2-38.1.6c-12.4.3-24.8,1.4-37.1.4,1.9,1.4,3.5,3.3,5.3,4.8,2,1.7,4.2,3.2,6.5,4.5,1.9-1.3,3.8-2.6,5.6-3.9,0-.2.1-.4.2-.6,0-.1-7.1-.9-7.7-.9.7.7,1.4,1.3,2,2,.2.2-1.1.4-1.3.4-.5-.1-1-.6-1.4-.8-1-.7-2-1.5-2.8-2.4-.4-.5.2-.7.6-.7,2.3-.1,4.6.2,6.8.7,1.1.2,2.2.5,3.4.7.5.1,2,.2,2.2.8s-.7,1-1.1,1.3c-.6.4-1.1,1-1.7,1.5-1,.8-3,2.9-4.4,2.8-1.5,0-2.9-1.6-4-2.3-1.6-1-3.1-2-4.5-3.1-1.2-.9-2.5-1.8-3.5-2.9-.6-.6-2-1.6-2.2-2.5,0-.3.1-.5.4-.6v-.1Z"/>
            <path class="cls-1" d="M212.6,30.9c.7-.2,2,0,2.6.1,2.9.2,5.9.3,8.8.3,5.9,0,11.8-.3,17.6-.5,3.4-.2,6.8-.3,10.2-.4,12.7-.3,25.4-.5,38.1-.5s24.7.1,37,.4c8.7.2,17.5.3,26.3.6,7,.2,14.7-.2,20.3,4.5,2.2,1.8,3.9,4,5.7,6.1,1.4,1.6,3.7,2.9,2.8,5.1-1.9,4.3-6.8,7.6-10.7,10.1-2.3,1.5-5.2-3.1-6.2-4.4-1.7-2.3-3.3-4.9-5.2-7.1-1.3-1.4-2.5-1.7-1-3.2,1.2-1.2,2.4-2.3,3.5-3.5.7-.8,2.8.3,3.3.8,2.3,2.2,4.5,4.7,6.9,6.9,1.4,1.2-2.5.6-3.2-.3-1.4-1.7-3.2-3.3-5-4.6-1.2-.9-.8-.7-1.7,0-.7.6-1.4,1.4-1.4,2.3,0,.3.2.7.3,1,1.9,3.4,5.4,5.9,7.6,9.1.5.7,8.3-6.9,9-7.5,1.7-1.6,1.7-2.7.1-4.4-2.5-2.6-5-5.3-8.1-7.2-4.6-2.7-10.5-2-15.7-2.1-8.6-.1-17.3-.7-25.9-.9-13-.3-26.1-.4-39.1-.4s-25.4.2-38.1.6c-12.4.3-24.8,1.4-37.1.4,1.9,1.4,3.5,3.3,5.3,4.8,2,1.7,4.2,3.2,6.5,4.5,1.9-1.3,3.8-2.6,5.6-3.9,0-.2.1-.4.2-.6,0-.1-7.1-.9-7.7-.9.7.7,1.4,1.3,2,2,.2.2-1.1.4-1.3.4-.5-.1-1-.6-1.4-.8-1-.7-2-1.5-2.8-2.4-.4-.5.2-.7.6-.7,2.3-.1,4.6.2,6.8.7,1.1.2,2.2.5,3.4.7.5.1,2,.2,2.2.8s-.7,1-1.1,1.3c-.6.4-1.1,1-1.7,1.5-1,.8-3,2.9-4.4,2.8-1.5,0-2.9-1.6-4-2.3-1.6-1-3.1-2-4.5-3.1-1.2-.9-2.5-1.8-3.5-2.9-.6-.6-2-1.6-2.2-2.5,0-.3.1-.5.4-.6l-.1-.1Z"/>
            <path class="cls-5" d="M212.1,36.9c-2-1.3-3.6-2.3-4.2-2.4-1.9,0-4.3,2.1-5.7,2.9-3.4,2.1-6.4,4.7-9.7,7-1.2.8.9.5,1.3.3,1.4-.7,2.6-2.2,3.8-3.2,1.6-1.3,3.3-2.5,5.1-3.6.9-.6,1.8-1.1,2.7-1.6s1.4-1,2.4-.5c.9.4,1.6,1,2.4,1.5,2.1,1.4,4.2,2.9,6.2,4.3,1,.7,2.1,1.4,3.1,2.1.5.3,1.5,1.6,2,.7.5-.8-1.2-1.4-1.7-1.8-.8-.6-1.6-1.2-2.4-1.8-1.8-1.3-3.7-2.7-5.6-3.9h.3Z"/>
            <path class="cls-1" d="M212,36.2c-2-1.3-3.6-2.3-4.2-2.4-1.9,0-4.3,2.1-5.7,2.9-3.4,2.1-6.4,4.7-9.7,7-1.2.8.9.5,1.3.3,1.4-.7,2.6-2.2,3.8-3.2,1.6-1.3,3.3-2.5,5.1-3.6.9-.6,1.8-1.1,2.7-1.6s1.4-1,2.4-.5c.9.4,1.6,1,2.4,1.5,2.1,1.4,4.2,2.9,6.2,4.3,1,.7,2.1,1.4,3.1,2.1.5.3,1.5,1.6,2,.7.5-.8-1.2-1.4-1.7-1.8-.8-.6-1.6-1.2-2.4-1.8-1.8-1.3-3.7-2.7-5.6-3.9h.3Z"/>
          </g>
          <g>
            <g>
              <path class="cls-5" d="M203,291.1c-.6.2-1.9,0-2.4-.1-2.8-.2-5.6-.2-8.3-.2-5.6,0-11.1.2-16.7.5-3.2.1-6.4.3-9.7.4-12,.3-24.1.5-36.1.5s-23.4,0-35.1-.3c-8.3-.2-16.6-.3-24.9-.5-6.6-.2-14,.2-19.2-3.9-2-1.6-3.7-3.5-5.4-5.4-1.3-1.4-3.5-2.5-2.6-4.5,1.8-3.8,6.4-6.6,10.1-8.9,2.2-1.3,5,2.7,5.9,3.9,1.6,2,3.1,4.3,5,6.2,1.2,1.2,2.4,1.5.9,2.8-1.1,1-2.3,2-3.3,3.1-.7.7-2.6-.3-3.2-.7-2.2-2-4.3-4.1-6.6-6-1.3-1.1,2.3-.5,3,.2,1.4,1.5,3,2.9,4.7,4.1,1.2.8.8.6,1.7,0,.6-.5,1.4-1.2,1.3-2,0-.3-.1-.6-.3-.9-1.8-3-5.1-5.2-7.2-8-.5-.7-7.9,6-8.5,6.6-1.6,1.4-1.6,2.4-.1,3.9,2.3,2.3,4.7,4.7,7.7,6.3,4.4,2.4,10,1.8,14.9,1.9,8.2.1,16.4.6,24.5.8,12.4.3,24.7.4,37.1.3,12,0,24.1-.2,36.1-.5,11.7-.3,23.5-1.2,35.2-.4-1.8-1.2-3.3-2.9-5-4.2-1.9-1.5-4-2.8-6.2-4-1.8,1.1-3.6,2.3-5.4,3.4,0,.2-.1.3-.2.5,0,.1,6.7.8,7.3.8-.6-.6-1.3-1.2-1.9-1.7-.2-.2,1.1-.4,1.2-.3.4,0,1,.5,1.4.7,1,.6,1.9,1.3,2.7,2.1.4.4-.2.6-.6.6-2.2,0-4.3-.2-6.4-.6-1.1-.2-2.1-.4-3.2-.6-.5,0-1.9-.2-2.1-.7-.2-.6.6-.9,1-1.1.6-.4,1.1-.9,1.6-1.3,1-.7,2.9-2.5,4.2-2.5,1.4,0,2.7,1.4,3.8,2.1,1.5.9,2.9,1.8,4.3,2.8,1.1.8,2.3,1.6,3.3,2.5.6.6,1.9,1.4,2.1,2.2,0,.3-.1.4-.4.5v-.4Z"/>
              <path class="cls-1" d="M202.4,290.3c-.6.2-1.9,0-2.4-.1-2.8-.2-5.6-.2-8.3-.2-5.6,0-11.1.2-16.7.5-3.2.1-6.4.3-9.7.4-12,.3-24.1.5-36.1.5s-23.4,0-35.1-.3c-8.3-.2-16.6-.3-24.9-.5-6.6-.2-14,.2-19.2-3.9-2-1.6-3.7-3.5-5.4-5.4-1.3-1.4-3.5-2.5-2.6-4.5,1.8-3.8,6.4-6.6,10.1-8.9,2.2-1.3,5,2.7,5.9,3.9,1.6,2,3.1,4.3,5,6.2,1.2,1.2,2.4,1.5.9,2.8-1.1,1-2.3,2-3.3,3.1-.7.7-2.6-.3-3.2-.7-2.2-2-4.3-4.1-6.6-6-1.3-1.1,2.3-.5,3,.2,1.4,1.5,3,2.9,4.7,4.1,1.2.8.8.6,1.7,0,.6-.5,1.4-1.2,1.3-2,0-.3-.1-.6-.3-.9-1.8-3-5.1-5.2-7.2-8-.5-.7-7.9,6-8.5,6.6-1.6,1.4-1.6,2.4-.1,3.9,2.3,2.3,4.7,4.7,7.7,6.3,4.4,2.4,10,1.8,14.9,1.9,8.2.1,16.4.6,24.5.8,12.4.3,24.7.4,37.1.3,12,0,24.1-.2,36.1-.5,11.7-.3,23.5-1.2,35.2-.4-1.8-1.2-3.3-2.9-5-4.2-1.9-1.5-4-2.8-6.2-4-1.8,1.1-3.6,2.3-5.4,3.4,0,.2-.1.3-.2.5,0,.1,6.7.8,7.3.8-.6-.6-1.3-1.2-1.9-1.7-.2-.2,1.1-.4,1.2-.3.4,0,1,.5,1.4.7,1,.6,1.9,1.3,2.7,2.1.4.4-.2.6-.6.6-2.2,0-4.3-.2-6.4-.6-1.1-.2-2.1-.4-3.2-.6-.5,0-1.9-.2-2.1-.7-.2-.6.6-.9,1-1.1.6-.4,1.1-.9,1.6-1.3,1-.7,2.9-2.5,4.2-2.5,1.4,0,2.7,1.4,3.8,2.1,1.5.9,2.9,1.8,4.3,2.8,1.1.8,2.3,1.6,3.3,2.5.6.6,1.9,1.4,2.1,2.2,0,.3-.1.4-.4.5v-.4Z"/>
            </g>
            <path class="cls-5" d="M212.8,290.8c.6.2,1.9,0,2.4-.1,2.8-.2,5.6-.2,8.3-.2,5.6,0,11.1.2,16.7.5,3.2.1,6.4.3,9.7.4,12,.3,24.1.5,36.1.5s23.4,0,35.1-.3c8.3-.2,16.6-.3,24.9-.5,6.6-.2,14,.2,19.2-3.9,2-1.6,3.7-3.5,5.4-5.4,1.3-1.4,3.5-2.5,2.6-4.5-1.8-3.8-6.4-6.6-10.1-8.9-2.2-1.3-5,2.7-5.9,3.9-1.6,2-3.1,4.3-5,6.2-1.2,1.2-2.4,1.5-.9,2.8,1.1,1,2.3,2,3.3,3.1.7.7,2.6-.3,3.2-.7,2.2-2,4.3-4.1,6.6-6,1.3-1.1-2.3-.5-3,.2-1.4,1.5-3,2.9-4.7,4.1-1.2.8-.8.6-1.7,0-.6-.5-1.4-1.2-1.3-2,0-.3.1-.6.3-.9,1.8-3,5.1-5.2,7.2-8,.5-.7,7.9,6,8.5,6.6,1.6,1.4,1.6,2.4.1,3.9-2.3,2.3-4.7,4.7-7.7,6.3-4.4,2.4-10,1.8-14.9,1.9-8.2.1-16.4.6-24.5.8-12.4.3-24.7.4-37.1.3-12,0-24.1-.2-36.1-.5-11.7-.3-23.5-1.2-35.2-.4,1.8-1.2,3.3-2.9,5-4.2,1.9-1.5,4-2.8,6.2-4,1.8,1.1,3.6,2.3,5.4,3.4,0,.2.1.3.2.5,0,.1-6.7.8-7.3.8.6-.6,1.3-1.2,1.9-1.7.2-.2-1.1-.4-1.2-.3-.4,0-1,.5-1.4.7-1,.6-1.9,1.3-2.7,2.1-.4.4.2.6.6.6,2.2,0,4.3-.2,6.4-.6,1.1-.2,2.1-.4,3.2-.6.5,0,1.9-.2,2.1-.7.2-.6-.6-.9-1-1.1-.6-.4-1.1-.9-1.6-1.3-1-.7-2.9-2.5-4.2-2.5-1.4,0-2.7,1.4-3.8,2.1-1.5.9-2.9,1.8-4.3,2.8-1.1.8-2.3,1.6-3.3,2.5-.6.6-1.9,1.4-2.1,2.2,0,.3.1.4.4.5v-.4Z"/>
            <path class="cls-1" d="M212.4,290.3c.6.2,1.9,0,2.4-.1,2.8-.2,5.6-.2,8.3-.2,5.6,0,11.1.2,16.7.5,3.2.1,6.4.3,9.7.4,12,.3,24.1.5,36.1.5s23.4,0,35.1-.3c8.3-.2,16.6-.3,24.9-.5,6.6-.2,14,.2,19.2-3.9,2-1.6,3.7-3.5,5.4-5.4,1.3-1.4,3.5-2.5,2.6-4.5-1.8-3.8-6.4-6.6-10.1-8.9-2.2-1.3-5,2.7-5.9,3.9-1.6,2-3.1,4.3-5,6.2-1.2,1.2-2.4,1.5-.9,2.8,1.1,1,2.3,2,3.3,3.1.7.7,2.6-.3,3.2-.7,2.2-2,4.3-4.1,6.6-6,1.3-1.1-2.3-.5-3,.2-1.4,1.5-3,2.9-4.7,4.1-1.2.8-.8.6-1.7,0-.6-.5-1.4-1.2-1.3-2,0-.3.1-.6.3-.9,1.8-3,5.1-5.2,7.2-8,.5-.7,7.9,6,8.5,6.6,1.6,1.4,1.6,2.4.1,3.9-2.3,2.3-4.7,4.7-7.7,6.3-4.4,2.4-10,1.8-14.9,1.9-8.2.1-16.4.6-24.5.8-12.4.3-24.7.4-37.1.3-12,0-24.1-.2-36.1-.5-11.7-.3-23.5-1.2-35.2-.4,1.8-1.2,3.3-2.9,5-4.2,1.9-1.5,4-2.8,6.2-4,1.8,1.1,3.6,2.3,5.4,3.4,0,.2.1.3.2.5,0,.1-6.7.8-7.3.8.6-.6,1.3-1.2,1.9-1.7.2-.2-1.1-.4-1.2-.3-.4,0-1,.5-1.4.7-1,.6-1.9,1.3-2.7,2.1-.4.4.2.6.6.6,2.2,0,4.3-.2,6.4-.6,1.1-.2,2.1-.4,3.2-.6.5,0,1.9-.2,2.1-.7.2-.6-.6-.9-1-1.1-.6-.4-1.1-.9-1.6-1.3-1-.7-2.9-2.5-4.2-2.5-1.4,0-2.7,1.4-3.8,2.1-1.5.9-2.9,1.8-4.3,2.8-1.1.8-2.3,1.6-3.3,2.5-.6.6-1.9,1.4-2.1,2.2,0,.3.1.4.4.5v-.4Z"/>
            <path class="cls-5" d="M211.9,286.3c-1.9,1.2-3.5,2-4,2.1-1.8,0-4.1-1.8-5.4-2.6-3.2-1.9-6.1-4.1-9.2-6.1-1.1-.7.8-.5,1.2-.3,1.3.6,2.5,2,3.6,2.8,1.5,1.1,3.1,2.2,4.8,3.2.9.5,1.7,1,2.6,1.4.9.4,1.4.9,2.3.4.8-.4,1.6-.9,2.3-1.4,2-1.3,3.9-2.5,5.9-3.8,1-.6,2-1.2,3-1.9.5-.3,1.4-1.4,1.9-.6.4.7-1.1,1.2-1.6,1.6-.8.5-1.5,1-2.3,1.6-1.7,1.2-3.5,2.3-5.3,3.4l.2.2Z"/>
            <path class="cls-1" d="M211.7,285.6c-1.9,1.2-3.5,2-4,2.1-1.8,0-4.1-1.8-5.4-2.6-3.2-1.9-6.1-4.1-9.2-6.1-1.1-.7.8-.5,1.2-.3,1.3.6,2.5,2,3.6,2.8,1.5,1.1,3.1,2.2,4.8,3.2.9.5,1.7,1,2.6,1.4.9.4,1.4.9,2.3.4.8-.4,1.6-.9,2.3-1.4,2-1.3,3.9-2.5,5.9-3.8,1-.6,2-1.2,3-1.9.5-.3,1.4-1.4,1.9-.6.4.7-1.1,1.2-1.6,1.6-.8.5-1.5,1-2.3,1.6-1.7,1.2-3.5,2.3-5.3,3.4l.2.2Z"/>
          </g>
          <path class="cls-4" d="M347.3,24.4c.4,1.7,1.6,3,2.8,4.3,11,11.9,24.4,21.4,36.8,31.9,1.4,1.2,2.8,2.4,3.8,3.8.9,1.2,1.5,2.7,2.1,4.1,1.5,3.8,2.7,7.8,3.5,11.8.7-5.3.4-10.6,0-15.9,0-.5,0-.9-.2-1.4-.2-.7-.7-1.2-1.1-1.7-3.5-3.9-8-6.8-12.2-9.9-11.8-8.6-22.3-19.1-30.9-31-2-2.8-4.9,1.9-4.4,4h-.2Z"/>
          <path class="cls-17" d="M406.5,87.6c-1.9,7.8-5.6,15.2-9.5,22.1-.9,1.6-2.8,3.5-2.9,5.4l.5-9.5c0-1.8,2.2-4.7,2.8-6.5,1.9-6,3.6-13,4.1-19.3.4-4.6-.4-8.8-3.2-12.6-1.8-2.4-3.4-4.5-5.5-6.4-.5-.5-1-.9-1.6-1.4-7.5-6-15.8-11-23.6-16.7-4.5-3.3-8.7-7.1-12.5-11.3-2.8-3.1-8.8-7.3-6.4-12,.3-.7.8-1.3,1.3-1.9.6-.7,1.1-1.4,1.7-2.1.3-.3.5-.7.9-.8s.8,0,1.2,0c2.7.6,5.3,1.4,7.8,2.3,1,.4,2,.8,2.9,1.2-2-.3-4.6-.2-6.7,0-4.7.6-1.2,5.6.7,7.9.3.4.6.7.8.9,3.6,3.7,7.4,7.2,11.3,10.7,7.6,6.7,15.7,13,24.2,18.6.3.2.6.4.9.6,3.2,2.1,6.2,4.1,8.7,7.1,5,5.9,3.6,16.8,2,23.8l.1-.1Z"/>
          <path class="cls-24" d="M398.5,61.3c-.1,0-.2-.1-.3-.2-7.7-4.7-15.5-9.4-22.9-14.6-7.4-5.2-15.2-11-21-18-.4-.5-.8-1.1-1.2-1.6,0,0-.1-.2-.2-.2-1.4-1.9-2.7-3.9-3.5-6.1-.8-2.1,1.1-3.6,2.4-5.2.3-.3.5-.7.9-.8.8-.3,1.9.4,2.6.9.5.3.8,1,.6,1.5-.1.2-.3.4-.5.6-.8.9-1,1.8-.6,2.9.5,1.8,1.8,3,3.1,4.2,1.2,1.1,1.9,2.4,3.1,3.6,3.2,3.2,6.5,6.3,9.9,9.3,4.9,4.3,10,8.4,15.2,12.3,2.5,1.8,5.2,3.3,7.6,5.1,1.9,1.4,4.7,3.2,5.7,5.4.1.3.2.6,0,.8s-.5.2-.8.1h-.1Z"/>
          <path class="cls-26" d="M353.9,19.3c-.2-.5-.5-.7-.8-1s-.6.2-.7.4c-.1.5-.3,1-.1,1.6.2.5.6.7,1,.8.2,0,.6-.2.7-.5.1-.5.1-1,0-1.5l-.1.2Z"/>
          <path class="cls-26" d="M357.6,26.6c-.2-.4-.5-.9-.7-1.3-.2-.4-.4-.9-.7-1.3-.1-.2-.2-.5-.4-.7s-.4-.4-.7-.5c-.2,0-.6,0-.7.3-.3.5,0,1,.4,1.4.3.4.6.8,1,1.2.3.4.7.8,1.1,1.1.4.4.9.7,1.3,1.1h.2c-.2-.4-.4-.9-.6-1.3h-.2Z"/>
          <path class="cls-4" d="M380.8,85c1.4,1.4,5.2,3.7,5.8,3.9,3,1,6.1,2.5,9.3,1.6.3,0,.5-.2.7-.3.8-.6.3-1.9-.3-2.7-1.3-1.8-3-3.5-5-4.6-2.1-1.2-4.4-.8-6.7-.6-1.6.2-3.3.6-4.4,1.8-.1.2,0,.5.5.9h.1Z"/>
          <path class="cls-8" d="M393.5,77.9c-.6-.2-1.1-.4-1.7-.6-3.5-1.2-6.5-2.5-10.3-1.4.2,0,5.5,7.4,6.1,8.3,2.7,3.6,6.9,5.7,11.2,7,5.9,1.7,4.1-5,2.1-7.7-1.9-2.6-4.5-4.3-7.4-5.4v-.2Z"/>
          <path class="cls-4" d="M108.7,304.6h-4.8c-1.4-1-2.4-2.6-3.5-4-4.5-5.8-11.2-9.4-17.8-12.7-2-1-3.9-1.9-6-2.8-13.5-5.9-28.3-8.8-43-8.4h0c-.1-1.8-.2-3.6-.3-5.3,1.1-.4,3.1-.3,4-.3,3.7-.3,7.4-.4,11.1,0,2.7.3,5.4.9,8.1,1.6,11.6,2.8,23.4,6.3,33.2,13.2,6,4.2,11.2,9.6,16.2,15,1.1,1.2,2.2,2.4,2.8,3.8v-.1Z"/>
          <path class="cls-25" d="M115.1,309.9c-3.9,3.4-32.7-5.3-32.7-5.3l11.1-.2c4.6,2.1,9.8,2.8,14.9,2.6-.5-2.3-2.3-4.1-4-5.7-3.8-3.5-7.6-7.1-11.7-10.2-8.4-6.5-17.5-10.4-27.3-14.3-11.4-4.5-24.3-2.3-36.5-4.2-1.2-.2-2.5-.4-3.5-1.2-1.4-1-2.1-2.7-2.7-4.3-1.2-3.6-2-7.3-2.3-11.1,0-.8-.1-1.6,0-2.5.3-1.2,1-2.2,1.7-3.1,3.7-5,6.9-10.6,9-16.5l.6,10.1s-7.4,7.8-8.1,13.2c-.2,1.7,0,3.2.3,4.6.8,3.2,3.1,5.8,6,7.5,4.3,2.4,14.1-2.2,36.9,4.1,16.3,4.5,36,19.5,44.4,28.9,3.3,3.7,4.9,6.5,3.8,7.5l.1.1Z"/>
          <path class="cls-4" d="M51.5,267.1c-.2-1-.7-2-1.8-2.8-.7-.5-8.3-2.9-8.2-2.4.6,4.8,3.5,9.1,8.4,9.9h.7c.6-.2.8-.8.8-1.3.1-1.3.2-2.4,0-3.4h.1Z"/>
          <path class="cls-23" d="M53.2,265.1c-.2-1-.7-1.9-1.8-2.8-.7-.5-8.3-2.9-8.2-2.4.6,4.8,3.5,9.1,8.4,9.9h.7c.6-.2.8-.8.8-1.3.1-1.3.2-2.4,0-3.4h.1Z"/>
          <path class="cls-7" d="M111.3,302.4c-.1.3-.3.6-.6.8-.6.4-1.4,0-2-.4-4.1-2.8-7.6-6.2-11.6-9.2-6.2-4.7-12.8-9.1-19.7-12.8-9.4-5-19.6-7-30.1-7.9-3.3-.3-6.5-.2-9.8-.5-2.7-.2-5.2-1-8-1.1-2.7-.1-4.1-.9-5.3-3.4-.8-1.8-1.3-4.1-.3-5.9.8,3.2,3.5,5,6.5,6.6,4.3,2.4,14.6-2.9,37.4,3.4,16.3,4.5,35.1,21,43.5,30.4Z"/>
          <path class="cls-26" d="M58.8,270.9c-.2-.1-.4,0-.6-.2-.2,0-.4-.1-.6-.2-.6-.2-1.1-.2-1.7-.3-1.4,0-2.7-.2-4.1,0,0,0-.4.1-.4.2,0,.2.1.3.3.4.2.1.5.2.7.3.6.1,1.1.3,1.7.3h2.2c.7,0,1.4,0,2.1-.3,0,0,.6-.2.5-.4l-.1.2Z"/>
          <path class="cls-26" d="M63.9,272.1s-.2,0-.3-.1c-.2,0-.5-.1-.7-.1h-1.8s-.2,0-.1,0l.2.2s.1.1.2.1c.2,0,.4.1.6.2.2,0,.5,0,.7.1h1c.1,0,.2,0,.3-.1,0,0,.2-.1.1-.2,0,0-.1-.1-.2-.1h0Z"/>
          <path class="cls-4" d="M87.6,291.4c-1.2-.3-2.5-.2-4,.3-2.4.8-4.6,2.3-6.1,4.4-.4.5-.7,1.3-.2,1.7.2.2,2.9-.3,3.2-.3,1.7,0,3.3-.1,5-.4,2.3-.4,4.6-1.3,6.4-2.9.2-.1.3-.3.4-.5.1-.5-.4-.9-.9-1-1.4-.6-2.5-1-3.6-1.3h-.2Z"/>
          <path class="cls-6" d="M87.1,288.1c-1.4-.3-2.8-.3-4.5.3-2.7.9-5.2,2.6-6.8,4.9-.4.6-.8,1.5-.2,1.9.2.2,3.2-.3,3.6-.3,1.9,0,3.7-.1,5.6-.5,2.6-.5,5.2-1.5,7.2-3.2.2-.2.4-.3.4-.6.1-.6-.5-1-1-1.2-1.5-.6-2.8-1.2-4.1-1.4l-.2.1Z"/>
          <g>
            <path class="cls-35" d="M90.9,254.1c-1.2-.8-3-1-4.5-.7-.7-.1-1.7.5-2.1.8-.2-2.4-1.7-4.2-3.6-5.7-2.3-1.9-4.6-2.9-7.5-2-2.3.7-5.5,2.4-6.1,5-.6,2.5,1.6,4.8,3,6.7.8,1.1,1.5,2,2.4,2.6,0,0,.1.2.2.3,1.8,2.1,4.8,1,6.9,0,1.5-.8,3.1-1.8,4-3.3h0c.4.7.7,1.3,1.4,1.7.7.5,1.7.8,2.6,1.1,1.1.3,3.1-.6,3.7-1.6.4-.7.9-1.8,1-2.7,0-1-.4-1.5-1.2-2.1l-.2-.1Z"/>
            <path class="cls-35" d="M89.6,267.3c-.5-.6-1.5-.9-2.2-1.1-1.1-.3-2.2-.2-3.3,0-.6.1-1.5.4-1.9,1-.4.7-.7,1.3-.2,2,.3.5.9,1,1.5,1.3.9.4,2.3.4,3.3.3.9,0,1.9-.4,2.6-1,.7-.7.9-1.9.3-2.6l-.1.1Z"/>
            <path class="cls-35" d="M62.8,249.5c-.1-.5-.5-.9-.9-1.2-.3-.4-1.9.3-1.9.8s0,1,.1,1.5c.2.5.7.8,1.2.9.3.1,1-.2,1.2-.5.2-.5.4-1,.3-1.5h0Z"/>
            <path class="cls-35" d="M101.7,274.9c-.2-.2-.2-.4-.3-.5-.2-.2-.4-.3-.6-.4-.6-.3-1.3-.3-1.9-.5-.4-.1-.9.1-1.2.3-.2,0-.9.5-.7.8.3.5.6,1,1.2,1.2.8.3,1.6.1,2.4,0,.2,0,1.5-.6,1.2-.8l-.1-.1Z"/>
            <path class="cls-5" d="M91.7,258.2c-.7.9-1.6,1.8-2.7,2h-1.2c-1.7-.2-3.5-1.2-4.3-2.8-.8,1.5-2.2,2.4-3.7,3.2-1,.6-2.1,1.2-3.3,1.4-1,.2-1.9-.2-2.8-.3-.9-.1-1.5-.9-2-1.5-1.9-2.4-3.7-4.9-4.7-7.8,0,1.6.8,3.2,1.7,4.6,1.4,2.2,2.9,4.5,4.6,6.5,1.1.2,2.6.2,3.7-.2.6-.2,1.2-.5,1.8-.9,1.6-1,3.2-2,4.4-3.4-.4.4,3.6,1.6,3.9,1.7,2.7.8,3-.5,4.5-2.7l.1.2Z"/>
            <path class="cls-5" d="M90,268.3c-.1,1-.9,1.7-1.8,2.1-1.5.6-7,.9-6.2-1.9-.3,1.1,0,2.3,1.1,2.8,1.4.6,2.8.8,4.3.3s2.5-1.8,2.6-3.3Z"/>
          </g>
          <path class="cls-35" d="M346,56.7c-3.4-4.1-9.3-5.2-13.7-1.8-2.1,1.6-1,3.8,0,5.8.6,1.2,1.2,2.1,2,2.8.2.4.5.8.8,1.2,1.4,1.8,3.5,3.2,5.9,2.9,5.6-.7,9.1-6.1,5.1-10.8l-.1-.1Z"/>
          <path class="cls-35" d="M340.3,48.9c-2-.2-4.3.2-5.6,1.8-.5.6.7,1.2,1.1,1.3.7.3,1.4.3,2.2.3,1.2,0,3.6,0,4.1-1.4.4-1.2-.7-1.8-1.8-1.9v-.1Z"/>
          <path class="cls-35" d="M328.6,44.8c-.1,0-.3-.2-.4-.2-.3-.1-.6-.1-.9-.1h-.7c-.4,0-.8,0-1.2.2-.1,0-.8.4-.6.6,0,0,0,.3.1.4,0,.2.1.3.3.3.4.2.9.3,1.3.2.5,0,.9-.2,1.4-.4.2-.1.8-.4.8-.7,0-.2,0-.3-.2-.4l.1.1Z"/>
          <path class="cls-35" d="M366,72.6c-1.4.9-3.2,2.1-3.9,3.7-.2.6-.3,1.1.1,1.6.4.4.8.6,1.3.9.9.6,2.5,0,3.6-.7,0,0,.1,0,.2-.1h0c.1,0,.3-.2.4-.3h-.1c.1,0,.2-.1.3-.2.5-.4,1-.8,1.5-1.1.8-.7,2.1-1.7,2-2.9-.3-2.6-3.9-1.8-5.4-.8v-.1Z"/>
          <path class="cls-35" d="M49.6,112.9c-1.2-1.4-3.4-1.6-4.9-.4-1.4,1.1-2.2,2.8-2,4.7.3,2.1,2.5,2.7,4.2,3.3.7.3,1.9-.2,2.3-.8.6-1.2,1.6-2.5,1.6-3.9,0-1.1-.5-2.1-1.2-2.9h0Z"/>
          <path class="cls-35" d="M47.7,126.1s-.2-.2-.2-.3c-.2-.3-.6-.3-.9-.4h-1.2c-.2,0-.4,0-.6.1,0,0-.4.2-.4.3s-.2.3-.3.4v.4c0,.3.2.5.4.6.7.4,1.7.3,2.4,0,.3-.1.8-.5.8-.9v-.3.1Z"/>
          <path class="cls-35" d="M55.1,102.6c0-.3-.3-.4-.6-.6-.3-.2-.5-.4-.8-.6-.4-.4-2.2.3-2.2.9,0,.5-.1,1.3.3,1.7.5.5,1,.8,1.7,1,.4.1,1.2-.2,1.4-.6.1-.3.2-.6.2-.9v-.9h0Z"/>
          <path class="cls-35" d="M255.1,278.9c-.6-1.5-2.5-3-3.9-3.7-2.2-1-4.9-.2-6.9,1-.7.5-1.6,1.1-1.8,2-.3,1.1.5,2,1,2.8.2.3.4.5.6.7.3,1,1,1.8,1.9,2.4,2,1.2,4.9.4,6.7-.6,1.6-.9,3.1-2.6,2.3-4.6h.1Z"/>
          <path class="cls-35" d="M263.1,279.6c-.1-.2-.4-.3-.7-.4h-.9c-.3,0-.9.1-1.1.5,0,0-.3.1-.3.2-.1.1-.3.2-.4.4,0,.2-.1.4,0,.6,0,.1.3.3.4.3.3.1.6.1.9.1s.6,0,.9-.1c.3,0,.6-.2.8-.5.1-.2.4-.4.5-.6v-.6l-.1.1Z"/>
          <path class="cls-35" d="M236.7,275.6c-.2-.1-.5-.2-.8-.3-.1,0-.4,0-.5.1,0,0-.3.2-.3.3.1.1.2.4.3.5,0,0,.2,0,.3.1.2,0,.3,0,.5.1.1,0,.7-.1.6-.3,0-.2,0-.4-.2-.5h.1Z"/>
          <path class="cls-35" d="M365.2,238.5c-1.5-.5-3.4-.7-4.9.2-1.2.8-1.7,1.5-1.5,2.9.1,1,.9,1.4,1.7,1.7,1.7.6,4.3.6,5.5-1,.5-.6.9-1.5.8-2.3-.1-.8-1-1.3-1.7-1.5h.1Z"/>
          <path class="cls-35" d="M356.2,248.9c0-.2-.3-.3-.4-.5-.2-.2-.9,0-1.1,0-.3.1-.8.3-.9.6,0,.2-.2.4-.1.6,0,.1.2.4.3.5s.4.2.6.3h.8c.4-.2.8-.6,1-1v-.6l-.2.1Z"/>
          <path class="cls-35" d="M365.7,209.9c-.2,0-1.1.2-1.1.5.2.8.3,1.5,1,2.2s1.8,1.1,2.7,1.4c.4,0,1.5-.2,1.5-.7,0-2.1-2.5-2.8-4.1-3.4h0Z"/>
          <path class="cls-35" d="M365.1,195.8c0-.3,0-.5-.2-.6-.3-.2-.8,0-1,.2-.3.2-.6.4-.8.7-.3.3-.7.6-.9,1-.1.2-.2.5-.2.8,0,.2.2.4.3.6.2.2.9-.2,1.1-.3.6-.4,1.3-1,1.6-1.7v-.7h.1Z"/>
          <path class="cls-35" d="M101.6,39.9c-3.8-1.2-10.2,1.9-12.6,4.9-.2.3-.4.6-.6.9-.4-.5-1.1-.8-1.6-1-.6-.2-1.8.3-2.1.8-.6.8-1.3,1.9-1.3,2.9,0,.8.9,1.6,1.6,1.9.6.2,1.5-.1,2-.5.3-.3.8-.7,1.1-1.1.7,2.6,3.6,4.9,5.4,6.6l.1.1c1.2,1.6,2.6,2.8,4.5,2.9,3.9.1,8.4-2.5,8.7-6.6.2-3.5-1.4-10.4-5.3-11.7l.1-.1Z"/>
          <path class="cls-35" d="M118.7,42.1c-1.4-.8-3.3-.8-4.5.3-.5.4-.9.8-1.2,1.4-.2.4-.4,1-.2,1.5.5,1.4,2.3,1,3.4,1.1.7,0,1.9-.3,2.3-.9.4-.7,1.2-1,1.2-1.9,0-.6-.3-1.1-.9-1.4l-.1-.1Z"/>
          <path class="cls-35" d="M154.3,233.3c-.8-.1-2,.3-2.5,1-2.2,3.8,3.2,6.2,6,6.8.7.2,2.6-.4,2.6-1.2,0-3.5-2.7-6.2-6.1-6.6h0Z"/>
          <path class="cls-35" d="M146.3,233.5v-.4c0-.3-.4-.4-.5-.6s-.6,0-.7.2c-.2.2-.5.7-.2,1,.2.3.6.5,1,.5.2,0,.8,0,.7-.4,0-.1,0-.2-.1-.3h-.2Z"/>
          <path class="cls-35" d="M270.5,71.8c-1.1-1.7-2.7-2.7-4.7-2.6-2,.1-4.7,1.1-5.9,2.8-.9,1.3-.9,3-.3,4.4.6,1.4,1.4,2.4,2.4,3.2.3.6.6,1.1.9,1.5,1.1,1.5,2.5,1.2,4.1.6,4.3-1.6,6-6,3.4-10l.1.1Z"/>
          <path class="cls-35" d="M281.2,78.6c-.2-.3-.6-.4-1-.4-.7,0-1.4-.1-2.1,0-1,.1-2,.5-2.9.9-.7.4-1.6.8-2,1.5-.2.3-.6,1-.3,1.4.2.2.5.3.9.3-.5.4-1.5,1.2-1.3,2,.2.7,1.9.3,2.3.2h-.2.3c.6-.2,1.3-.4,1.9-.7,1.1-.5,1.9-1.2,2.7-2,.6-.6,2.2-2.1,1.6-3.1l.1-.1Z"/>
          <path class="cls-35" d="M337.3,80.9c-.1-.3-.7,0-.9,0-.3,0-.7.2-.8.5h0c0,.2-.1.4,0,.6v.5c0,.2.3.3.5.4.2.2.8-.1.9-.3.2-.3.5-.6.5-1v-.4c0-.2,0-.3-.1-.5l-.1.2Z"/>
          <path class="cls-35" d="M244.5,58.1c-.3-.3-.7-.6-1-.9-.3-.3-2,.4-1.6.8.3.3.5.7.8.9.4.4,1.1.4,1.6.2.2,0,.5-.3.5-.5s-.2-.4-.3-.5Z"/>
          <g>
            <path class="cls-35" d="M262.2,46.3h-.1s.1,0,.2-.1l-.1.1Z"/>
            <path class="cls-35" d="M262.6,45.1c-.1-.2-.4-.3-.6-.3h0c-.2-.2-.8.1-1,.3,0,.1-.3.2-.4.3,0,0-.2.2-.2.3-.1.2,0,.3,0,.5s.1.3.3.4c.3.1.7,0,1.1-.1.2,0,.3-.1.4-.2h.1c.2-.2.3-.3.4-.6,0-.2.1-.4,0-.5l-.1-.1Z"/>
          </g>
          <path class="cls-35" d="M166.5,46.9c0-.1-.3,0-.4,0,0,0-.4.2-.3.3.2.2.3.4.5.6,0,.1.5,0,.5-.2s-.1-.5-.2-.7h-.1Z"/>
          <path class="cls-35" d="M157.6,49c-.2-.2-.4-.5-.6-.7h-.5s-.3.2-.2.3c.2.2.5.4.7.7.1.1.7-.1.6-.3Z"/>
          <path class="cls-35" d="M174.2,41.9c0-.3,0-.6-.1-.9,0-.3-1.6,0-1.5.5,0,.3.1.6.2.9,0,.3.3.5.5.7.1.1.6-.1.7-.2,0-.3.2-.6.2-.9v-.1Z"/>
          <path class="cls-35" d="M74.8,176.7h0s-.1-.1-.2-.1c0,0-.1-.1-.2-.1h-.9c-.2,0-.4,0-.5.1,0,0-.3.2-.3.3v.2s0,.1.1.2c0,.1.2.2.3.3.1,0,.3.2.5.2s.5,0,.7-.1c0,0,.2,0,.2-.2v-.1s0-.1.1-.1l.2-.6Z"/>
          <path class="cls-35" d="M91.1,164.6c-.5,0-1.1.3-1.5.6-.5.3-1,.8-1.2,1.3,0,.2-.1.4,0,.6.1.3.4.4.6.7s1,0,1.2-.3.3-.5.5-.7c.3-.2.5-.5.6-.8.1-.2.3-.4.4-.6,0-.2.1-.4.2-.6.2-.4-.7-.3-.8-.3v.1Z"/>
          <path class="cls-35" d="M68.5,200.2h-.2l.3.3h.2l-.3-.3Z"/>
          <path class="cls-35" d="M249.9,160.6c-.3-.6-1-1.1-1.5-1.5-.2-.2-1.3.2-1.2.5.2.6.1,1.4.5,2s.7,1.1,1.3,1.5c.3.2,1-.1,1.1-.4.3-.7.1-1.3-.2-2v-.1Z"/>
          <path class="cls-35" d="M221.6,170.4c0,.7,0,1.3.2,2,0,0,.3,0,.4-.1.1-.7.2-1.4.2-2.1,0-.2-.7,0-.7.2h-.1Z"/>
          <path class="cls-35" d="M256.5,185.1c-.2-.3-.5-.6-.8-.8-.3-.2-1.7.3-1.5.6.2.3.3.7.6.9.3.3.7.5,1.1.7.2,0,.9,0,.9-.4s0-.7-.3-1.1v.1Z"/>
          <path class="cls-35" d="M327.9,130.4c-.3,0-.7.2-.9.5-.4.7-1,1.6-.9,2.4,0,.3.8-.2.9-.2.7-.7,1.1-1.7,1.6-2.6.1-.3-.6-.2-.7-.1h0Z"/>
          <path class="cls-35" d="M317.6,166.1c-.2-.1-.8.3-.7.3.7.4,1.4.8,2.2,1,0,0,.5-.1.4-.2-.6-.5-1.3-.8-1.9-1.1h0Z"/>
          <path class="cls-35" d="M294.5,244s-.2,0-.2.1c-.2.2-.4.5-.7.7h0s.2,0,.2-.1c.2-.2.4-.5.7-.7h0Z"/>
          <path class="cls-35" d="M147.9,115c-.1-.2-.2-.5-.3-.7-.1-.2-1,.1-.9.3s.3.5.4.7.2.5.4.6c.1,0,.5,0,.6-.2,0-.2-.1-.5-.2-.7h0Z"/>
          <path class="cls-35" d="M133.1,108.4c0-.4-1.2.2-1.3.3-.2.3-.5.6-.7.9-.2.3-.3.5-.4.9v.2c.7.6,1.5,0,2.1-.5.3-.2.5-.7.4-1,0-.3-.1-.6-.2-.8h.1Z"/>
          <path class="cls-35" d="M139.1,100c-.4,0-1-.3-1.3-.7-.1-.1-.7,0-.6.2,0,.3.3.6.6.7.3.1.7.1,1.1,0,0,0,.5-.2.3-.3l-.1.1Z"/>
          <path class="cls-35" d="M120.9,99c-.5,0-1,.3-1.3.6s-.6.6-.8,1c-.1.3-.3.5-.3.8s.9,0,1-.2c.4-.3.8-.6,1.1-.9.3-.3.5-.6.8-1s-.3-.4-.5-.3h0Z"/>
          <path class="cls-5" d="M160.4,238.9c.2.8-.3,1.8-1.2,2.1-.5.2-1.1.2-1.7,0-1.4-.3-2.6-.9-3.8-1.7-.6-.4-1.3-.8-1.8-1.4s-.8-1.4-.6-2.1c0,1.2.2,2.4,1,3.3s1.8,1.6,2.9,2.1,2.3.8,3.4.5,2-1.7,1.7-2.8h.1Z"/>
          <path class="cls-5" d="M255.6,280c-.2,1.1-1,2-1.9,2.7s-1.9,1.1-3,1.3c-1.1.3-2.3.4-3.4.2-.7-.2-1.3-.5-1.9-.9-.3-.2-.5-.5-.7-.8-.1-.2-.2-.5-.3-.7-.3-.6-.8-1.1-1.3-1.6-.4-.5-.8-1.1-.7-1.8-.1.7-.1,1.5.3,2.1.3.5.7.9,1,1.4.2.3.3.7.4,1.1.5,1.1,1.6,1.8,2.8,2.1,1.2.2,2.4,0,3.5-.4,2.3-.7,4.4-2.4,5.1-4.7h.1Z"/>
          <path class="cls-5" d="M366.9,239.8c-.1.4-.2.7-.4,1.1-.2.5-.3,1-.6,1.4-1.2,1.5-3.7,1.1-5.3.7-.8-.2-2-1-1.7-2.1-.3.9.2,2,1.1,2.5s1.9.5,2.9.5c1.1,0,2.3,0,3-.9.3-.4.5-.8.6-1.3.2-.6.3-1.3.4-2v.1Z"/>
          <path class="cls-5" d="M369.9,212.4c0,.4-.2.7-.4,1,0,.1-.2.2-.3.3h-.4c-.7-.1-1.4-.3-2.1-.6-.2,0-.5-.2-.7-.3-.6-.4-.8-1.1-1-1.8.1.8.1,1.5.7,2.1.3.3.7.6,1.1.8.5.3,1.1.5,1.7.7.2,0,.4.1.6.1.3,0,.5-.2.6-.5.3-.5.5-1.2.3-1.8h-.1Z"/>
          <path class="cls-5" d="M365.1,196.1c-.3.6-.8,1.2-1.4,1.6-.3.2-.6.4-.9.4s-.7-.3-.7-.6c-.2.6.3,1.2.9,1.2.3,0,.5-.1.7-.2.8-.5,1.4-1.4,1.4-2.4Z"/>
          <path class="cls-5" d="M371.2,73.1c0,.6-.1,1.3-.5,1.8s-.9.9-1.4,1.3c-1.1.9-2.3,1.9-3.7,2.3-.8.3-1.8.3-2.5,0-.8-.4-1.3-1.4-.9-2.2-.7.8-.4,2.1.4,2.8s2,.7,3,.4,1.9-1,2.7-1.6,1.5-1.2,2.1-2,.9-1.8.8-2.7v-.1Z"/>
          <path class="cls-5" d="M347.5,60.9c.1,1,.2,2.3-.3,3.3-.4.8-1.3.9-1.9,1.5-.5.5-.7,1.2-1.3,1.6-.6.4-1.4.4-2.1.3-1,0-2.1-.2-3.1-.2-.9,0-2-.2-2.7-.8-.9-.7-1.2-2-1.9-2.9-.3-.3-.6-.6-.9-.9-1.6-1.6-2.5-4-2.4-6.3-.2,1.3.6,2.8,1.2,3.9.3.6.7,1.2,1.3,1.6.2.1.5.2.7.4.3.2.4.6.6.9,1.3,2.7,4.5,4.3,7.5,3.7,1-.2,2-.7,2.5-1.6.1-.2.2-.4.4-.6.2-.2.6-.3.9-.4,1.3-.6,1.4-2.3,1.6-3.5h-.1Z"/>
          <path class="cls-5" d="M342.2,50.4c0,.3,0,.7-.3.9-.9,1.1-3.5,1-4.7.8-.6-.1-2.7-.4-2.7-1.3.5.8,1.2,1.5,2.1,1.7.9.2,1.9.2,2.8.2.6,0,1.3,0,1.9-.4.6-.3,1.1-1.2.8-1.8l.1-.1Z"/>
          <path class="cls-5" d="M271.6,75.8c-.2,2.7-2.2,5.2-4.8,6.1-1.2.4-2.7.4-3.5-.6-.6-.7-.8-1.7-1.5-2.4-.3-.3-.7-.5-1.1-.8-1-.7-1.4-2-1.7-3.1.1,1.2.2,2.4,1.1,3.3.4.4,1,.7,1.4,1.1.6.6,1,1.5,1.6,2.2,1.2,1.2,3.2,1.2,4.6.4,1.5-.8,2.4-2.3,3.2-3.8.4-.7.8-1.6.7-2.4Z"/>
          <path class="cls-5" d="M280.9,79.8c-.2.7-.7,1.2-1.2,1.7-1.8,1.6-4,2.6-6.4,2.9h-.6c-.3-.2-.2-.7,0-.9.2-.3.5-.5.6-.9-.2.3-.7.8-.9,1.1s-.4.7-.2,1.1c.2.4.7.5,1.1.4,2.5,0,4.8-1.6,6.6-3.4.5-.5,1.1-1.2,1.1-1.9l-.1-.1Z"/>
          <path class="cls-5" d="M106.7,48.5c.1,1.3.2,2.7,0,3.9-.7,2.6-3.2,4.5-5.8,5.4-.6.2-1.3.4-2,.4-1.3,0-2.4-.7-3.3-1.6-.9-.8-1.7-1.9-2.6-2.8-1.7-1.7-4-3.1-5-5.3-.6.9-1.6,1.6-2.7,1.6s-2.1-1.2-1.7-2.2c-.1.7-.3,1.5.2,2.1.4.5,1.1.7,1.8.7s1.3-.3,2-.5h.5c.3,0,.5.5.6.8.7,1.5,2.2,2.5,3.4,3.6,1,.9,1.8,1.9,2.7,2.7s2.1,1.6,3.4,1.6c1.2,0,2.4-.5,3.5-1,1.1-.6,2.3-1.2,3.2-2.1,1.8-1.8,2.5-4.8,1.7-7.2l.1-.1Z"/>
          <path class="cls-5" d="M114.7,46.3c.6,0,1.2,0,1.7-.2.2,0,.5,0,.7-.2.2,0,.3-.2.4-.3.6-.5,1.7-1.2,2-1.9-.4,1.6-1.5,3-3,3.4-.4.1-.9.1-1.4.2-.8,0-1.6,0-2.2-.5-.7-.6-.7-1.8-.2-2.5-.4,1.6.8,2.1,2.1,2.1l-.1-.1Z"/>
          <path class="cls-5" d="M42.8,117.8c.3.6.9,1.2,1.5,1.4.4.1.9,0,1.3.2.4.1.8.4,1.2.5.7.2,1.4-.1,1.9-.6s.9-1.1,1.2-1.7c.4-.8.9-1.6.9-2.5-.1,1.4-.4,2.8-.9,4.1,0,.2-.1.4-.3.5-.2.2-.4.3-.6.3-.9.4-1.9.6-2.9.6s-2-.4-2.7-1.1c-.9-.9-1.2-2.1-.7-3.2-.2.4-.1,1,0,1.4l.1.1Z"/>
        </g>
      </g>
    </g>
  </g>
</svg>