<?xml version="1.0" encoding="UTF-8"?>
<svg id="Layer_2" data-name="Layer 2" xmlns="http://www.w3.org/2000/svg" xmlns:xlink="http://www.w3.org/1999/xlink" viewBox="0 0 41.98 38.52">
  <defs>
    <style>
      .cls-1 {
        fill: url(#linear-gradient);
      }

      .cls-1, .cls-2, .cls-3 {
        stroke-width: 0px;
      }

      .cls-2 {
        fill: #e0a186;
      }

      .cls-3 {
        fill: url(#linear-gradient-2);
      }
    </style>
    <linearGradient id="linear-gradient" x1="21.04" y1="-801.78" x2="21.04" y2="-849.08" gradientTransform="translate(0 -803.37) scale(1 -1)" gradientUnits="userSpaceOnUse">
      <stop offset="0" stop-color="#c66261"/>
      <stop offset="1" stop-color="#5d1930"/>
    </linearGradient>
    <linearGradient id="linear-gradient-2" x1="-44.38" y1="-856.78" x2="-43.98" y2="-828.18" gradientTransform="translate(6.13 -803.37) scale(1 -1) skewX(-4.1)" gradientUnits="userSpaceOnUse">
      <stop offset="0" stop-color="#b64349"/>
      <stop offset="1" stop-color="#5b1135"/>
    </linearGradient>
  </defs>
  <g id="Layer_1-2" data-name="Layer 1">
    <g>
      <path class="cls-1" d="M37.67,26.72c-2.1,2.3-4.5,4.4-6.9,6.4-2.2,1.8-4.3,3.7-7,4.9-.7.3-1.4.5-2.1.5s-1.2-.2-1.8-.4c-3.6-1.4-6.7-3.9-9.5-6.5-2.3-2.1-4.4-4.4-6.4-6.8-.7-.8-1.6-1.8-2.4-2.8-1-1.3-1.7-2.7-1.4-4,.2-.9.7-1.6,1.3-2.3,1.5-2,3.2-4,5-5.8,2.7-2.7,5.7-5.3,8.8-7.4,1.4-1,3.1-1.9,4.8-2.4,1.9-.5,3.6.7,5.2,1.7,2.4,1.5,4.7,3.2,6.8,5.2,1.1,1,2.1,2,3.2,3.1,1.9,1.9,3.9,3.9,5.6,6.1.7.9,1.1,1.8,1.1,2.8h0c.2,3-2.4,6-4.3,8.1v-.4h0Z"/>
      <path class="cls-2" d="M41.97,18.72c-.6-1.7-1.9-3.1-3.2-4.4-5-5.1-10.5-10.2-16.9-13.6-.5-.3-1.2-.6-1.7-.4-3,.9-5.5,3-7.8,5.2-3.3,3-6.5,6-9.5,9.2-.9,1-1.8,2-2.3,3.3-.4,1.3-.2,2.8.9,3.6v.4c-1-1.3-1.7-2.7-1.4-4,.2-.9.7-1.6,1.3-2.3,1.5-2,3.2-4,5-5.8,2.7-2.7,5.7-5.3,8.8-7.4,1.4-1,3.1-1.9,4.8-2.4,1.9-.5,3.6.7,5.2,1.7,2.4,1.5,4.7,3.2,6.8,5.2,1.1,1,2.1,2,3.2,3.1,1.9,1.9,3.9,3.9,5.6,6.1.7.9,1.1,1.8,1.1,2.8v-.3h.1Z"/>
      <path class="cls-2" d="M26.27,31.02c.9-.7,1.7-1.4,2.5-2.3,1.2-1.4,2.4-2.8,3.6-4.3,1.2-1.4,2.6-2.8,3.6-4.3-.9,0-2,.7-2.9,1-1.1.4-2.2.7-3.4.9-2.3.4-4.5.3-6.8.3-3.2-.3-6.3-1.2-9.4-2.1-1.1-.3-2.2-1-3.3-1.2-1.3-.2-2.7.2-4,0-.2,0-.3,0-.4.1v.3c.2,1,.9,1.9,1.6,2.7,3.3,4.2,7,7.9,11.2,11h0c2,1.4,3.6.5,5.2-.6,3.3-2.2,6.1-4.8,8.7-7.7,1.5-1.7,2.9-3.5,3.9-5.5-1.4.4-2.7.7-4.1,1.1l-6.2,10.6s.2,0,.2,0Z"/>
      <path class="cls-3" d="M21.27,33.12c-2.9-1.1-5.5-3.4-7.5-5.3-2.1-2-4.1-4.1-5.9-6.3-.3-.4-.6-.7-1-1.1-.3-.4-.9-1-1.2-1.5h0c3.5-4.6,7.8-8.8,12.7-12.2,1-.7,2-1.2,2.8-1.5.3.2.7.4,1,.6l.6.3c2.7,1.6,5.4,3.9,8.8,7.3l.8.8c1.5,1.5,3.1,3.1,4.3,4.6-.3,1.1-2.2,3.3-2.9,4.1h0c-2,2.4-4.3,4.3-6.3,5.9-.4.3-.8.6-1.2,1-1.6,1.3-3.1,2.5-4.7,3.2h-.3v.1Z"/>
    </g>
  </g>
</svg>