<?xml version="1.0" encoding="UTF-8"?>
<svg xmlns="http://www.w3.org/2000/svg" xmlns:xlink="http://www.w3.org/1999/xlink" viewBox="0 0 189.16 68.92">
  <defs>
    <style>
      .cls-1 {
        fill: #904b4f;
      }

      .cls-1, .cls-2, .cls-3, .cls-4, .cls-5, .cls-6 {
        stroke-width: 0px;
      }

      .cls-2 {
        fill: url(#linear-gradient);
      }

      .cls-3 {
        fill: url(#radial-gradient);
      }

      .cls-4 {
        fill: #f0c996;
      }

      .cls-5 {
        fill: #6f71c7;
      }

      .cls-7, .cls-6 {
        isolation: isolate;
      }

      .cls-6 {
        fill: #f2e4d7;
        mix-blend-mode: multiply;
      }
    </style>
    <linearGradient id="linear-gradient" x1="94.05" y1="-247.5" x2="95.45" y2="-372.2" gradientTransform="translate(0 -280.4) scale(1 -1)" gradientUnits="userSpaceOnUse">
      <stop offset="0" stop-color="#d89979"/>
      <stop offset=".3" stop-color="#ac645f"/>
      <stop offset=".6" stop-color="#792640"/>
      <stop offset=".9" stop-color="#5b316c"/>
      <stop offset="1" stop-color="#4b3884"/>
    </linearGradient>
    <radialGradient id="radial-gradient" cx="95.76" cy="-259.6" fx="95.76" fy="-259.6" r="294.5" gradientTransform="translate(0 -280.4) scale(1 -1)" gradientUnits="userSpaceOnUse">
      <stop offset="0" stop-color="#e4a482"/>
      <stop offset="1" stop-color="#865f6a"/>
    </radialGradient>
  </defs>
  <g class="cls-7">
    <g id="Layer_2" data-name="Layer 2">
      <g id="Layer_1-2" data-name="Layer 1">
        <g>
          <g>
            <path class="cls-5" d="M186.96,60.5c0,.6-.2,1.1-.5,1.6-1.5,2.5-3.7,4.5-6.6,6.2-.6.4-1.4.6-2.1.6h-7.8c-9.4,0-18.9.1-28.3-.2h-.2s-.1,0-.1-.2c-.2-.4-.6-.6-.8-.9-.1-.2-.9-1.4-.8-1.6-.3.9-.7,1.7-1.1,2.6,0,0,0,.1-.1.1h-.1c-1.7.2-3.3,0-5,0h-15.7c-9.6-.1-19.2-.3-28.7-.3-15.3,0-30.5.2-45.8.3-.9,0-1.8.2-2.7,0-1.2-.2-2.2-1-3.4-.8-2,.3-3.4.8-5.6.8H11.36c-.7,0-1.4-.2-2.1-.6-2.9-1.7-5.1-3.7-6.6-6.2-.3-.5-.5-1-.5-1.6-.4-5.1-.7-10.3-1-15.4-.3-4.8-.1-9.8-.8-14.6,0-.6-.2-1.1-.2-1.7,0-1.5.9-2.9,2.2-3.6-.6.3-1.2.4-1.9.3C-.24,25.3.06,12.7.06,11.6c0-.9.3-1.7.9-2.4C3.26,6.4,5.96,3.8,8.96,1.4c.7-.6,1.6-.8,2.5-.8,12,.1,24,.3,36.1.4,3,0,6.1.2,9.1.4.2,0,.5,0,.7.1.8.4,1.1,1.8,1.8,2.5-.2-.9-.4-1.8-.4-2.7,2.3-.6,5.3,0,7.7,0,2.8,0,5.6,0,8.4.1,8.8.1,17.6.1,26.3,0h20.2c2.1,0,3.4.3,5.4.9h.3c.1,0,.2-.1.3-.2,1.4-1.4,3.8-.8,5.7-.9h7c12.6-.2,25.1-.2,37.7-.5.9,0,1.8.3,2.5.8,3,2.4,5.7,5,8,7.8.6.7.9,1.5.9,2.4,0,3.3-.2,6.5-.5,9.8,0,.2,0,.3-.1.5s-.4.3-.6.5c-1.3,1,1.1,2.9.9,4.2,0,.4-.3.7-.4,1-.4,1.1.2,2.2.3,3.3.1,1.4-.1,2.8-.2,4.2-.1,2.8-.3,5.6-.4,8.4-.3,5.6-.6,11.3-1,16.9h-.2Z"/>
            <path class="cls-2" d="M186.96,59.9c0,.6-.2,1.1-.5,1.6-1.5,2.5-3.7,4.5-6.6,6.2-.6.4-1.4.6-2.1.6h-7.8c-9.4,0-18.9.1-28.3-.2h-.2s-.1,0-.1-.2c-.2-.4-.6-.6-.8-.9-.1-.2-.9-1.4-.8-1.6-.3.9-.7,1.7-1.1,2.6,0,0,0,.1-.1.1h-.1c-1.7.2-3.3,0-5,0h-15.7c-9.6-.1-19.2-.3-28.7-.3-15.3,0-30.5.2-45.8.3-.9,0-1.8.2-2.7,0-1.2-.2-2.2-1-3.4-.8-2,.3-3.4.8-5.6.8H11.36c-.7,0-1.4-.2-2.1-.6-2.9-1.7-5.1-3.7-6.6-6.2-.3-.5-.5-1-.5-1.6-.4-5.1-.7-10.3-1-15.4-.3-4.8-.1-9.8-.8-14.6,0-.6-.2-1.1-.2-1.7,0-1.5.9-2.9,2.2-3.6-.6.3-1.2.4-1.9.3C-.24,24.7.06,12.1.06,11c0-.9.3-1.7.9-2.4C3.26,5.8,5.96,3.2,8.96.8c.7-.6,1.6-.8,2.5-.8,12,.1,24,.3,36.1.4,3,0,6.1.2,9.1.4.2,0,.5,0,.7.1.8.4,1.1,1.8,1.8,2.5-.2-.9-.4-1.8-.4-2.7,2.3-.6,5.3,0,7.7,0,2.8,0,5.6,0,8.4.1,8.8.1,17.6.1,26.3,0h20.2c2.1,0,3.4.3,5.4.9h.3c.1,0,.2-.1.3-.2,1.4-1.4,3.8-.8,5.7-.9h7c12.6-.2,25.1-.2,37.7-.5.9,0,1.8.3,2.5.8,3,2.4,5.7,5,8,7.8.6.7.9,1.5.9,2.4,0,3.3-.2,6.5-.5,9.8,0,.2,0,.3-.1.5s-.4.3-.6.5c-1.3,1,1.1,2.9.9,4.2,0,.4-.3.7-.4,1-.4,1.1.2,2.2.3,3.3.1,1.4-.1,2.8-.2,4.2-.1,2.8-.3,5.6-.4,8.4-.3,5.6-.6,11.3-1,16.9h-.2Z"/>
            <path class="cls-3" d="M185.06,14.1v3.5c0,1.5-.3,2.6-.8,3.8-.2.5-.5,1.1-.7,1.7,0,0,0,.2-.1.2,0,.2-.2.4-.2.6s0,.3.2.5c.6,1.3,1.3,2.5,1.4,3.9,0,1.4-.1,2.8-.2,4.2-.1,2.8-.2,5.6-.4,8.4v2.1l-.2,4.3c0,.7,0,1.5-.1,2.2v1.3c0,1.3-.2,2.7-.3,4,0,1.1.2,3.6-.3,4.5-1.1,1.8-2.8,3.4-5.2,4.8h-15.4l-13.6-.2h-2.9c-1.8,0-3.8.2-5.6,0-.1-.7-.1-1.4,0-2.2,0-.5.2-1.1.3-1.5-.1.3-.3.9-.6,1.5-.4.9-1,1.9-1.4,2.1s-.3,0-.5,0c-13.2-.2-26.5-.3-39.7-.3s-6.3,0-9.4,0h-7.2c-7.2,0-14.3,0-21.5.1h-12.9c-2.8,0-5.6.1-8.4-.3-.2,0-.4,0-.6-.1-.7-.2-1.5-.5-2.2-.6-.4,0-.8-.1-1.2-.1-.9,0-1.8.8-2.4,1.2-.7.5-2.9,0-3.8,0H11.66c-2.4-1.4-4.1-3-5.2-4.8-.5-.9-.3-3.4-.3-4.5,0-.6,0-1.2-.1-1.9v-1.3c0-.5,0-1.1-.1-1.6v-1.3c-.2-2.8-.3-5.6-.5-8.3,0-1.1-.1-2.3-.2-3.4v-1.5c0-1.6-.1-3.1-.2-4.7,0-1.4-.5-3.4-.2-4.7.2-.6.6-1.2,1-1.8.2-.3.4-.5.6-.8.2-.2.3-.4.5-.6.1-.2.3-.4.4-.5-.2.2-.5.3-.7.4s-.4.2-.6.4c-.4.2-.9.4-1.4.6.2,0,.2-.8.2-1.7,0-1.6-.2-3.7-.2-4,0-2.3,0-4.6-.1-7,2-2.4,4.5-4.8,7.4-7.2l13.9.2h2.6l19.5.3h10c.5.8,1.3,1.4,1.9,1.9.1,0,.3.2.4.3v-.2c-.2-.6-.3-1.3-.5-1.9l15.6.2h43.3c.9,0,2.1-.2,3.1-.1h1.1c1,.2,2,1.2,3.1.6,2.8-1.4,6.6-.8,9.8-.8h5c4.2-.1,8.4-.2,12.6-.2,8.2,0,16.7-.2,25.1-.3,2.8,2.3,5.3,4.7,7.3,7.1.3.4,0,2.4,0,2.9l-.7.6Z"/>
            <path class="cls-4" d="M6.76,23.5c-1.8,2.4-1.8,5.7-1.7,8.8.1,4.6.2,9.2.3,13.8,0,1,0,2-.1,2.9-.2-2.8-.3-5.6-.5-8.3-.2-3.2-.3-6.4-.4-9.6,0-1.4-.5-3.4-.2-4.7.2-.9,1-1.8,1.7-2.6.3.2.6.2.9-.2v-.1Z"/>
            <path class="cls-4" d="M59.36,6.5c-3.8-1.1-7.9-1.2-11.9-1.3-8.7-.1-17.4-.3-26-.4-2.5,0-5,0-7.5-.2-.9,0-1.8-.1-2.6.3-1.1.6-1.6,2-2.4,2.9-1,1-2.4,1.6-3.3,2.8-.3.4-.7.9-.8,1.4s-.1,1,0,1.5v6.6c0,.8,0,1.5.3,2.3,0,.2.3.5.5.9-.4.2-.9.4-1.4.6.4-.2,0-5.2,0-5.7,0-2.3,0-4.6-.1-7,2-2.4,4.5-4.8,7.4-7.2l36,.5h10c.5.8,1.3,1.4,1.9,1.9l-.1.1Z"/>
            <path class="cls-4" d="M185.06,14.1v3.5c0,2.3-.8,3.7-1.7,5.7,0,.2-.2.4-.2.6s0,.3.2.5c.6,1.3,1.3,2.5,1.4,3.9,0,1.4-.1,2.8-.2,4.2-.1,2.9-.3,5.8-.4,8.7-.1,2.8-.3,5.5-.5,8.3,0-5.5-.1-11.1,0-16.6,0-2.5.4-6.3-2-8,.1-1.9,2-3.3,2.5-5.2.2-.7.2-1.5.2-2.3,0-1.6-.2-3.2-.4-4.8,0-.5-.1-1-.3-1.4-.3-.5-.7-.9-1.2-1.3-.9-.8-1.8-1.6-2.7-2.4s-1.9-1.6-3-2c-.8-.2-1.6-.2-2.5-.2h-45.2c-1,0-1.9.3-2.7.9-.4.3-.8.6-1.2.7-.8.2-1.5-.3-2.2-.6-.5-.2-.9-.2-1.4-.2h-1.1c-9.5-.9-19.3-.4-28.9-.5l-30.5-.5c-.4,0-.9,0-1.2.3s-.3.9,0,1h-.2c-.2-.6-.3-1.3-.5-1.9l15.6.2c5.6,0,11.3.1,17.5.1h25.7c1.3,0,2.9-.3,4.2,0,1,.2,2,1.2,3.1.6,2.8-1.4,6.6-.8,9.8-.8h5c4.2-.1,8.4-.2,12.6-.2,8.2,0,16.7-.2,25.1-.3,2.8,2.3,5.3,4.7,7.3,7.1.3.4,0,2.4,0,2.9h0Z"/>
          </g>
          <g>
            <path class="cls-4" d="M180.46,53.5c-.3-.3-.6-.5-.9-.8-1.2-.9-2.6-1.6-4.1-1.9h-.3c-.3,0-.6.2-.9.3-1.2,1-2.3,2.3-3,3.7-.2.3-.3.6,0,1,.2.3.6.5.9.7.7.4,1.5.8,2.3,1.1.3.1.8,0,1.1-.2.7-.3,1.3-1.2,1.8-1.9v-.2s0-.2-.1-.2c-.1-.1-.3-.3-.4-.4h-.3c-.6.6-1.2,1.1-1.7,1.7-.3-.2-.6-.4-.9-.6-.3-.2-.6-.3-.9-.6-.1-.1-.2-.3-.2-.5s.2-.3.3-.5c.4-.6.7-1.2,1.2-1.7.3-.4.6-.8,1-1.1,1.2.3,2.4.8,3.4,1.6,0,0,.4.3.5.4.2.1.3.3.5.5s.4.3.5.5c0,0,.3.4.3.5,0,.2-.3.6-.4.7-.2.3-.5.6-.7.8-.5.5-1,1.1-1.6,1.6-.2.2-.4.4-.6.6-.5.5-.9,1-1.4,1.4-.6.4-1.1.5-1.8.6h-61.5c-21.1,0-42.3,0-63.4.1H16.66c-.5,0-1.2.1-1.7,0-.5,0-1-.4-1.4-.7-.5-.3-.9-.6-1.3-1-.3-.3-.6-.6-.8-.9,0,0-.1-.2-.2-.3-.3-.3-.2-1.7-.2-2.1,0-1.3-.2-2.5-.3-3.8-.2-3.4-.4-6.8-.7-10.2-.3-4.1-.4-8.1-.6-12.2,0-2.1-.2-4.1-.3-6.2,0-1.2.3-4-.5-5-.2-.3-.8-.3-.9,0,.2,7.3.6,14.7,1.1,22,.3,4.7.3,9.5.9,14.2.1,1,.3,2,.4,3,.1.8.6,1.3,1.1,1.9.6.6,1.2,1,1.9,1.4.5.4,1,.3,1.6.3h61.6c21.1,0,42.3-.1,63.4-.1,12,0,24-.2,36-.2.5,0,1-.5,1.4-.8s.9-.7,1.3-1.1c.6-.6,1.1-1.2,1.7-1.9.5-.6,1-1.2,1.6-1.8v-.1h0c.2-.2.3-.5.3-.8,0-.4-.4-.7-.7-.9l-.9.1Z"/>
            <path class="cls-4" d="M180.16,10.3c-.4-.6-1-1-1.5-1.4-.4-.4-.9-.3-1.5-.3h-65.1c-21.1,0-42.3.1-63.4.1-12,0-24,.2-36,.2-.5,0-1,.5-1.4.8s-.9.7-1.3,1.1c-.6.6-1.1,1.2-1.7,1.9-.5.6-1,1.2-1.6,1.8v.1h0c-.2.2-.3.5-.3.8,0,.4.4.7.7.9.3.3.6.5.9.8,1.2.9,2.6,1.6,4.1,1.9h.3c.3,0,.6-.2.9-.3,1.2-1,2.3-2.3,3-3.7.2-.3.3-.6,0-1-.2-.3-.6-.5-.9-.7-.7-.4-1.5-.8-2.3-1.1-.3-.1-.8,0-1.1.2-.7.3-1.3,1.2-1.8,1.9v.2s0,.2.1.2c.1.1.3.3.4.4h.3c.6-.6,1.2-1.1,1.7-1.7.3.2.6.4.9.6.3.2.6.3.9.6.1.1.2.3.2.5s-.2.3-.3.5c-.4.6-.7,1.2-1.2,1.7-.3.4-.6.8-1,1.1-1.2-.3-2.4-.8-3.4-1.6,0,0-.4-.3-.5-.4-.2-.1-.3-.3-.5-.5s-.4-.3-.5-.5c0,0-.3-.4-.3-.5,0-.2.3-.6.4-.7.2-.3.5-.6.7-.8.5-.5,1-1.1,1.6-1.6.2-.2.4-.4.6-.6.5-.5.9-1,1.4-1.4.6-.4,1.1-.5,1.8-.6h61.5c21.1,0,42.3,0,63.4-.1h35.9c.5,0,1.2-.1,1.7,0,.5,0,.9.4,1.3.7.4.3.8.6,1.1,1,.2.3.5.6.6.9,0,0,0,.2.1.3,0,4.5-.2,7.7-.1,11.6,0,2.3,0,4.6.1,6.9v6.3c0,2.1,0,4.3-.1,6.4,0,1.9-.4,3.8-.6,5.7,0,.8-.2,1.7,0,2.5,0,.1.5,0,.5-.1.7-1.8.8-4.2.9-6.2.1-2.4.1-4.9.1-7.3v-13.2c0-4.1-.2-8.2.2-12.2,0-.8-.3-1.3-.7-1.9l.8-.2Z"/>
          </g>
          <g>
            <path class="cls-1" d="M180.36,52.9c-.3-.3-.6-.5-.9-.8-1.2-.9-2.6-1.6-4.1-1.9h-.3c-.3,0-.6.2-.9.3-1.2,1-2.3,2.3-3,3.7-.2.3-.3.6,0,1,.2.3.6.5.9.7.7.4,1.5.8,2.3,1.1.3.1.8,0,1.1-.2.7-.3,1.3-1.2,1.8-1.9v-.2s0-.2-.1-.2c-.1-.1-.3-.3-.4-.4h-.3c-.6.6-1.2,1.1-1.7,1.7-.3-.2-.6-.4-.9-.6-.3-.2-.6-.3-.9-.6-.1-.1-.2-.3-.2-.5s.2-.3.3-.5c.4-.6.7-1.2,1.2-1.7.3-.4.6-.8,1-1.1,1.2.3,2.4.8,3.4,1.6,0,0,.4.3.5.4.2.1.3.3.5.5s.4.3.5.5c0,0,.3.4.3.5,0,.2-.3.6-.4.7-.2.3-.5.6-.7.8-.5.5-1,1.1-1.6,1.6-.2.2-.4.4-.6.6-.5.5-.9,1-1.4,1.4-.6.4-1.1.5-1.8.6h-61.5c-21.1,0-42.3,0-63.4.1H16.56c-.5,0-1.2.1-1.7,0-.5,0-1-.4-1.4-.7-.5-.3-.9-.6-1.3-1-.3-.3-.6-.6-.8-.9,0,0-.1-.2-.2-.3-.3-.3-.2-1.7-.2-2.1,0-1.3-.2-2.5-.3-3.8-.2-3.4-.4-6.8-.7-10.2-.3-4.1-.4-8.1-.6-12.2,0-2.1-.2-4.1-.3-6.2,0-1.2.3-4-.5-5-.2-.3-.8-.3-.9,0,.2,7.3.6,14.7,1.1,22,.3,4.7.3,9.5.9,14.2.1,1,.3,2,.4,3,.1.8.6,1.3,1.1,1.9.6.6,1.2,1,1.9,1.4.5.4,1,.3,1.6.3h61.6c21.1,0,42.3-.1,63.4-.1,12,0,24-.2,36-.2.5,0,1-.5,1.4-.8s.9-.7,1.3-1.1c.6-.6,1.1-1.2,1.7-1.9.5-.6,1-1.2,1.6-1.8v-.1h0c.2-.2.3-.5.3-.8,0-.4-.4-.7-.7-.9l-.9.1Z"/>
            <path class="cls-1" d="M180.06,9.8c-.4-.6-1-1-1.5-1.4-.4-.4-.9-.3-1.5-.3h-65.1c-21.1,0-42.3.1-63.4.1-12,0-24,.2-36,.2-.5,0-1,.5-1.4.8s-.9.7-1.3,1.1c-.6.6-1.1,1.2-1.7,1.9-.5.6-1,1.2-1.6,1.8v.1h0c-.2.2-.3.5-.3.8,0,.4.4.7.7.9.3.3.6.5.9.8,1.2.9,2.6,1.6,4.1,1.9h.3c.3,0,.6-.2.9-.3,1.2-1,2.3-2.3,3-3.7.2-.3.3-.6,0-1-.2-.3-.6-.5-.9-.7-.7-.4-1.5-.8-2.3-1.1-.3-.1-.8,0-1.1.2-.7.3-1.3,1.2-1.8,1.9v.2s0,.2.1.2c.1.1.3.3.4.4h.3c.6-.6,1.2-1.1,1.7-1.7.3.2.6.4.9.6.3.2.6.3.9.6.1.1.2.3.2.5s-.2.3-.3.5c-.4.6-.7,1.2-1.2,1.7-.3.4-.6.8-1,1.1-1.2-.3-2.4-.8-3.4-1.6,0,0-.4-.3-.5-.4-.2-.1-.3-.3-.5-.5s-.4-.3-.5-.5c0,0-.3-.4-.3-.5,0-.2.3-.6.4-.7.2-.3.5-.6.7-.8.5-.5,1-1.1,1.6-1.6.2-.2.4-.4.6-.6.5-.5.9-1,1.4-1.4.6-.4,1.1-.5,1.8-.6h61.5c21.1,0,42.3,0,63.4-.1h35.9c.5,0,1.2-.1,1.7,0,.5,0,.9.4,1.3.7.4.3.8.6,1.1,1,.2.3.5.6.6.9,0,0,0,.2.1.3,0,4.5-.2,7.7-.1,11.6,0,2.3,0,4.6.1,6.9v6.3c0,2.1,0,4.3-.1,6.4,0,1.9-.4,3.8-.6,5.7,0,.8-.2,1.7,0,2.5,0,.1.5,0,.5-.1.7-1.8.8-4.2.9-6.2.1-2.4.1-4.9.1-7.3v-13.2c0-4.1-.2-8.2.2-12.2,0-.8-.3-1.3-.7-1.9l.8-.2Z"/>
          </g>
          <path class="cls-6" d="M29.96,36.5c-2.5,0-5.8,1.4-7,3.8s.1,5.3,1.6,7.2c.7.9,1.6,1.5,2.6,1.7.1,0,.2.1.4.2,2.4,1.1,6-.4,7.9-2,4.4-3.7-.5-11-5.5-10.9h0Z"/>
          <path class="cls-6" d="M43.06,42.1c-.3-.3-.6-.4-1-.5-.6-.2-1.2,0-1.8-.2-.4,0-1.1.2-1.3.5-.2.4-.6.6-.7,1v.8c.3.7,1.1,1,1.8,1.1,1.1.2,3.2.4,3.3-1.2.3-.6.2-1.1-.3-1.6v.1Z"/>
          <path class="cls-6" d="M19.56,30.4c-.2-.2-.4-.3-.6-.4-.2-.1-.7,0-.9.3-.1.2-.2.4-.3.7v.6c.2.4.8.4,1.2.3s.8-.5.8-.9c0-.2,0-.4-.2-.5v-.1Z"/>
          <path class="cls-6" d="M161.36,42.1c-1.5-1.8-4.5-1.6-6.1.1-2.9,3.1,3.6,7.3,6.2,4.6,1.4-1.4,1-3.3-.2-4.7h.1Z"/>
          <path class="cls-6" d="M152.26,44.8c-.2-.5-.7-.7-1.2-.9-.2-.1-.9.1-.9.4,0,.5,0,.9.3,1.3.4.4.8.5,1.3.3.4-.2.7-.6.5-1v-.1Z"/>
          <path class="cls-6" d="M170.36,15.4c-2.2-1.9-5.7-1.1-7.7.7-1.4,1.3.2,3.1,1.2,3.9,1.2,1,3.1,1,4.5,1.5.5.2,1.6-.3,1.8-.8.5-.9,1.3-2,1.4-3.1,0-.9-.5-1.7-1.2-2.2Z"/>
          <path class="cls-6" d="M161.26,19.7c0-.1,0-.3-.2-.3-.1,0-.3-.1-.4-.2-.1,0-.3-.1-.4-.1h-.6c-.2,0-.6,0-.7.3,0,.1-.2.3-.2.4v.6s.1.1.2.2c.2.1.4.1.6.1.3,0,.6,0,.9-.1.3-.1.4-.3.6-.5,0,0,.3-.2.2-.4h0Z"/>
          <path class="cls-6" d="M174.26,26.3c-.3-.6-.9-.7-1.5-.9-.4,0-1,.2-1.2.5-.3.5-.7,1-.4,1.6.1.2.4.4.6.5.3.2.7.3,1.1.3s1-.1,1.3-.5.4-1.1.2-1.5h-.1Z"/>
          <path class="cls-6" d="M54.66,16.5c-1.8-.8-4.1-.2-5.5,1.1-.4.4-.6,1-.3,1.5.3.4.7.6,1.2.7,1,.3,2.2.2,3.3.2.5,0,1.3-.2,1.5-.7.2-.4.4-.9.5-1.4,0-.6,0-1-.7-1.3v-.1Z"/>
          <path class="cls-6" d="M84.16,51.3s-.2-.1-.3-.2l-.3-.2h-.6c-.1,0-.4.2-.4.3,0,.2,0,.4.2.5,0,0,.1.1.2.2.1.1.3,0,.5,0s.6,0,.7-.2c0,0,.2-.2.2-.3,0,0,0-.2-.1-.3l-.1.2Z"/>
          <path class="cls-6" d="M92.26,53.8s0-.1-.1-.2-.2-.2-.4-.3c-.1-.1-.8.2-.7.3,0,.1.2.2.3.3,0,0,0,.1.1.1,0,0,.2,0,.3.1h.3s.2,0,.2-.2v-.2.1Z"/>
          <path class="cls-6" d="M124.36,33.8c-.1-.3-.2-.6-.4-.8-.2-.3-.6-.4-.9-.6-.3-.2-.8,0-1,.2-.1,0-.7.4-.4.5.3.2.6.5.9.6.4.2.8.3,1.2.4.1,0,.7-.1.6-.3h0Z"/>
          <path class="cls-6" d="M69.66,29.6c-.1-.1-.2-.2-.3-.4-.1-.1-.5,0-.7,0-.3,0-.5.1-.8.2-.2,0-.5.2-.7.4,0,0-.4.3-.2.4.1.1.2.3.3.4.1.2.2.3.4.4.5.2,1.1.3,1.6,0,.2,0,.4-.2.5-.4v-.6c0-.2-.1-.3-.3-.5l.2.1Z"/>
          <path class="cls-4" d="M35.46,47.5c-.7.8-1.9,1.3-2.9,1.8-2.7,1.4-6.3,0-8.1-2.2-1.1-1.3-1.7-3.3-2-4.9-.2,2.3,1,4.3,2.5,6,1.6,1.9,3.3,3.2,5.8,2.7,2.2-.4,4.2-1.8,5.3-3.7.4-.7.8-1.5,1-2.3.2-.7,0-1.3,0-2-.1,1.8-.5,3.2-1.7,4.6h.1Z"/>
          <path class="cls-4" d="M38.66,42.7c-.3,0-.5.5-.4.8,0,.3.4.5.6.7.6.3,1.3.5,1.9.6.4,0,.9.2,1.3.1,1.2-.1,1.3-1.3,1.1-2.3.3.5.2,1.1.2,1.6,0,.2,0,.5-.2.7s-.5.3-.8.4c-1.3.2-2.7,0-4-.4-.1,0-.2,0-.3-.2-.2-.2-.2-.6,0-.9.1-.4.5-.7.7-1.1h-.1Z"/>
          <path class="cls-4" d="M49.46,17.4c-.3.3-.7.7-.6,1.2,0,.4.5.5.8.7.5.2,1,.4,1.5.5.7.1,1.4,0,2.1,0,.3,0,.7,0,1-.3.2-.1.3-.2.4-.4.4-.6.6-1.3.5-1.9v1.8c0,.3-.1.7-.4.8-.2.1-.4.2-.6.2-1.5.2-3.2.6-4.5-.1-1.6-.8-1.3-1.5-.2-2.5h0Z"/>
          <path class="cls-4" d="M69.96,30.1c0,.3-.3.5-.5.6l-.6.3c-.6.2-1.3,0-1.6-.5.3.4.6.8,1.1,1h.4c.5-.3,1-.9,1.2-1.4h0Z"/>
          <path class="cls-4" d="M161.86,43.1c.3.6.7,1.3.6,1.9,0,.3-.2.6-.4.8-.4.6-.8,1.3-1.5,1.6-.3.1-.6.2-.9.2-1.2.1-2.5-.2-3.4-1-1-.7-1.6-1.9-1.8-3.1.3,2.3,2,4.3,4.3,4.9.4,0,.8.1,1.2,0s.8-.4,1.2-.7c.4-.3.7-.6,1-1,.7-1.1.6-2.7-.3-3.7v.1Z"/>
          <path class="cls-4" d="M162.36,16.6c-.3.5-.1,1,.1,1.5.2.4.4.8.7,1.2,1,1,2.4,1.6,3.7,1.9s2.7.5,3.4-.8c.5-.9,1-1.9,1.2-2.9.1.8-.2,1.7-.4,2.4-.3.8-.6,1.6-1.4,2-.5.2-1.1.2-1.6.1-1.9-.3-3.7-1-5-2.5-.7-.8-1.4-1.8-.8-2.9h.1Z"/>
          <path class="cls-4" d="M174.46,26.6c-.2.4-.3.7-.5,1.1,0,.1-.1.2-.2.3-.2.2-.6.2-1,.2-.3,0-.7,0-1-.2s-.6-.4-.7-.7c.1.5.5.9,1,1.1s1,.2,1.5.2h.3s.2-.2.2-.3c.3-.6.4-1.1.4-1.8v.1Z"/>
        </g>
      </g>
    </g>
  </g>
</svg>