<?xml version="1.0" encoding="UTF-8"?>
<svg xmlns="http://www.w3.org/2000/svg" xmlns:xlink="http://www.w3.org/1999/xlink" viewBox="0 0 256.8 69.82">
  <defs>
    <style>
      .cls-1 {
        fill: #904b4f;
      }

      .cls-1, .cls-2, .cls-3, .cls-4, .cls-5, .cls-6, .cls-7, .cls-8, .cls-9, .cls-10, .cls-11, .cls-12, .cls-13, .cls-14, .cls-15, .cls-16, .cls-17 {
        stroke-width: 0px;
      }

      .cls-2 {
        fill: url(#linear-gradient);
      }

      .cls-3 {
        fill: url(#radial-gradient);
      }

      .cls-4 {
        fill: #f0c996;
      }

      .cls-5 {
        fill: url(#linear-gradient-11);
      }

      .cls-6 {
        fill: url(#linear-gradient-12);
      }

      .cls-7 {
        fill: url(#linear-gradient-13);
      }

      .cls-8 {
        fill: url(#linear-gradient-10);
      }

      .cls-9 {
        fill: url(#linear-gradient-4);
      }

      .cls-10 {
        fill: url(#linear-gradient-2);
      }

      .cls-11 {
        fill: url(#linear-gradient-3);
      }

      .cls-12 {
        fill: url(#linear-gradient-8);
      }

      .cls-13 {
        fill: url(#linear-gradient-9);
      }

      .cls-14 {
        fill: url(#linear-gradient-7);
      }

      .cls-15 {
        fill: url(#linear-gradient-5);
      }

      .cls-16 {
        fill: url(#linear-gradient-6);
      }

      .cls-18, .cls-17 {
        isolation: isolate;
      }

      .cls-17 {
        fill: #f2e4d7;
        mix-blend-mode: multiply;
      }
    </style>
    <linearGradient id="linear-gradient" x1="13" y1="469.28" x2="45.2" y2="439.18" gradientTransform="translate(0 459.1) scale(1 -1)" gradientUnits="userSpaceOnUse">
      <stop offset="0" stop-color="#cb910b"/>
      <stop offset=".5" stop-color="#947133"/>
      <stop offset="1" stop-color="#584f60"/>
    </linearGradient>
    <linearGradient id="linear-gradient-2" x1="-9.32" y1="453.55" x2="22.88" y2="423.55" xlink:href="#linear-gradient"/>
    <linearGradient id="linear-gradient-3" x1="-3.4" y1="459.88" x2="28.7" y2="429.88" xlink:href="#linear-gradient"/>
    <linearGradient id="linear-gradient-4" x1="36.65" y1="575.08" x2="118.35" y2="524.78" gradientTransform="translate(-140.85 535.29) rotate(11) scale(1 -1)" xlink:href="#linear-gradient"/>
    <linearGradient id="linear-gradient-5" x1="20.44" y1="559.61" x2="102.24" y2="509.21" gradientTransform="translate(-140.85 535.29) rotate(11) scale(1 -1)" xlink:href="#linear-gradient"/>
    <linearGradient id="linear-gradient-6" x1="12.84" y1="547.1" x2="94.54" y2="496.8" gradientTransform="translate(-140.85 535.29) rotate(11) scale(1 -1)" xlink:href="#linear-gradient"/>
    <linearGradient id="linear-gradient-7" x1="-823.23" y1="740.08" x2="-793.43" y2="712.18" gradientTransform="translate(-826.69 204.77) rotate(-147.2)" xlink:href="#linear-gradient"/>
    <linearGradient id="linear-gradient-8" x1="-814.44" y1="548.27" x2="-784.64" y2="520.47" gradientTransform="translate(-652.48 372.07) rotate(-166)" xlink:href="#linear-gradient"/>
    <linearGradient id="linear-gradient-9" x1="-830.06" y1="703.64" x2="-800.26" y2="675.74" gradientTransform="translate(-801.77 234.32) rotate(-149.9)" xlink:href="#linear-gradient"/>
    <linearGradient id="linear-gradient-10" x1="-836.1" y1="680.22" x2="-760.3" y2="633.52" gradientTransform="translate(-750.14 344.24) rotate(-158.2)" xlink:href="#linear-gradient"/>
    <linearGradient id="linear-gradient-11" x1="-836.62" y1="640.49" x2="-760.72" y2="593.89" gradientTransform="translate(-718 370.86) rotate(-160.9)" xlink:href="#linear-gradient"/>
    <linearGradient id="linear-gradient-12" x1="-794.73" y1="486.9" x2="-718.93" y2="440.2" gradientTransform="translate(-534.47 480.44) rotate(-177)" xlink:href="#linear-gradient"/>
    <linearGradient id="linear-gradient-13" x1="131.04" y1="468.68" x2="131.44" y2="381.58" gradientTransform="translate(0 459.1) scale(1 -1)" gradientUnits="userSpaceOnUse">
      <stop offset="0" stop-color="#d89979"/>
      <stop offset=".3" stop-color="#ac645f"/>
      <stop offset=".6" stop-color="#792640"/>
      <stop offset=".8" stop-color="#5b316c"/>
      <stop offset="1" stop-color="#4b3884"/>
    </linearGradient>
    <radialGradient id="radial-gradient" cx="127.7" cy="454.08" fx="127.7" fy="454.08" r="223.5" gradientTransform="translate(0 459.1) scale(1 -1)" gradientUnits="userSpaceOnUse">
      <stop offset="0" stop-color="#e4a482"/>
      <stop offset="1" stop-color="#865f6a"/>
    </radialGradient>
  </defs>
  <g class="cls-18">
    <g id="Layer_2" data-name="Layer 2">
      <g id="Layer_1-2" data-name="Layer 1">
        <g>
          <g>
            <path class="cls-2" d="M51.8,22.12c-.9,1.9-1.9,3.7-2.9,5.4-.3.5-.6,1-1.1,1.3-1,.6-2.3.2-3.4-.3-3.5-1.5-6.8-3.2-10-5.1-1.1-.7-2.2-1.4-2.6-2.6.6-3.4.4-7.1-.6-10.4-.9-3.2-1.4-6.4-1.6-9.7v-.4c0-.8,8.2.8,8.9,1.1,2.8,1,4.9,2.7,6.9,4.8.6.6,1.1,1.3,1.7,2,2.4,3.1,4.1,6.7,5,10.4.3,1.1.1,2.3-.4,3.3l.1.2Z"/>
            <path class="cls-10" d="M44.3,45.92c0,.1-14.8-.5-16.1-.6-4.3-.4-8.8.4-13,1.6-.7.2-1.3.4-2,.6.5-5.5,3.3-10.8,7-14.9,0,0,.1-.1.2-.2.9-1,1.9-1.9,3-2.6,2.6-1.5,5.8-1.4,8.8-1,5,.6,8.9.4,10.4,5.8,1,3.7,1.6,7.5,1.6,11.3h.1Z"/>
            <path class="cls-11" d="M41.6,33.32c-.1.4-.3.7-.6.9-.3.1-.6,0-.9,0-7.5-1-15.2-2.2-22.2-5-1.3-.5-2.5-1.1-3.7-1.8,1.3-1.7,2.8-3.3,4.4-4.8-2.6.6-4.6,1.2-6.6,2.9-3.8-2.2-7.7-4.1-11.9-5.6,4.9-3.9,10.9-6.1,17.1-7.3,2.6-.5,5.3-.7,7.9-.2,3.2.6,6,2.1,8.5,4.1,3.1,2.4,5.7,5.6,8.1,8.7,1.7,2.1.7,5.6-.2,8.2l.1-.1Z"/>
            <path class="cls-9" d="M47.1,8.32h0c-.2.3-.5.5-.9.6-1.5.7-3,1.4-4.4,2.1-1.5-2.3-3.2-4.5-5-6.5,1.3,2.1,2.1,4.5,2.4,6.9v.6c-.1.2-.4.3-.6.3-1.7.3-3.3.7-5,1-1.6-3.4-2.8-7-3.5-10.7-.1-.6-.3-1.3-.4-2V.22c0-.8,8.2.8,8.9,1.1,2.8,1,4.9,2.7,6.9,4.8.6.6,1.1,1.3,1.7,2l-.1.2Z"/>
            <path class="cls-15" d="M33.6,16.42c-.2,1.4-1.9,3.2-3.3,3.5-.6.1-1.2,0-1.8,0-4.3-.7-8.7-1.2-13.1-1.5,3.3.5,6.6,1.3,9.7,2.3,1.3.4,2.6.9,3.5,1.9-1.8,1.9-3.2,3.6-5.3,5.2-.5.4-1.1.8-1.7,1.1-.9.4-1.8.4-2.7.4h-1.1c-1.3-.5-2.5-1.1-3.7-1.8,1.3-1.7,2.8-3.3,4.4-4.8-2.6.6-4.6,1.2-6.6,2.9-3.8-2.2-7.7-4.1-11.9-5.6,4.9-3.9,10.9-6.1,17.1-7.3,2.6-.5,5.3-.7,7.9-.2,3.2.6,6,2.1,8.5,4.1l.1-.2Z"/>
            <path class="cls-16" d="M31.9,43.12c-5.7.7-11.5,1.7-16.8,3.8-.7.2-1.3.4-2,.6.5-5.5,3.3-10.8,7-14.9,3,.3,6,1.5,8.4,3.4-3.8.6-7.5,2.3-10.4,4.8,2.9-1.1,5.9-1.8,8.9-1.9h1.5c1.8.4,2.7,2.4,3.3,4.2h.1Z"/>
          </g>
          <g>
            <path class="cls-14" d="M220.1,34.22c-.3,1.9-.4,3.8-.4,5.7,0,.5,0,1.1.2,1.6.5,1,1.7,1.3,2.8,1.5,3.4.6,6.9,1,10.4,1,1.2,0,2.4,0,3.3-.7,1.2-3,3.2-5.7,5.7-7.8,2.3-2,4.4-4.3,6.1-6.8,0,0,.1-.2.2-.3.4-.6-6.8-3.5-7.5-3.6-2.7-.6-5.1-.4-7.8.3-.8.2-1.5.4-2.3.7-3.4,1.2-6.6,3.1-9.2,5.6-.8.7-1.2,1.7-1.4,2.8h-.1Z"/>
            <path class="cls-12" d="M213.2,61.32c0,.1,13.4,2.9,14.6,3.1,4,.6,7.8,2.3,11.4,4.4.5.3,1.1.6,1.6,1,.8-5.1-.6-10.5-3-15,0,0,0-.2-.1-.2-.6-1.1-1.2-2.1-2.1-3-2-1.9-4.9-2.6-7.7-2.9-4.6-.6-8.1-1.6-10.7,2.9-1.8,3.1-3.1,6.4-4,9.8v-.1Z"/>
            <path class="cls-13" d="M217.3,48.32c0,.3-.1.7,0,1,.2.2.4.3.7.5,6.5,2.7,13.2,5.3,20.1,6.3,1.3.2,2.5.3,3.8.3-.2-2-.7-4-1.3-5.9,1.8,1.7,3.2,3.1,4,5.4,4.1,0,8.1.3,12.1,1-2.2-5.4-5.9-10-10.3-13.8-1.9-1.6-3.9-3-6.2-3.9-2.8-1-5.8-1.1-8.8-.7-3.6.5-7.2,1.8-10.6,3.2-2.3.9-3.1,4.2-3.6,6.6h.1Z"/>
            <path class="cls-8" d="M230.6,25.82h0c0,.3.2.6.4.9.8,1.3,1.6,2.6,2.4,3.8,2.3-1,4.7-1.9,7.1-2.6-2,1-3.9,2.4-5.3,4.2-.1.2-.3.3-.3.5s.2.4.3.5c1.1,1.1,2.2,2.2,3.4,3.3,3-1.8,5.7-4,8.1-6.6.4-.4.9-.9,1.3-1.3,0,0,.1-.2.2-.3.4-.6-6.8-3.5-7.5-3.6-2.7-.6-5.1-.4-7.8.3-.8.2-1.5.4-2.3.7v.2Z"/>
            <path class="cls-5" d="M231.5,38.52c-.5,1.3,0,3.5,1,4.3.4.4,1,.6,1.5.8,3.8,1.5,7.5,3.1,11.2,4.9-2.9-1.1-5.9-2-8.9-2.7-1.2-.3-2.5-.5-3.6-.1.5,2.4.9,4.4,1.8,6.7.2.6.5,1.2.8,1.7.5.7,1.3,1.1,2,1.6.3.2.6.3.9.5,1.3.2,2.5.3,3.8.3-.2-2-.7-4-1.3-5.9,1.8,1.7,3.2,3.1,4,5.4,4.1,0,8.1.3,12.1,1-2.2-5.4-5.9-10-10.3-13.8-1.9-1.6-3.9-3-6.2-3.9-2.8-1-5.8-1.1-8.8-.7v-.1Z"/>
            <path class="cls-6" d="M225,61.52c5,1.9,10,4.1,14.2,7.2.5.3,1.1.6,1.6,1,.8-5.1-.6-10.5-3-15-2.8-.4-5.7,0-8.3,1.2,3.3,1.4,6.2,3.7,8.3,6.6-2.3-1.6-4.9-2.9-7.6-3.8-.5-.1-.9-.3-1.4-.3-1.7,0-2.9,1.6-3.9,3l.1.1Z"/>
          </g>
          <g>
            <g>
              <path class="cls-7" d="M228.5,23.72c-.1,3.5-.3,7-.8,10.4,0,.2,0,.3-.1.4-.1.2-.3.2-.4.4-.4.4-.3,1-.1,1.5.3.9.5,1.9.5,2.9.1,4.8-1,9.9-1.7,14.6,0,.4-.2.8-.4,1.1-1.2,1.9-2.7,3.6-4.4,5-1.4,1.2-3.3,2.8-5.2,2.7-2.7-.2-5.4-.2-8,0h-30.9c-3.9,0-7.9.3-11.7-.8-.3,0-.6-.2-.9-.1-.7,0-1.3.8-2,.9-.7.2-1.9,0-2.7-.1h-45.1c-9.7,0-19.4.1-29,.2l-39.6.3c-.4,0-.9,0-1.2-.3-2.3-1.2-4.3-2.8-6-4.7-1.6-1.8-2.2-4.1-2.9-6.5-.4-1.7.5-2.2,2.1-2.4-.6-.1-1.2-.3-1.8-.4-.2,0-.4,0-.5-.2-.1-.1-.1-.3-.2-.4-1.7-8-1.5-15.9-1.8-24,0-.6.1-1.2.5-1.6,2.2-3,5-5.9,7.5-7.5.4-.3.9-.4,1.4-.4h17.6c2.8,0,6.1-.5,8.7.7.7.3,1.2-.2,1.8-.4.7-.2,1.4-.3,2.1-.3h86.7c1,0,2.2-.1,3.2,0,1.1.2,1.2.6,1.9,1.5,0,0,.1.1.2.2.2,0,.3-.1.4-.3.7-1.3,2.2-1.4,3.5-1.4h50.1c.4.2,1,.4,1.4.5,2.6,1.6,5.3,4.5,7.5,7.5.3.5.5,1.1.5,1.6l-.2-.6Z"/>
              <path class="cls-3" d="M225.1,23.32v2.2c-.1,2.9-.3,5.8-.5,8.7,0,.7,0,1.3-.2,1.9-.4,5.4-1,10.7-1.7,16,0,.4-.1.8-.2,1.3-.4.7-.9,1.4-1.4,2-.6.8-1.3,1.5-2.1,2.1h0l-.2.2c-.7.5-2,1.7-2.5,1.7-1.3-.1-2.8-.2-4.4-.2h-22.8c-4.9-.1-9.9-.2-14.8-.2h0c-2.4,0-5.2.4-7.5-.4-.6-.2-1.3-.4-2-.4-.8,0-1.5.4-2.3.5-.3,0-.6.1-1,.1h-56.8s0,0,0,0h-8.7l-50,.5c-.3,0-.6,0-.9-.3h0c-.5-.2-.9-.6-1.4-1-1-.9-2-2.1-2.4-2.6-1.1-1.2-1.6-2.4-1.9-3.8,0-.4-.1-.8-.1-1.2v-.9c1.7-.5,3.5-1,5.3-1.4-1.8.2-3.6.3-5.4.3,0-1.5-.2-3-.4-4.5,0-.5-.1-1-.2-1.5-.2-2-.5-4-.7-6v-2c-.1-1.5-.2-3-.3-4.5,0-1.1-.1-2.3-.2-3.4,0-.6-.4-2.7-.1-3.1.6-.9,1.3-1.7,2-2.5s1.4-1.5,2.1-2.2c.7-.6,1.4-1.2,2-1.6h126.1c2.5,0,5,.1,7.5.3h.7c.2,0,.4-.2.7-.3,1.2-.6,2.6,0,3.8.1h33.7c1,0,2.4-.2,3.3,0h.4c1.9,1.4,4,3.7,5.9,6.3l-.4-.2Z"/>
              <path class="cls-4" d="M224.5,26.42c0-.6,0-1.2-.1-1.7-.2-.6-.7-1.1-1.2-1.6-1.5-1.5-2.9-3.6-4.8-4.6-1.8-1-4.3-.3-6.3-.4h-8c-5.4,0-10.9,0-16.3-.1-3,0-6,0-9-.6h-.7c-.3,0-.5.2-.7.3-1.5.7-3.2.3-4.8.3h-63.6c-1.7,0-3.1.8-4.7,1.1-1.3.3-2.6-.5-3.8-.9-1.1-.3-2.2-.4-3.3-.4-4.3,0-8.7.3-13.1.5-1.6,0-3.2-.2-4.8-.2-6,0-12.1,0-18.1.2h-13.8c-.8,0-3.4-.4-4,0-2,1.5-3.5,3.4-5.1,5.3-.2.2-.3.4-.4.7v.6c.1,1.7-.2,3,.3,4.7.4,1.3,0,2.1-.2,3.4-.2,1.4.1,3,.2,4.4.1,1.6.2,3.1.3,4.7,0,1-.2,3.5.3,4.3,0-.1-.2-.3-.3-.4-.8-7.4-1.4-15-1.6-22.6,1.9-2.7,4.2-5,6.1-6.3h40.5c17.9-.2,34.2-.2,49.6-.2h35.9c2.3,0,4.6,0,6.9-.2.3,0,.6,0,.8-.1.6-.2,1-.6,1.6-.8.5-.1,1.1,0,1.6.2,1.3.4,2.6.9,3.9,1h35.3c1.9,1.4,4,3.7,5.9,6.3,0,1.9-.1,3.9-.2,5.8,0,1.8-.5,3.6-.2,5.3,0,.3.1.6.1.9.1,1.2-.5,2.3-.6,3.5-.1,1.5-.3,3.1-.4,4.6-.3,2.8-1,5.9-1,8.7,0-8.6,1.4-17.1,1.8-25.7Z"/>
            </g>
            <g>
              <path class="cls-4" d="M220.6,49.62c-.3-.3-.6-.6-.9-.8-1.3-1-2.7-1.7-4.3-2h-.3c-.3,0-.6.2-.9.4-1.3,1-2.4,2.4-3.2,3.9-.2.4-.3.7,0,1,.2.3.6.5.9.7.8.5,1.5.8,2.3,1.2.4.1.8,0,1.1-.2.7-.4,1.4-1.3,1.9-1.9v-.2s0-.2-.1-.2c-.2-.2-.3-.3-.5-.5h-.3c-.6.6-1.2,1.2-1.8,1.8-.3-.2-.6-.4-1-.6-.3-.2-.7-.3-.9-.6-.1-.1-.3-.3-.2-.5,0-.2.2-.3.3-.5.4-.6.8-1.2,1.2-1.8.3-.4.7-.8,1-1.2,1.3.3,2.4.8,3.5,1.6,0,0,.4.4.5.4.2.2.3.3.5.5s.4.4.5.6c0,.1.3.4.3.5,0,.2-.3.6-.5.7-.3.3-.5.6-.8.9-.5.6-1.1,1.1-1.6,1.7-.2.2-.4.4-.7.7-.5.5-.9,1-1.5,1.4s-1.2.6-1.9.6h-64c-21.9,0-43.9,0-65.8.1h-33.8c-.6,0-1.2.1-1.8,0-.5,0-1.1-.5-1.5-.7-.5-.3-1-.6-1.4-1-.3-.3-.6-.6-.9-.9,0,0-.1-.2-.2-.3-.4-3.2-1-11-1.4-14.2-.2-1.6-.5-3.2-.7-4.7-.1-.8-.2-1.5-.3-2.3-.1-.9-.2-1.8-.6-2.6,0-.1-.5,0-.5.2-.3,1.5.2,3.2.4,4.7.2,1.7.4,3.3.6,5,.3,2,.7,8.6,1,10.6.1,1,.3,2,.4,3.1.1.8.6,1.4,1.2,2,.6.6,1.3,1,2,1.5.5.4,1.1.3,1.7.3h63.9c22,0,43.9-.1,65.9-.1,12.5,0,24.9-.2,37.4-.2.5,0,1-.5,1.4-.8.5-.4.9-.7,1.3-1.2.6-.6,1.2-1.3,1.7-2s1.1-1.3,1.6-1.9v-.1h0c.2-.2.4-.5.3-.8,0-.4-.4-.7-.7-.9l.2-.4Z"/>
              <path class="cls-4" d="M221.1,21.92c-.4-.6-1.1-1-1.6-1.5-.4-.4-1-.3-1.6-.3h-67.5c-22,0-43.9.1-65.9.1-12.5,0-24.9.2-37.4.2-.5,0-1,.5-1.4.8-.5.4-.9.7-1.3,1.2-.6.6-1.2,1.3-1.7,2s-1.1,1.3-1.6,1.9v.1h0c-.2.2-.4.5-.3.8,0,.4.4.7.7.9.3.3.6.6.9.8,1.3,1,2.7,1.7,4.3,2h.3c.3,0,.6-.2.9-.4,1.3-1,2.4-2.4,3.2-3.9.2-.4.3-.7,0-1-.2-.3-.6-.5-.9-.7-.8-.5-1.5-.8-2.3-1.2-.4-.1-.8,0-1.1.2-.7.4-1.4,1.3-1.9,1.9v.2s0,.2.1.2c.2.2.3.3.5.5h.3c.6-.6,1.2-1.2,1.8-1.8.3.2.6.4,1,.6.3.2.7.3.9.6.1.1.3.3.2.5,0,.2-.2.3-.3.5-.4.6-.8,1.2-1.2,1.8-.3.4-.7.8-1,1.2-1.3-.3-2.4-.8-3.5-1.6,0,0-.4-.4-.5-.4-.2-.2-.3-.3-.5-.5s-.4-.4-.5-.6c0-.1-.3-.4-.3-.5,0-.2.3-.6.5-.7.3-.3.5-.6.8-.9.5-.6,1.1-1.1,1.6-1.7.2-.2.4-.4.7-.7.5-.5.9-1,1.5-1.4s1.2-.6,1.9-.6h64c21.9,0,43.9,0,65.8-.1h37.3c.6,0,1.2-.1,1.8,0,.5,0,1,.5,1.3.7.4.3.8.6,1.2,1,.3.3.5.6.7.9,0,0,0,.2.2.3-.3,3.2-.7,6.4-1,9.5-.2,1.6-.3,7.7-.4,9.3,0,.8-.1,1.5-.2,2.3,0,.9-.2,1.8,0,2.6,0,.1.5,0,.5-.2.6-1.5.6-3.2.7-4.7.2-1.7.4-7.9.6-9.6.2-2,.4-4,.6-6,0-1,.2-2,.3-3.1,0-.8-.3-1.4-.7-2l-.5.5Z"/>
            </g>
            <g>
              <path class="cls-1" d="M220.1,49.12c-.3-.3-.6-.6-.9-.8-1.3-1-2.7-1.7-4.3-2h-.3c-.3,0-.6.2-.9.4-1.3,1-2.4,2.4-3.2,3.9-.2.4-.3.7,0,1,.2.3.6.5.9.7.8.5,1.5.8,2.3,1.2.4.1.8,0,1.1-.2.7-.4,1.4-1.3,1.9-1.9v-.2s0-.2-.1-.2c-.2-.2-.3-.3-.5-.5h-.3c-.6.6-1.2,1.2-1.8,1.8-.3-.2-.6-.4-1-.6-.3-.2-.7-.3-.9-.6-.1-.1-.3-.3-.2-.5,0-.2.2-.3.3-.5.4-.6.8-1.2,1.2-1.8.3-.4.7-.8,1-1.2,1.3.3,2.4.8,3.5,1.6,0,0,.4.4.5.4.2.2.3.3.5.5s.4.4.5.6c0,.1.3.4.3.5,0,.2-.3.6-.5.7-.3.3-.5.6-.8.9-.5.6-1.1,1.1-1.6,1.7-.2.2-.4.4-.7.7-.5.5-.9,1-1.5,1.4s-1.2.6-1.9.6h-64c-21.9,0-43.9,0-65.8.1h-33.8c-.6,0-1.2.1-1.8,0-.5,0-1.1-.5-1.5-.7-.5-.3-1-.6-1.4-1-.3-.3-.6-.6-.9-.9,0,0-.1-.2-.2-.3-.4-3.2-1-11-1.4-14.2-.2-1.6-.5-3.2-.7-4.7-.1-.8-.2-1.5-.3-2.3-.1-.9-.2-1.8-.6-2.6,0-.1-.5,0-.5.2-.3,1.5.2,3.2.4,4.7.2,1.7.4,3.3.6,5,.3,2,.7,8.6,1,10.6.1,1,.3,2,.4,3.1.1.8.6,1.4,1.2,2,.6.6,1.3,1,2,1.5.5.4,1.1.3,1.7.3h63.9c22,0,43.9-.1,65.9-.1,12.5,0,24.9-.2,37.4-.2.5,0,1-.5,1.4-.8.5-.4.9-.7,1.3-1.2.6-.6,1.2-1.3,1.7-2s1.1-1.3,1.6-1.9v-.1h0c.2-.2.4-.5.3-.8,0-.4-.4-.7-.7-.9l.2-.4Z"/>
              <path class="cls-1" d="M220.6,21.42c-.4-.6-1.1-1-1.6-1.5-.4-.4-1-.3-1.6-.3h-67.5c-22,0-43.9.1-65.9.1-12.5,0-24.9.2-37.4.2-.5,0-1,.5-1.4.8-.5.4-.9.7-1.3,1.2-.6.6-1.2,1.3-1.7,2s-1.1,1.3-1.6,1.9v.1h0c-.2.2-.4.5-.3.8,0,.4.4.7.7.9.3.3.6.6.9.8,1.3,1,2.7,1.7,4.3,2h.3c.3,0,.6-.2.9-.4,1.3-1,2.4-2.4,3.2-3.9.2-.4.3-.7,0-1-.2-.3-.6-.5-.9-.7-.8-.5-1.5-.8-2.3-1.2-.4-.1-.8,0-1.1.2-.7.4-1.4,1.3-1.9,1.9v.2s0,.2.1.2c.2.2.3.3.5.5h.3c.6-.6,1.2-1.2,1.8-1.8.3.2.6.4,1,.6.3.2.7.3.9.6.1.1.3.3.2.5,0,.2-.2.3-.3.5-.4.6-.8,1.2-1.2,1.8-.3.4-.7.8-1,1.2-1.3-.3-2.4-.8-3.5-1.6,0,0-.4-.4-.5-.4-.2-.2-.3-.3-.5-.5s-.4-.4-.5-.6c0-.1-.3-.4-.3-.5,0-.2.3-.6.5-.7.3-.3.5-.6.8-.9.5-.6,1.1-1.1,1.6-1.7.2-.2.4-.4.7-.7.5-.5.9-1,1.5-1.4s1.2-.6,1.9-.6h64c21.9,0,43.9,0,65.8-.1h37.3c.6,0,1.2-.1,1.8,0,.5,0,1,.5,1.3.7.4.3.8.6,1.2,1,.3.3.5.6.7.9,0,0,0,.2.2.3-.3,3.2-.7,6.4-1,9.5-.2,1.6-.3,7.7-.4,9.3,0,.8-.1,1.5-.2,2.3,0,.9-.2,1.8,0,2.6,0,.1.5,0,.5-.2.6-1.5.6-3.2.7-4.7.2-1.7.4-7.9.6-9.6.2-2,.4-4,.6-6,0-1,.2-2,.3-3.1,0-.8-.3-1.4-.7-2l-.5.5Z"/>
            </g>
            <g>
              <path class="cls-17" d="M192.3,37.12c.9-.5,2.1-.6,3.2-.4.5,0,1.2.4,1.4.6.2-1.7,1.3-2.8,2.7-3.8,1.7-1.2,3.3-1.9,5.3-1.2,1.6.6,3.8,1.8,4.1,3.7.3,1.8-1.2,3.2-2.2,4.5-.6.7-1.1,1.3-1.7,1.7,0,0,0,.1-.1.2-1.3,1.4-3.3.6-4.8-.2-1-.6-2.1-1.4-2.7-2.4h0c-.3.4-.5.8-1,1.1-.5.3-1.2.5-1.8.6-.8.2-2.1-.5-2.5-1.2-.3-.5-.6-1.3-.6-1.9,0-.7.3-1.1.9-1.4l-.2.1Z"/>
              <path class="cls-17" d="M192.8,46.32c.4-.4,1.1-.6,1.6-.7.8-.2,1.5,0,2.3.2.4.1,1,.3,1.3.8.2.5.4.9.1,1.4-.3.4-.7.7-1.1.8-.7.2-1.6.2-2.3.1-.6,0-1.3-.4-1.7-.8-.5-.5-.5-1.3,0-1.8h-.2Z"/>
              <path class="cls-17" d="M211.9,34.92c.1-.3.4-.6.6-.8.2-.3,1.3.3,1.3.6s0,.7-.1,1-.5.5-.8.6c-.2,0-.7-.2-.8-.4-.1-.3-.2-.7-.1-1h-.1Z"/>
              <path class="cls-17" d="M184.2,51.22c.1-.1.1-.2.2-.4.1-.1.3-.2.4-.3.4-.2.9-.2,1.3-.3.3,0,.6,0,.8.2.1,0,.6.4.5.6-.2.3-.4.7-.8.8-.6.2-1.1,0-1.7,0-.1,0-1-.4-.8-.6h.1Z"/>
              <path class="cls-4" d="M191.7,40.02c.5.6,1,1.3,1.8,1.5h.8c1.2,0,2.4-.8,3-1.8.5,1,1.5,1.7,2.4,2.3.7.5,1.4.9,2.2,1.1.7.1,1.3,0,2-.1.6,0,1-.5,1.4-1,1.4-1.6,2.7-3.2,3.5-5.2,0,1.1-.6,2.2-1.3,3.1-1.1,1.5-2.1,3-3.4,4.3-.8,0-1.8,0-2.6-.2-.4-.2-.8-.4-1.2-.7-1.1-.7-2.2-1.5-3-2.5.2.3-2.5,1-2.8,1.1-1.9.5-2.1-.5-3-2l.2.1Z"/>
              <path class="cls-4" d="M192.5,47.02c0,.7.6,1.2,1.2,1.5,1,.4,4.8.9,4.3-1.1.2.8-.1,1.6-.9,1.9-1,.4-2,.4-3,0-1-.3-1.7-1.3-1.7-2.4l.1.1Z"/>
            </g>
            <path class="cls-17" d="M62.4,44.42c-.2-.3-.6-.4-.9-.5-.2,0-.4-.2-.5-.4-.3-.3-1.1,0-1.4.1-.4.1-1,.4-1.2.8,0,.3-.1.5-.3.7,0,.1-.1.3-.1.4-.3-.6-.8-1.1-1.2-1.5-1.8-1.9-5-2-6.9,0-1.5,1.6-.8,4.4,1.1,5.4,1.6.9,4.8,1.1,6.2-.4.6-.6,1.2-1.8,1-2.7v-.2c.1.1.3.2.5.2.6.2,1.5,0,2-.2.6-.2,2.2-.9,1.6-1.8l.1.1Z"/>
            <path class="cls-17" d="M58.4,25.12h-.1c-.3,0-.6.1-.9.3-1.1.6-1.9,1.4-1.7,2.7,0,.4,1.2.2,1.4.1,1.6-.4,3.5-1.4,3.9-3.2.2-1-2.3,0-2.5,0l-.1.1Z"/>
            <path class="cls-17" d="M96.6,48.32c-.6-.5-1.3-.6-2-.5-.4,0-.9.2-1.3.4h0c-.2,0-.6,0-.8.3s-.5.5-.6.9c0,.3,0,.6.2.9.2.5.9.8,1.4,1,.8.3,1.7,0,2.4-.3.5-.2,1.5-.6,1.5-1.3,0-.5-.3-.9-.7-1.3l-.1-.1Z"/>
            <path class="cls-17" d="M89.8,50.42c0-.1-.1-.2-.3-.2h-1c-.4,0-.7.1-1,.4-.1.1-.3.3-.4.5v.3s.2,0,.3.1c.3.1.7,0,1,0,.4-.1.8-.3,1.1-.5.1-.1.2-.3.2-.5v-.1h.1Z"/>
            <path class="cls-17" d="M120.4,49.62v-.1s0-.1-.2-.2h-1.2c-.3,0-.8.2-1,.5,0,.1-.2.3-.1.4,0,.2.4.2.6.2h1.1c.2,0,.4-.1.6-.3.1,0,.3-.2.3-.3v-.1h0l-.1-.1Z"/>
            <path class="cls-17" d="M55,40.32h-.5c-.1,0-.3,0-.4.1h-.3c-.1,0-.2.1-.3.2v.2h0s0,.1.2.1h.8c.2,0,.4-.2.6-.3,0,0,0-.1.1-.2v-.1h-.2Z"/>
            <path class="cls-17" d="M179.3,25.12c-.2-.3-.6-.5-.9-.6-.4-.1-.8-.2-1.3-.1-.6,0-1.3.3-1.6.7-.2.3-.3.4-.2.7,0,.2,0,.3.2.4.2.2.5.4.8.5.4.1,1,.1,1.5,0,.4,0,.9-.2,1.2-.5.2-.3.6-.7.3-1v-.1Z"/>
            <path class="cls-17" d="M188.9,26.12s-.1-.1-.2-.1h-.8s-.2.1-.2.2v.2s.1.1.2.1c.2.1.4,0,.6.1.1,0,.4,0,.4-.2v-.4.1Z"/>
            <path class="cls-4" d="M58.2,46.52c0,.9-.4,1.8-1,2.5-.2.2-.5.5-.8.6-.6.3-1.3.4-2,.4-1.1,0-2.3-.2-3.3-.8-1-.6-1.8-1.6-1.9-2.7.1,1.2.7,2.2,1.7,2.8s2.1,1,3.2,1.4c.3,0,.7.2,1,.1.3,0,.6-.3.9-.5.5-.4,1-.8,1.4-1.4.6-.7.9-1.7.9-2.6l-.1.2Z"/>
            <path class="cls-4" d="M62.6,44.82c-.2.4-.5.8-.9,1-.3.2-.6.3-.9.4-.4.1-.8.2-1.2.3h-.8c.2,0,.4.2.6.2s.4.1.6.1c.3,0,.6,0,.9-.2.8-.4,1.4-1.1,1.9-1.9l-.2.1Z"/>
            <path class="cls-4" d="M60.8,25.22c-.4,1.4-2,2.2-3.3,2.6-.3,0-2.5.7-1.9-.4-.4.3-.2.9.2,1.1s.9.2,1.3,0c1-.3,1.9-1,2.7-1.8.4-.4.9-1,.9-1.6l.1.1Z"/>
            <path class="cls-4" d="M97.3,49.22c0,.4-.3.7-.6.9-.1,0-.3.2-.4.2-.6.3-1.1.5-1.7.6-.6,0-1.2,0-1.8-.2-.2,0-.5-.1-.6-.3-.3-.3-.3-.7-.2-1.2-.1.5-.2,1,0,1.4.2.5.7.8,1.2.9s1,0,1.5,0c.6-.1,1.2-.4,1.7-.8s1-1,1.1-1.6l-.2.1Z"/>
            <path class="cls-4" d="M179.4,25.22c0,.2-.1.4-.2.6-.1.1-.2.2-.4.3-.9.6-2.1.6-3,0-.1,0-.3-.2-.4-.4s-.1-.4,0-.5c-.1.4,0,.9.3,1.2s.8.5,1.2.6c.3,0,.6.1.9,0,.4,0,.8-.3,1.1-.7.3-.3.5-.9.7-1.3l-.2.2Z"/>
          </g>
        </g>
      </g>
    </g>
  </g>
</svg>