<?xml version="1.0" encoding="UTF-8"?>
<svg xmlns="http://www.w3.org/2000/svg" xmlns:xlink="http://www.w3.org/1999/xlink" viewBox="0 0 268.28 121.27">
  <defs>
    <style>
      .cls-1 {
        fill: #904b4f;
      }

      .cls-1, .cls-2, .cls-3, .cls-4, .cls-5, .cls-6, .cls-7, .cls-8, .cls-9, .cls-10, .cls-11 {
        stroke-width: 0px;
      }

      .cls-2 {
        fill: url(#linear-gradient);
      }

      .cls-3 {
        fill: url(#radial-gradient);
      }

      .cls-4 {
        fill: #d7bdcf;
      }

      .cls-4, .cls-12, .cls-11 {
        isolation: isolate;
      }

      .cls-4, .cls-11 {
        mix-blend-mode: multiply;
      }

      .cls-5 {
        fill: #f0c996;
      }

      .cls-6 {
        fill: #6f71c7;
      }

      .cls-7 {
        fill: #e0a186;
      }

      .cls-8 {
        fill: url(#linear-gradient-4);
      }

      .cls-9 {
        fill: url(#linear-gradient-2);
      }

      .cls-10 {
        fill: url(#linear-gradient-3);
      }

      .cls-11 {
        fill: #f2e4d7;
      }
    </style>
    <linearGradient id="linear-gradient" x1="133.43" y1="560.24" x2="134.83" y2="707.94" gradientTransform="translate(0 -578)" gradientUnits="userSpaceOnUse">
      <stop offset="0" stop-color="#b64349"/>
      <stop offset=".7" stop-color="#5b1135"/>
      <stop offset="1" stop-color="#4b3884"/>
    </linearGradient>
    <linearGradient id="linear-gradient-2" x1="134.11" y1="622.33" x2="138.11" y2="946.23" gradientTransform="translate(0 -578)" gradientUnits="userSpaceOnUse">
      <stop offset="0" stop-color="#c66261"/>
      <stop offset="1" stop-color="#5d1930"/>
    </linearGradient>
    <linearGradient id="linear-gradient-3" x1="135.32" y1="750.34" x2="134.82" y2="568.64" gradientTransform="translate(0 -578)" gradientUnits="userSpaceOnUse">
      <stop offset="0" stop-color="#b64349"/>
      <stop offset="1" stop-color="#5b1135"/>
    </linearGradient>
    <linearGradient id="linear-gradient-4" x1="195.4" y1="692.64" x2="195.4" y2="689.64" xlink:href="#linear-gradient-3"/>
    <radialGradient id="radial-gradient" cx="137.58" cy="563.04" fx="137.58" fy="563.04" r="339.8" gradientTransform="translate(0 -578)" gradientUnits="userSpaceOnUse">
      <stop offset="0" stop-color="#e4a482"/>
      <stop offset="1" stop-color="#865f6a"/>
    </radialGradient>
  </defs>
  <g class="cls-12">
    <g id="Layer_2" data-name="Layer 2">
      <g id="Layer_1-2" data-name="Layer 1">
        <g>
          <path class="cls-6" d="M268.18,60.94h0c0-2.7-.1-5.2-.2-7.8,0-.5-.2-8.4-1.5-7.5,1.9-1.3.8-5.4.7-7.2-.3-2.8-.7-5.6-1.3-8.4-.4-1.8-1.2-3.7-3.2-4.3-2.3-.7-5.5-.2-7.9,0-3.2,0-6.5-.5-9.6.3-.2-1.8-1.5-2.4-2.4-3.7-.8-1.2-1.2-2.7-1.5-4.2-.6-3-.4-6-.5-9,0-1.3.2-3.2-.9-4.1-1.7-1.5-5-1.7-7.2-2-2.5-.3-5-.4-7.5-.6-5.3-.3-10.6-.4-15.9-.5-9.3-.3-18.6-.5-28-.7-3.8,0-47.2-.7-47.2-.5h-10.6c-.7.3-1.3,1.2-1.9,1.4-.8,0-2.7-1-3.6-1.2-2.4-.4-4.9,0-7.3,0h-10.6c-4.4,0-8.8,0-13.2.2-9.3.2-18.6.4-28,.7-5.3.2-10.6.2-15.9.5-2.4.2-5,.3-7.5.6-2.2.3-5.5.5-7.2,2-1.1.9-.9,2.8-.9,4.1,0,5.3.7,14.1-5.9,16.2-2.6.8-5.3.5-8,.4-2.4,0-5.6-.6-7.9,0-1.9.6-2.7,2.5-3.2,4.3-1.3,5.1-1.5,10.5-1.9,15.8,0,1.8-.2,3.6-.2,5.3s-.8,5.7.3,8c.7,1.5-.4,3-.5,4.5,0,1.6,0,3.3.2,5,0,3-.3,6.5.9,9.2.4.8-.3,1.6-.4,2.4,0,1.3.2,2.8.3,4.1.3,2.6.6,5.1,1.3,7.6.4,1.8,1.2,3.7,3.2,4.3,2.3.7,5.5.2,7.9.1,2.6,0,5.4-.4,8,.4,6.6,2.1,5.8,10.8,5.9,16.2,0,1.3-.2,3.2.9,4.1,1.7,1.5,5,1.7,7.2,2,2.5.3,5,.4,7.5.6,5.3.3,10.6.4,15.9.5,9.3.3,18.6.5,28,.7,3.8,0,47.2.7,47.2.5s18.3-.2,19.5-.2c1.7,0,4,.6,5.1-.9,0,0,.2-.2.3-.2h.2c.7.3,1.4.9,2.1,1.1.7.1,1.5,0,2.2,0h17.9c9.3-.2,18.6-.4,28-.7,5.3-.2,10.6-.2,15.9-.5,2.4-.2,5-.3,7.5-.6,2.2-.3,5.5-.5,7.2-2,1.1-.9.9-2.8.9-4.1.1-5.3-.7-14.1,5.9-16.2,2.6-.8,5.3-.5,8-.4,2.4,0,5.6.6,7.9-.1,1.9-.6,2.7-2.5,3.2-4.3.6-2.3,1.3-4.8.6-7.1,1.4,0,1.2-7.5,1.3-8.7,0-1.1.5-12,.5-15h0v-.5l-.1.1Z"/>
          <path class="cls-2" d="M268.18,60.24h0c0-2.7-.1-5.2-.2-7.8,0-.5-.2-8.4-1.5-7.5,1.9-1.3.8-5.4.7-7.2-.3-2.8-.7-5.6-1.3-8.4-.4-1.8-1.2-3.7-3.2-4.3-2.3-.7-5.5-.2-7.9,0-3.2,0-6.5-.5-9.6.3-.2-1.8-1.5-2.4-2.4-3.7-.8-1.2-1.2-2.7-1.5-4.2-.6-3-.4-6-.5-9,0-1.3.2-3.2-.9-4.1-1.7-1.5-5-1.7-7.2-2-2.5-.3-5-.4-7.5-.6-5.3-.3-10.6-.4-15.9-.5-9.3-.3-18.6-.5-28-.7-3.8,0-47.2-.7-47.2-.5h-10.6c-.7.3-1.3,1.2-1.9,1.4-.8,0-2.7-1-3.6-1.2-2.4-.4-4.9,0-7.3,0h-10.6c-4.4,0-8.8,0-13.2.2-9.3.2-18.6.4-28,.7-5.3.2-10.6.2-15.9.5-2.4.2-5,.3-7.5.6-2.2.3-5.5.5-7.2,2-1.1.9-.9,2.8-.9,4.1,0,5.3.7,14.1-5.9,16.2-2.6.8-5.3.5-8,.4-2.4,0-5.6-.6-7.9,0-1.9.6-2.7,2.5-3.2,4.3-1.3,5.1-1.5,10.5-1.9,15.8,0,1.8-.2,3.6-.2,5.3s-.8,5.7.3,8c.7,1.5-.4,3-.5,4.5,0,1.6,0,3.3.2,5,0,3-.3,6.5.9,9.2.4.8-.3,1.6-.4,2.4,0,1.3.2,2.8.3,4.1.3,2.6.6,5.1,1.3,7.6.4,1.8,1.2,3.7,3.2,4.3,2.3.7,5.5.2,7.9.1,2.6,0,5.4-.4,8,.4,6.6,2.1,5.8,10.8,5.9,16.2,0,1.3-.2,3.2.9,4.1,1.7,1.5,5,1.7,7.2,2,2.5.3,5,.4,7.5.6,5.3.3,10.6.4,15.9.5,9.3.3,18.6.5,28,.7,3.8,0,47.2.7,47.2.5s18.3-.2,19.5-.2c1.7,0,4,.6,5.1-.9,0,0,.2-.2.3-.2h.2c.7.3,1.4.9,2.1,1.1.7.1,1.5,0,2.2,0h17.9c9.3-.2,18.6-.4,28-.7,5.3-.2,10.6-.2,15.9-.5,2.4-.2,5-.3,7.5-.6,2.2-.3,5.5-.5,7.2-2,1.1-.9.9-2.8.9-4.1.1-5.3-.7-14.1,5.9-16.2,2.6-.8,5.3-.5,8-.4,2.4,0,5.6.6,7.9-.1,1.9-.6,2.7-2.5,3.2-4.3.6-2.3,1.3-4.8.6-7.1,1.4,0,1.2-7.5,1.3-8.7,0-1.1.5-12,.5-15h0v-.5l-.1.1Z"/>
          <path class="cls-9" d="M265.98,60.14v.2c0,3-.4,13.7-.5,14.9v.8c-.1,1.6,0,3.5-.3,5.1,0,.3,0,.5-.2.7-.2.8-.6,1.3-.6,2.2s.2,1.6,0,2.5c-.2,1.4-.5,2.8-.8,4.1-.5,2.2-1.2,2.6-1.7,2.7-.6.2-1.4.3-2.4.3s-1.8,0-2.7-.1c-.7,0-1.4-.1-2.1-.1h-4c-1.9,0-3.4.2-4.7.6-7.4,2.3-7.4,10.8-7.4,16.4v2.5c0,.5,0,1.6-.2,1.8-.9.8-3.4,1.1-5.1,1.3h-.9c-2,.4-4.1.5-6.1.6h-1.3c-3.8.3-7.7.4-11.5.5-1.4,0-2.9,0-4.3.1-8.2.2-17.9.5-27.9.7-3.4,0-6.7.1-10.1.2-2.9,0-5.8.1-8.7.1s-2.1-.5-3.4-.8c-1.2-.2-1.4.4-2.4.8-.9.3-2.3.1-3.3.1h-17.4c-3.4,0-1.3,0-1.6,0h-2.2c-8.4,0-42.2-.5-45.3-.6-4,0-8.2-.5-12.1-.5,0-.9.3-1.8.7-2.6-1,1-1.4,2.4-2.7,2.7-1.4.4-3.6,0-5-.1-2.9,0-5.9-.2-8.8-.2s-2.9,0-4.3-.1c-3.8,0-7.7-.2-11.5-.4h-1.3c-2-.2-4.1-.3-6.1-.6h-.9c-1.7-.3-4.1-.6-5.1-1.4v-4.3c0-5.6,0-14.1-7.4-16.4-1.4-.4-2.8-.6-4.7-.6h-4c-.6,0-1.3,0-2.1.1-.9,0-1.9.1-2.7.1s-1.8,0-2.4-.3c-.5-.1-1.1-.6-1.7-2.7-.6-2.5-1-5.1-1.3-7.8v-.9c0-.9-.3-1.9-.2-2.7,0-.6.6-1.2.7-1.9v-.4c0-.3-.2-.5-.3-.7-.2-.3-.4-.7-.5-1.1-.7-2.1-.5-4.9-.6-7.1,0-1.3-.2-2.5-.2-3.8s0-2.3.2-3.4c0-.6.2-1.2.4-1.9v-.7c-.9-2.2-.3-5.2-.2-7.7,0-1.8,0-3.5.2-5.3v-.8c.4-4.9.7-9.9,1.8-14.6.5-2.1,1.2-2.6,1.7-2.7.6-.2,1.4-.3,2.4-.3h8.8c1.9,0,3.4-.2,4.7-.6,7.4-2.3,7.4-10.8,7.4-16.4v-2.5c0-.5,0-1.6.2-1.8,1-.8,3.4-1.1,5.1-1.3h.9c2-.4,4.1-.5,6.1-.6h1.3c3.8-.3,7.7-.4,11.5-.5h4.3c8.2-.2,18-.5,27.9-.7,4.8,0,9.5,0,14.3-.2,3.8,0,7.7,0,11.6-.2,1.8,0,3.9-.3,5.7,0,1.1.2,2.3.6,3.4.4,1.3-.2,2.1-.4,3.4-.4h6.9c2.3,0,1.3,0,1.6,0h2.2c8.4,0,42.2.5,45.3.5,10,.2,19.7.5,27.9.7h4.3c3.8,0,7.7.2,11.5.4h1.3c2,.2,4.1.3,6.1.6h.9c1.6.3,4.1.6,5.1,1.4.1.2.1,1.2.1,1.8v2.5c0,2.9,0,5.9.7,8.7.4,1.5.9,2.9,1.8,4.2,1,1.5,2.1,1.9,2.4,3.7,0,.3.2.6.4.6h.4c1.8-1.2,4.3,0,6.5,0h8.8c.9,0,1.8,0,2.4.3.5,0,1.1.6,1.7,2.7.9,3.5,1.2,7.1,1.5,10.6,0,.7.2,1.5,0,2.2v.2c-.2.7-.6,1.1-.4,1.9,0,.1,0,.2.2.4.3.5.7.9.9,1.5.2,1.2-.2,2.9-.1,4.2.1,3.1.3,6.2.3,9.3h.1l-.3-.1Z"/>
          <path class="cls-10" d="M260.58,69.34c.2,1.2-1.2,3.2-1.4,4.5-.2,1.4-.2,2.8-.3,4.2v1.1c0,1.6-.2,3.5-1,5.1-.6,1.1-1.4,1.9-2.5,2.3-.7.2-1.4.3-2.4.3s-1.4,0-2.1-.1h-2.4c-.8,0-1.7,0-2.4.1-2.2.2-5.3,1-7.7,3.1-1.8,1.7-3,4.1-3.5,7.5-.4,2.8-.8,6-1,9.8,0,.3,0,1.2-.8,1.9-.7.7-1.5.8-1.8.8-3.4.3-6.8.3-10,.4h-2.8c-4.2,0-8.4.1-12.7.2-2.6,0-5.3-.5-7.6,1.1-.8.5-1.6,1.1-2.3,1.7-.1-.3-.2-.5-.3-.7,0-.1.2-.3.3-.4.2-.3.4-.8.3-1.2-.3-1-5.3-.4-6.3-.4h-78.3c-1.6,0-3.4-.1-4.2,1.7,0,.1-.1.2-.2.3h-.3c-1.4-.6-3.1-1.6-4.6-1.9-1.3-.3-2.9,0-4.3,0h-35c-4.2,0-8.4,0-12.6-.2h-2.9c-3.3,0-6.6,0-10-.4-.3,0-1.1-.1-1.8-.8-.7-.7-.8-1.6-.8-1.9-.2-3.8-.6-7-1-9.8-.2-1.6-.7-3.1-1.4-4.6-.6-1.2-1.7-2.1-1.9-3.4v-.2l-.2-.1c-.6-.2-1.2-.2-1.8-.5-.7-.4-1.4-.7-2.1-1-1.2-.4-2.5-.7-3.8-.9-.8,0-1.6-.1-2.4-.1h-2.4c-.6,0-1.3.1-2.1.1s-1.8-.1-2.4-.3c-1.1-.4-1.9-1.2-2.5-2.3-.8-1.7-.9-3.5-1-5.1v-1.1c-.2-1.9-.3-4-.4-6-.2-3.4-.2-7-.2-11.1v-1.4c0-4.1,0-7.8.2-11.2,0-2.1.2-4.1.4-6v-1.1c0-1.6.2-3.5,1-5.1.6-1.1,1.4-1.9,2.5-2.3.6-.2,1.4-.3,2.4-.3h6.9c1.8-.2,9.2-1.9,8.4-4.6-.5-1.5,1-1.1,1.7-1.9.8-.9,1-3,1.1-4.1.5-2.8.8-6,1-9.8,0-.3,0-1.2.8-1.9.7-.7,1.5-.8,1.8-.8,3.4-.3,6.8-.4,10-.4h2.9c4.2,0,8.4,0,12.6-.2h5.3c1.2,0,2.8,0,3.8-.7.4-.3.8-.9,1.3-1.1-.2.4-.4.8-.6,1.2v.4c0,.2.4.3.6.3h3.1c4,.2,8.3-.2,12.4-.2h44.8c9.1,0,1.7-.4,2.4-1.1.4-.4,1.1-.8,1.6-.5-.1.8.8,1.4,1.6,1.5,8.7.6,17.7.5,26.3-.6.2,0,.4,0,.5-.3v-.4c-.3-1-.7-1.9-1-2.9.7,1.2,1.5,2.4,2.2,3.6,0,0,.2.3.3.3h.4c4-.3,8.2,0,12.3,0h25.6c4.2,0,8.4,0,12.7.2h2.8c3.3,0,6.6,0,10,.4.3,0,1.1,0,1.8.8.7.7.8,1.6.8,1.9.1,1.8,0,2.7,1.2,4,.6.7-.6,1.9-.6,2.5-.1.9.3,2.3.5,3.3.5,3.4,1.7,5.8,3.5,7.5,2.4,2.1,5.5,2.9,7.7,3.1h6.9c.8,0,1.8,0,2.4.3,1.1.4,1.9,1.2,2.5,2.3.8,1.7.9,3.5,1,5.1v1.1c.2,1.9.3,4,.4,6v1.4c.1,3,.2,6.2.1,9.7v1.4c0,1.8-.2,3.7,0,5.5,0,1.2,1,1.9,1.2,2.9l-.2.4v.1Z"/>
          <path class="cls-8" d="M195.68,113.24c-.1,0-.3.2-.4.3-.3-.3-.1-.7.1-1,0,.2.1.4.3.7h0Z"/>
          <path class="cls-3" d="M257.28,63.04c0,2.9,0,5.9-.2,8.9,0,2-.2,4-.4,5.9-.2,1.7,0,3.8-.9,5.4-.3.5-.7,1-1.3,1.2-1.2.4-3.1.1-4.3,0h-4.5c-3.2.4-6.5,1.4-8.9,3.7-2.5,2.3-3.7,5.5-4.2,8.8s-.8,6.7-1,10c0,.2,0,.4-.1.5s-.3.1-.5.1c-4.3.4-8.4.3-12.7.4-4.2,0-8.4.1-12.6.2h-25.6c-14.8,0-31-.2-45.7-.2s-31,.1-45.7.2h-25.6c-4.2,0-8.4,0-12.6-.2-4.3,0-8.4,0-12.7-.4-.2,0-.3,0-.4-.1s0-.3-.2-.5c-.2-3.3-.5-6.8-1-10-.5-3.3-1.7-6.5-4.2-8.8-2.5-2.2-5.7-3.3-8.9-3.7-1.5-.2-3-.2-4.5,0-1.2,0-3.2.4-4.3,0-.6-.2-1-.7-1.3-1.2-.8-1.6-.7-3.6-.9-5.4-.2-2-.3-4-.4-5.9-.2-3.7-.2-7.4-.2-11h0v-1.4h0c0-3.7,0-7.4.2-11,0-2,.2-4,.4-6v-.8c0-1.5,0-3.3.8-4.6.3-.5.7-1,1.3-1.2,1.2-.4,3.1,0,4.3,0h4.5c3.3-.4,6.5-1.4,8.9-3.7,2.5-2.3,3.7-5.5,4.2-8.8s.8-6.7,1-10c0-.2,0-.4.2-.5,0,0,.3,0,.4-.2,4.3-.4,8.4-.3,12.7-.4,4.2,0,8.4,0,12.6-.2h25.6c14.8,0,31,.2,45.7.2s31,0,45.7-.2h25.6c4.2,0,8.4,0,12.6.2,4.3,0,8.4,0,12.7.4.2,0,.3,0,.5.2s.1.3.1.5c.2,3.3.5,6.8,1,10,.5,3.3,1.7,6.5,4.2,8.8,2.5,2.2,5.7,3.3,8.9,3.7,1.5.2,3,.2,4.5,0,1.2,0,3.2-.4,4.3,0,.6.2,1,.7,1.3,1.2.8,1.6.7,3.6.9,5.4v1.1c.1,1.6.2,3.3.3,4.9.2,3.7.2,7.4.2,11v3.6h.2v-.1Z"/>
          <path class="cls-7" d="M3.18,75.14c-.7-2.1-.5-4.9-.6-7.1,0-1.3-.2-2.5-.2-3.8.2,1.1.4,2.1.4,3.1,0,2,.2,4,.3,6v1.8h.1Z"/>
          <path class="cls-7" d="M4.18,77.44c0,1.1-.9,2-.7,3.1v1.4c0-.9-.3-1.9-.2-2.7,0-.6.6-1.2.7-1.9h.2v.1Z"/>
          <path class="cls-7" d="M264.78,40.44c-.4-1.7-.8-3.5-1.1-5.3-.3-1.9-.1-3.6-.7-5.6-.7-2.4-2.3-1.6-4.1-1.7h-6.9c-2.4,0-3.2-.5-4.8-.6-1.4,0-2.4.4-3.7.7-.4-.7-.7-1.7-1.2-2.4-.5-.7-1.3-1-1.7-1.7-.9-1.2-1.2-3.2-1.4-4.6-.6-3.3-1.6-6.5-1.1-9.9.1-.7.7-2.2.4-2.9-.5-.9-2.8-1.3-3.7-1.4-1.9-.3-3.8-.3-5.7-.5-3-.4-6,0-9.1-.2-5.6-.3-11.3-.4-16.9-.9-3.5-.3-7,.2-10.5,0-4-.3-8.1-.2-12.1-.3h-13c-7,0-14.1-.6-21.1-.6s-9.3-.3-14,0c-3.1.2-5.7.2-8.8.3-1.4,0-2.8.4-4.2.3-1.2,0-2.3-.2-3.5-.3-2.2-.2-4.4,0-6.5,0h-9.6c-3.2,0-3.5.4-5.2.5-5.2.2-10.5,0-15.7,0s-7.8,0-11.6.4c-3.6.5-7.4-.3-11,0-4.5.4-9.1.4-13.6.4s-5.4-.3-7.8.6c-1.1.4-3.5.4-4.1,1.6-.3.6,0,2,0,2.7,0,3.7.5,8.1-1.3,11.5-2.1,3.8-3.9,6.4-8.4,6.6-2,0-3.9.3-5.8.3s-4.7-.3-6.9,0c-.9.2-1.4,0-1.9.8-1.9,2.1-1.8,6.8-2.1,9.5-.5,4.7-.8,9.4-1,14.1,0,1.8-.3,3.5,0,5.2,0,.8.4,1.4,0,2.2,0,.4-.4.8-.7,1.2,0-.6.2-1.2.4-1.9v-.7c-.9-2.2-.3-5.2-.2-7.7,0-1.8,0-3.5.2-5.3v-.8c.4-4.9.7-9.9,1.8-14.6.5-2.1,1.2-2.6,1.7-2.7.6-.2,1.4-.3,2.4-.3h8.8c1.9,0,3.4-.2,4.7-.6,7.4-2.3,7.4-10.8,7.4-16.4v-2.5c0-.5,0-1.6.2-1.8,1-.8,3.4-1.1,5.1-1.3h.9c2-.4,4.1-.5,6.1-.6h1.3c3.8-.3,7.7-.4,11.5-.5h4.3c8.2-.2,18-.5,27.9-.7,4.8,0,9.5,0,14.3-.2,3.8,0,7.7,0,11.6-.2,1.8,0,3.9-.3,5.7,0,1.1.2,2.3.6,3.4.4,1.3-.2,2.1-.4,3.4-.4h6.9c2.3,0,1.3,0,1.6,0h2.2c8.4,0,42.2.5,45.3.5,10,.2,19.7.5,27.9.7h4.3c3.8,0,7.7.2,11.5.4h1.3c2,.2,4.1.3,6.1.6h.9c1.6.3,4.1.6,5.1,1.4.1.2.1,1.2.1,1.8v2.5c0,2.9,0,5.9.7,8.7.4,1.5.9,2.9,1.8,4.2,1,1.5,2.1,1.9,2.4,3.7,0,.3.2.6.4.6h.4c1.8-1.2,4.3,0,6.5,0h8.8c.9,0,1.8,0,2.4.3.5,0,1.1.6,1.7,2.7.9,3.5,1.2,7.1,1.5,10.6,0,.7.2,1.5,0,2.2-.1-.9-.3-1.7-.5-2.2h0l-.1.1Z"/>
          <path class="cls-7" d="M265.98,60.14v.2c0,3-.4,13.7-.5,14.9v.8c-.1,1.6,0,3.5-.3,5.1,0,0,0,.1-.1.2-.4-1,.1-2.7.1-3.7v-6c-.1-3.1,0-6.1.3-9.2.2-1.8-.3-3.4-.3-5.2s0-4.3.1-6.4c0-.9-.4-5.5-.8-5.7h.4c.3.5.7.9.9,1.5.2,1.2-.2,2.9-.1,4.2.1,3.1.3,6.2.3,9.3h0Z"/>
          <path class="cls-7" d="M195.68,112.14c0,.1-.2.2-.3.4-.1-.5-.2-.8-1.4-1.1-1.1-.3-2.9.1-4.1.1-3.2,0-6.4.1-9.6,0-8.5-.4-17,0-25.5-.4-5.7-.3-11.3.5-17,.5s-6.1-.7-9.1-.4c-2.1.2-4.2.1-6.4.2-2.4.1-4.9.1-7.3.1s-4-.7-5.6.1c-.9.5-1,1.1-2,1.2-.9,0-2.4-.5-3.3-.8-.7-.3-1.2-.8-1.9-.9-3.5-.8-7.6.4-11.2.2-3.5-.2-7-.5-10.5-.5s-6.3.5-9.4.5c-5.5,0-11.1-.5-16.6,0-3.8.4-8,.2-11.8-.3-1.1-.1-2.1,0-3.2-.2-2.6-.3-5-.8-5.4-3.7-.5-3.4-.7-6.8-1.2-10.1-.4-2.7-1.3-5.5-3.6-7.3-.2-.1-1.1-.4-1.3-.5-.3-.2-.6-.4-1-.5-5-2.5-16.2,1.9-17.3-5.9-.3-2.4-.9-4.6-1-7v-6.2c0-3.4.2-6.6.3-9.8v1.3c0,4.1,0,7.7.2,11.1,0,2.1.2,4.1.4,6v1.1c0,1.6.2,3.5,1,5.1.6,1.1,1.4,1.9,2.5,2.3.7.2,1.4.3,2.4.3s1.4,0,2.1-.1h2.4c.8,0,1.7,0,2.4.1,1.3.1,2.6.4,3.8.9.7.3,1.4.6,2.1,1,.6.3,1.1.3,1.8.5,0,0,.2,0,.2.1v.2c.2,1.3,1.3,2.2,1.9,3.4s1.1,3,1.4,4.6c.5,2.8.8,6,1,9.8,0,.3,0,1.2.8,1.9.7.7,1.5.8,1.8.8,3.4.3,6.8.3,10,.4h2.9c4.2,0,8.4.1,12.6.2h35c1.4,0,3-.3,4.3,0,1.5.3,3.2,1.3,4.6,1.9h.3c.1,0,.2-.2.2-.3.8-1.8,2.5-1.7,4.2-1.7h78.3c3.3,0,6-.6,6.3.4.1.4,0,.8-.3,1.2v-.2h.1Z"/>
          <path class="cls-7" d="M259.98,73.24c-.9,2.3-1.1,4.3-1.1,6.7s.3,3.5-.5,5-2.4,1.2-3.5,2.3c-.8.8-4.1.6-5.2.6-1.5.1-3-.2-4.6-.1-1.8,0-3.1.9-4.4,2-1,.9-2.4,1.5-3.3,2.5-2.1,2.5-2,6.4-2.3,9.4-.3,3.2.4,7.2-3,9.1-1.8,1-5.2.4-7.3.5-3.2.1-6.4.2-9.5.2-5.2,0-10.5-1-15.6-.1-1.5.3-2.5,1.5-4,1.9h0c.7-.6,1.5-1.1,2.3-1.7,2.3-1.5,5-1,7.6-1.1,4.2,0,8.4,0,12.7-.2h2.8c3.3,0,6.6,0,10-.4.3,0,1.1-.1,1.8-.8.7-.7.8-1.6.8-1.9.2-3.8.6-7,1-9.8.5-3.4,1.7-5.8,3.5-7.5,2.3-2.1,5.5-2.9,7.7-3.1.8,0,1.6-.1,2.4-.1h2.4c.6,0,1.3.1,2.1.1s1.8-.1,2.4-.3c1.1-.4,1.9-1.2,2.5-2.3.8-1.7.9-3.5,1-5.1v-1.1c.1-1.4.1-2.8.3-4.2.2-1.3,1.5-3.3,1.4-4.5-.1-1-1.1-1.7-1.2-2.9-.1-1.8,0-3.7,0-5.5v-1.4c0-3.5,0-6.7-.1-9.7.2.6.3,1.3.4,1.9.2,2,.2,4.1.3,6.1.2,3.6-.2,6.8.5,10.3.4,1.8.2,3.5-.5,5.1h.2v.1Z"/>
          <path class="cls-4" d="M256.78,43.54c0,.1-.2.3-.3.4,0-2.1-1.8-3.7-3.7-4.4-2-.6-4.1-.5-6.1-.6-3.8-.2-7.6-1.3-10.8-3.4-3.1-2.2-5.5-5.6-6-9.4-.5-3.4-.5-6.9-1.1-10.3-.1-.7-4.8-1-5.4-1-1.8,0-3.6-.2-5.5-.2h-12.6c-9.3,0-18.7,0-28,.2-28.7.2-57.4.4-86.1.6-17.5,0-34.9.2-52.3,1.6.3,5.1-1.1,9.7-3,14.5-2.3,5.8-4.9,5.7-10.8,6.3-2.8.3-5.4.6-8.1.4-.9,0-2-.2-2.8.3-.9.5-1.9,1.9-2.3,3,0-1.5,0-3.3.8-4.6.3-.5.7-1,1.3-1.2,1.2-.4,3.1,0,4.3,0h4.5c3.3-.4,6.5-1.4,8.9-3.7,2.5-2.3,3.7-5.5,4.2-8.8s.8-6.7,1-10c0-.2,0-.4.2-.5,0,0,.3,0,.4-.2,4.3-.4,8.4-.3,12.7-.4,4.2,0,8.4,0,12.6-.2h25.6c14.8,0,31,.2,45.7.2s31,0,45.7-.2h25.6c4.2,0,8.4,0,12.6.2,4.3,0,8.4,0,12.7.4.2,0,.3,0,.5.2s.1.3.1.5c.2,3.3.5,6.8,1,10,.5,3.3,1.7,6.5,4.2,8.8,2.5,2.2,5.7,3.3,8.9,3.7,1.5.2,3,.2,4.5,0,1.2,0,3.2-.4,4.3,0,.6.2,1,.7,1.3,1.2.8,1.6.7,3.6.9,5.4v1.1h.4v.1Z"/>
          <path class="cls-11" d="M62.38,8.14h0v-.2h0s0-.3-.2-.3c0-.2-.4-.4-.6-.5-.2-.2-.4-.3-.6-.4,0,0-.2,0-.4-.2-.2,0-.3,0-.5-.2h-1.2s-.3,0-.3.2l-.2.2v.4h0v.5s0,.2.2.3c.2.2.4.5.7.6,0,0,.2.2.3.2.2,0,.4,0,.6.2h1.1c.3,0,.5,0,.8-.2,0,0,.5-.2.5-.4v-.2h-.2Z"/>
          <path class="cls-11" d="M64.58,7.94h0l-.2-.2h-1.3v.4h.9s.6,0,.4-.3h0l.2.1Z"/>
          <path class="cls-11" d="M190.58,4.04c-.4-.2-.9-.2-1.4,0-.6,0-1.2.3-1.8.6-.6.3-1.2.8-1.6,1.3,0,0-.1,0-.2.2-.2.2-.5.6-.6.9v.9c0,.3.2.5.4.7.3.3.9.2,1.3.2s1.1-.3,1.6-.5c.7-.3,1.4-.7,2-1.2.5-.4,1-1,1-1.7s-.4-1-.8-1.2h.1v-.2Z"/>
          <g>
            <path class="cls-11" d="M194.38,5.94h-.6c-.3,0-.6.2-.9.3h-.2c-.1,0-.3.2-.3.3h0v.2h1.2c.1,0,.3,0,.4-.2h.1s.03-.07.1-.2h0l.2-.3v-.1Z"/>
            <path class="cls-11" d="M193.08,5.94h-.2c.2,0,.3-.2.2,0h0Z"/>
          </g>
          <path class="cls-11" d="M180.48,5.94h0s-.1-.2-.2-.2h.1-1.1.1c.1,0-.2,0-.2.3h0v.3h1c.1,0,.2,0,.3-.2,0,0,.1,0,.2-.2h0v-.2h0v-.4h0l-.2.3v.3Z"/>
          <path class="cls-11" d="M157.68,6.74h-.1l-.3-.3h-.7v.3h0s.03,0,.1,0h1Z"/>
          <path class="cls-11" d="M36.88,7.24v-.2h-.2l-.2-.2h-.7s-.2,0-.3.2h0v.3h0v.4h1s.3,0,.4-.2c0,0,.2,0,.3-.2h0v-.3h-.3v.2Z"/>
          <path class="cls-11" d="M34.58,9.54h-.4v.2h.5l-.1-.2Z"/>
          <path class="cls-11" d="M9.78,35.54c0-.3-.2-.6-.4-.9,0-.2-.3-.3-.4-.4-.2-.2-.5-.2-.8-.2-.6,0-1.2.2-1.7.4-.4.2-.9.5-1.1.9v1h0v1.5c0,.1,0,.3.2.4,0,.1.2.3.3.4.3.2.7.2,1,.2.6,0,1.1-.3,1.6-.6.3-.2.6-.4.8-.7.4-.6.5-1.3.4-2h.1Z"/>
          <path class="cls-11" d="M10.28,33.04h0s0-.07,0-.2h-1s-.2,0-.2.2v.3h0v.4h.8s.2,0,.2-.2h0v-.5h.2Z"/>
          <path class="cls-11" d="M8.38,68.04c0-.2-.2-.3-.4-.3-.4,0-.8.1-1.1.3-.2,0-.4.2-.5.4h-.3c-.2.1-.4.3-.5.4,0,.2-.3.3-.3.5v.5c0,.2.4.1.6.1.6,0,1.2-.3,1.7-.6.3-.2.7-.5.9-.8,0-.1.2-.3.3-.5v-.4l-.4.4h0Z"/>
          <path class="cls-11" d="M7.28,77.04h0c0-.07,0-.13,0-.2h0s-.3,0-.4-.1h-.2l-.2.1c0,.1,0,.3-.2.4v.4h0c0,.1.2.1.2.1,0,.1,0,.2.2.2h.5s.3-.1.3-.3v-.4h0v-.2h-.2Z"/>
          <path class="cls-11" d="M26.68,92.44h0v-.3h0v-.2s0-.1-.2-.1l-.2-.1s-.2-.1-.3-.1h-.3s0-.1-.2-.1h-.9s-.3.1-.3.3h0v.2h0v.5s0,.2.2.2c0,0,0,.1.2.2,0,0,.2,0,.2.1,0,0,.2,0,.3.1h1.2c.2,0,.3-.1.5-.3h0v-.2l-.2-.2h0Z"/>
          <path class="cls-11" d="M28.38,92.94h-.8v.1h.4v-.1h0v-.3h0l.2.3h.2Z"/>
          <path class="cls-11" d="M22.18,88.84h0v-.3h0v-.2c-.2-.1-.4-.3-.6-.3s-.5-.2-.7-.2h-.9c-.2,0-.3,0-.5.1,0,0-.2,0-.2.1h0c-.2,0-.2.2,0,.2h0c0,.1,0,.2.2.2,0,0,.2.1.2.2,0,0,.2.1.2.2,0,0,.2,0,.3.1.2,0,.4.2.6.1h1.1c.2,0,.4,0,.5-.1,0,0,.3-.2.3-.3h0c0-.1-.3.2-.3.2h-.2Z"/>
          <path class="cls-11" d="M125.18,113.94c-.5-.4-1-.8-1.6-1-.7-.3-1.6,0-2.3.3-.3.2-.7.4-1,.7h-.1c0-.1-.1-.1-.2-.2,0,0,0-.1-.2-.2,0,0-.2,0-.2-.1,0,0-.1,0-.1-.1h-.5c.13,0,.17,0,.1,0-.2,0-.5,0-.6.1,0,0-.1,0-.2.1h-.2c0,.1-.2.2-.2.3h0v1h0s0,.1.1.2c0,0,.1.1.2.1h.9c-.1,0,0,0,0,0h.5c.2,0,.4-.1.5-.2,0,0,.1,0,.2-.1,0,0,.1,0,.2-.1,0,.5.4.9.8,1.2.3.3.6.5,1,.6,0,0,.1.1.2.1.5.3,1,.4,1.5.3.9,0,2-.4,2.6-1.2,0,0,.1-.2,0-.3-.2-.6-.7-1.1-1.2-1.6h-.2v.1Z"/>
          <path class="cls-11" d="M128.18,114.74h0l-.2-.2h-.1v.2h.3Z"/>
          <path class="cls-11" d="M115.38,114.54h0l-.2-.2h-.4s-.2,0-.2.1h0v.3h0c0,.1.3.1.3.1,0,.1.2.1.3,0,0,0,.2,0,.3-.2,0,0,0-.2.1-.3h0l-.2.2h0Z"/>
          <path class="cls-11" d="M99.58,113.94h-.7c-.2,0-.4,0-.5.1-.1,0-.3.1-.3.3h0v.2h.1c0,.07.03.1.1.1h1.1s.2,0,.2-.2h0v-.2s.1-.2,0-.2h0v-.1Z"/>
          <path class="cls-11" d="M64.28,112.54h-.7c-.3,0-.5.1-.8.2-.4.1-.7.3-1,.5-.2.2-.4.4-.6.6,0,.1-.2.3-.3.4,0,0-.2.2-.2.3v.7s0,.1.2.1h1.2s.2,0,.2-.1c0,0,.2,0,.2-.1h0s.2-.1.2-.2c.2-.2.4-.3.5-.5,0,0,0,.1-.2.2,0-.1.3-.3.4-.4,0,0,0-.2.2-.3,0,0,0-.2.2-.2h0c0-.1,0-.3.2-.4v.2c0-.1,0-.2.2-.3v-.2s0-.1-.2-.2l.4-.3h-.1Z"/>
          <path class="cls-11" d="M66.28,114.14h-.5s-.2,0-.3.1c0,0-.2,0-.3.2v.3h.6c.2,0,.4-.1.5-.2h0v-.4h0Z"/>
          <path class="cls-11" d="M205.28,113.24v-.7h0c-.1-.2-.2-.4-.4-.5l-.2-.2s-.2-.1-.3-.1h-.1c-.2-.1-.5,0-.7,0s-.2,0-.3.2c0,0-.2.1-.2.2v.2c-.1,0-.1.1-.1.2h0c-.1,0-.2.2-.1.4v.6c0,.1.1.2.2.3l.2.2.2.2h.2c.1,0,.3.2.4.3,0,0,.2,0,.3.1,0,0,.2,0,.3.1h.5s.2,0,.2-.1c0,0,.2-.1.2-.2v-.9l-.3-.3h0Z"/>
          <path class="cls-11" d="M207.98,114.04h0v-.2h0c0-.1-.1-.1-.2-.1,0,0-.1,0-.2.1,0,0,0,.2-.1.2h0v.2h0c0,.1.2.1.2.1h.1l.2-.3Z"/>
          <path class="cls-11" d="M211.48,114.34h0c0-.1-.1-.2-.2-.3h-.4s-.1,0-.1.1v.3h0v.2h.4s.1,0,.2-.1h0v-.2h0v-.2.2h.1Z"/>
          <path class="cls-11" d="M244.78,91.84v-.2s0-.2-.2-.2h-.1c0-.1-.2-.2-.3-.3h-.1c0-.1-.2-.1-.2-.1-.1,0-.2-.1-.4-.2h-.8c-.1,0-.3.1-.4.2,0,0-.1.1-.2.2h0c0,.2-.1.3-.2.4,0,0,0,.1-.1.2v.9s.1.2.2.2h.1c0,.1.2.1.3.2h1.6c.2,0,.5-.3.6-.5,0,0,.2-.2.2-.3h0c0-.1.2-.2.1-.4h-.1v-.1Z"/>
          <path class="cls-11" d="M247.78,91.14h-.3c-.1,0-.3,0-.4.2h-.1v.2h0c0,.1.1.1.2.1h.1c.1,0,.3,0,.4-.2,0,0,.1,0,.1-.1h0v-.2h0Z"/>
          <path class="cls-11" d="M263.18,49.24h0c0-.1,0-.2-.2-.2h-.5c-.2,0-.4.1-.6.3h0s.2,0,.2-.1c-.1,0-.2.1-.3.2h0s-.2.1-.3.2c0,.1-.1.2-.2.3,0,.2-.2.3-.2.5s-.1.4-.1.5v.4h.1s0,.1.1.2h.4c.2,0,.4-.1.5-.2,0,0,.2-.1.2-.2h0s.1-.1.2-.2h0c0-.2.1-.3.2-.4,0-.1.1-.2.1-.4v-.8h.4v-.1Z"/>
          <path class="cls-11" d="M263.78,51.64h0c0-.07-.03-.1-.1-.1h-.2s-.1,0-.2.1h0c.2.1.3.1.5,0,0,0,.2-.1.2-.2,0,0,0-.1.1-.2h0l-.3.4Z"/>
          <path class="cls-11" d="M261.78,31.24c0-.2,0-.4-.2-.5-.2-.2-.5,0-.7,0h-.4.2c-.2,0-.3,0-.4.2-.1,0-.2,0-.3.2h0c-.4.3-.7.6-.9,1-.1.2-.2.4-.3.7v.6s.2.2.3.2h.8c.2,0,.4,0,.6-.2h0c-.2,0,.2,0,.3-.2q.07,0,0,0h.1l.2-.2c.2,0,.3-.3.3-.4s.1-.3.2-.4v-.7l.2-.4v.1Z"/>
          <path class="cls-11" d="M256.78,31.34h-.3v.2h.3v-.2Z"/>
          <path class="cls-11" d="M261.98,37.34h-.1s-.1-.1-.2-.2h-.4s-.2,0-.2.1h-.1v.2c-.1,0-.2.2-.3.3h0v.3h0c0,.1.2.1.3.1h.4c.2,0,.4-.1.6-.2,0,0,.2-.2.3-.2h0v-.3h-.3v-.1Z"/>
          <path class="cls-11" d="M247.78,30.54h-.8v.2h.3c.1,0,.3,0,.4-.2h0l.2-.2h0v-.2.4h-.1Z"/>
          <path class="cls-7" d="M62.58,8.34c0,.3-.3.6-.6.7h-1.7c-.9-.2-1.7-.8-2.1-1.6.4.5.7,1.4,1.3,1.7.4.3,1,.3,1.5.4h.8c.4-.2.7-.6,1-1h-.2v-.2Z"/>
          <path class="cls-7" d="M36.78,7.04c0,.4-.4.7-.8.9-.4,0-.9,0-1.2-.3.4.3.9.7,1.4.6s.9-.7.6-1.1h0v-.1Z"/>
          <path class="cls-7" d="M9.88,36.94c-.4.9-1.9,1.5-2.7,1.6-.5,0-1.1-.1-1.4-.6-.3-.4-.2-1,0-1.5-.3-.3-.4-.8-.4-1.2v2.8c0,.6.7,1,1.3,1.1,1.5.2,2.7-.9,3.2-2.2h0Z"/>
          <path class="cls-7" d="M8.18,68.74c-.3.3-.5.9-.8,1.3-.3.3-.5.4-.9.5-.7.2-1.5,0-1.6-.8.2.2.5.3.7.3.8.1,2-.9,2.6-1.4h0v.1Z"/>
          <path class="cls-7" d="M22.18,89.24c-.2.2-.6.2-.9.2-.5,0-1-.1-1.5-.2-.8-.2-1.7-.8-1.7-1.7h0c.8-.1.4.2.6.8.2.4.6.7,1,.8s1.9.5,2.2.2h.3v-.1Z"/>
          <path class="cls-7" d="M24.38,92.74c.3.2.8.3,1.2.3s.7-.1,1-.4c0,.3-.3.5-.6.6s-.6,0-.9,0-.8,0-1-.3c-.3-.3-.4-.7-.3-1.1,0-.2,0-.5.4-.5-.3.5-.2,1.1.3,1.5h0l-.1-.1Z"/>
          <path class="cls-7" d="M63.48,114.04c-.3.7-1,1.2-1.7,1.4-.3,0-.8,0-1-.3,0-.3,0-.7.3-.9,0,.5.3.8.7.8h.7c.5-.1.8-.6,1.1-1h-.1Z"/>
          <path class="cls-7" d="M126.28,115.64c0,.6-1.1.9-1.6,1.1-.3.1-.5.2-.8.3-.4,0-.8-.1-1.1-.3-.3-.1-.6-.3-.9-.4-.7-.4-1.3-1-1.7-1.7-.6.4-1.3.6-1.9.5-.2,0-.3,0-.4-.2v-.7,1.2s0,.1.1.1c.8,0,1.6-.3,2.2-.7.8,1.2,2.1,2.2,3.5,2.6.8.2,1.8-.5,2.4-1.1l.3-.3c0-.1.1-.3,0-.4h-.1Z"/>
          <path class="cls-7" d="M205.18,112.64v1.2c0,.2-.2.5-.4.6h-.4c-.7-.2-1.3-.6-1.8-1.1.5.8,1.4,1.4,2.3,1.6h.1c.2-.7.2-1.5.1-2.2h0l.1-.1Z"/>
          <path class="cls-7" d="M244.68,91.64c0,.5-.1.9-.3,1.3,0,0,0,.1-.1.1h-1.9c-.2,0-.3,0-.5-.1-.3-.2-.3-.6-.3-.9,0,.2-.1.5,0,.7,0,.1,0,.3.2.4.2.2.6.3.9.3h1.9s.1-.1.1-.2c.2-.5.1-1.1,0-1.6h0Z"/>
          <path class="cls-7" d="M262.68,50.64c.1-.2.3-.5.4-.7,0,.1,0,.5-.1.7,0,.2-.2.4-.4.6-.2.2-.6.7-.8.8h-.3c-.2,0-.4,0-.5-.2-.4-.2-.3-.5-.2-.9,0-.2.2-.5.4-.6-.3,0,.1,1,.4,1.1.5,0,.8-.5,1.1-.8h0Z"/>
          <path class="cls-7" d="M261.78,30.94c0,.6,0,1.3-.5,1.8-.1,0-.3.3-.5.4-.6.4-1.6.9-2,0,.1.3.5.6.9.7.7,0,1.4-.3,1.8-.8.4-.6.6-1.3.3-2h0v-.1Z"/>
          <path class="cls-7" d="M186.98,8.34c1.7-.4,3.3-1.3,4.6-2.6-.6,1-1.5,1.9-2.5,2.5-.9.5-4.4,1.2-4-.8.2.3.1.6.4.8.4.3,1.1,0,1.6,0h-.1v.1Z"/>
          <g>
            <path class="cls-11" d="M49.38,81.84c-.9-.6-2.1-.7-3.1-.5-.5,0-1.2.3-1.5.6,0-1.7-1.2-2.9-2.5-3.9-1.6-1.3-3.1-2-5.2-1.4-1.6.5-3.8,1.7-4.2,3.5-.4,1.7,1.1,3.3,2,4.6.5.7,1,1.4,1.7,1.8v.2c1.2,1.4,3.3.7,4.7,0,1.1-.5,2.1-1.3,2.8-2.3h0c.3.5.5.9,1,1.2s1.2.6,1.8.7c.8.2,2.1-.4,2.5-1.1.3-.5.6-1.2.7-1.8,0-.7-.3-1.1-.8-1.4v-.2h.1Z"/>
            <path class="cls-11" d="M48.38,90.94c-.3-.4-1-.6-1.5-.7-.7-.2-1.5-.1-2.2,0-.4,0-1.1.3-1.3.7-.3.5-.5.9-.2,1.4.2.4.6.7,1,.9.6.3,1.5.3,2.2.2.6,0,1.3-.3,1.8-.7.5-.5.6-1.3.2-1.8h0Z"/>
            <path class="cls-11" d="M29.98,78.74c0-.3-.4-.6-.6-.9-.2-.3-1.3.2-1.3.6v1c0,.3.5.5.8.6.2,0,.7-.1.8-.4,0-.3.3-.7.2-1h0l.1.1Z"/>
            <path class="cls-11" d="M56.78,96.14c0-.1,0-.2-.2-.4,0-.1-.3-.2-.4-.3-.4-.2-.9-.2-1.3-.3-.3,0-.6,0-.8.2,0,0-.6.3-.5.5.2.3.4.7.8.8.6.2,1.1,0,1.7,0s1-.4.8-.6h0l-.1.1Z"/>
            <path class="cls-5" d="M49.88,84.74c-.5.6-1.1,1.2-1.9,1.4h-.8c-1.2-.1-2.4-.9-2.9-1.9-.5,1-1.5,1.6-2.5,2.2-.7.4-1.4.9-2.3,1-.7.1-1.3-.1-1.9-.2-.6,0-1-.6-1.4-1.1-1.3-1.6-2.6-3.3-3.2-5.3,0,1.1.5,2.2,1.1,3.1,1,1.5,2,3.1,3.2,4.5.8.1,1.8.1,2.5-.1.4-.1.8-.4,1.2-.6,1.1-.7,2.2-1.4,3.1-2.3-.2.3,2.5,1.1,2.7,1.2,1.9.6,2.1-.4,3.1-1.8h0v-.1Z"/>
            <path class="cls-5" d="M48.68,91.64c0,.7-.6,1.2-1.3,1.4-1,.4-4.8.6-4.2-1.3-.2.8,0,1.6.8,1.9.9.4,1.9.5,2.9.2s1.7-1.2,1.8-2.3h0v.1Z"/>
          </g>
          <path class="cls-11" d="M222.38,28.14c-.2-.5-.8-.8-1.4-.8s-1.4,0-2,.5h-.2s-.2,0-.2.2c-.1,0-.2.2-.3.3-.5-1.7-1.6-3.1-3.2-4-.9-.5-2.3,0-3.1.3-.8.3-2.2.8-2.5,1.8-.7,2,0,4.2,2.1,5,.5.4,1,.7,1.6.9,1.1.4,2.3,0,3.3-.4.5-.2,1.1-.5,1.5-.9h0c.2,0,.5.2.8.3.6.2,1.2,0,1.7-.2.6-.3,1.2-1,1.5-1.5s.7-1.1.5-1.7v.2h-.1Z"/>
          <path class="cls-11" d="M201.78,26.64c-.1-.2-.3-.4-.5-.5-.2-.2-.4-.4-.6-.6-.3-.3-1.5.2-1.6.6,0,.3,0,.5-.1.8,0,.3-.2.5-.1.8.1.5.7.9,1.2,1,.5,0,1.2-.2,1.5-.6s.6-1,.3-1.5h-.1Z"/>
          <path class="cls-11" d="M248.38,60.44c-.4-.6-1.4-.8-2.1-.8-1.1,0-2.2.4-3.2.9h.2s-.1,0-.2.1c-.1,0-.2.1-.3.2-.2,0-.3.2-.5.3,0,0-.1,0-.2.1h0c-.3.2-.7.5-1,.8-.5.5-.9,1.1-1,1.8-.1.3,0,.6.3.8.8.6,1.6.8,2.7.8s2.1-.5,3-1.2c1.3-.8,3.2-2.4,2.3-3.7h0v-.1Z"/>
          <path class="cls-11" d="M236.38,66.64c-.2-.3-.7-.3-.9-.4-.3,0-.7,0-1,.3h-.1c-.2.1-.3.3-.5.4-.3.3-.5.6-.4,1,.3.9,1.4.7,2.1.3.5-.3,1.4-1.2,1-1.9l-.2.3h0Z"/>
          <path class="cls-11" d="M179.18,94.24c-1.5-1.6-4.4-2.2-6.2-.5-1.1,1-1.8,1.9-2.1,3.3-.2.9-.3,2.2.2,3.1.5,1,2.3,1.4,3.4,1.4s2.9-.6,3.9-1.4c.9-.7,2-2,2-3.1s-.4-2-1.1-2.8h-.1Z"/>
          <path class="cls-11" d="M165.58,97.44c0-.2-.3-.3-.3-.4-.3-.3-.8-.2-1.2-.2-.6.1-1.2.4-1.7.8-.2.2-.6.4-1,.8-.2.2-.5.5-.5.8-.2.9,1.1.9,1.7.8.7-.1,1.3-.4,1.9-.9.4-.3.7-.6.9-1,.1-.2.2-.4.1-.7h.1Z"/>
          <path class="cls-11" d="M192.98,94.34c-.2,0-.4-.2-.5-.2-.2,0-.3-.1-.5-.1h-.6c-.3,0-.6,0-1,.1-.5.1-1.2.4-1.5.8-.2.2-.5.5-.5.7v.6c0,.3.7.3.9.3-.2,0,0,0,0,0h1.4c.7,0,1.4-.4,1.9-.9,0,0,.2-.2.2-.3v-.6c.1-.2.2-.5,0-.6l.2.2h0Z"/>
          <path class="cls-11" d="M198.38,95.24h-.5c-.1,0-.3,0-.4.1-.3,0-.5.2-.8.4-.1.1-.4.2-.3.5h0v.2h.9c.2,0,.4-.1.5-.2h.1v-.2h0v-.3l.5-.5Z"/>
          <path class="cls-11" d="M54.28,22.14h-1.3c-.2-.2-.9,0-1.1,0s-.7.3-.7.6h0s-.2,0-.3.2c0,0-.2.2-.2.3l-.3.3c0,.2-.2.3-.3.5,0,.2,0,.3.2.4.6.5,1.3.4,2,0,.9-.3,1.6-.7,2.2-1.4,0,0,.2-.3.2-.5s-.2-.3-.3-.3v-.2l-.1.1Z"/>
          <path class="cls-11" d="M69.38,20.44h-.7c-.2,0-.4,0-.6.2-.2,0-.4.2-.5.3,0,0-.3.2-.2.3v.2h.7c.2,0,.4,0,.6-.2,0,0,.3,0,.4-.2l.3-.3h0l-.1-.3h.1Z"/>
          <path class="cls-11" d="M38.88,67.14c-.2-.2-.7,0-1,0s-.5.2-.8.3-.6.2-.8.4c0,0-.3.3-.2.4,0,.4,1.2,0,1.4,0,.4-.1.7-.3,1-.5.2,0,.6-.4.4-.6h0Z"/>
          <path class="cls-11" d="M183.18,97.24c0-.1-.2-.2-.2-.4-.2-.3-.8-.2-1.1,0-.4.1-.9.3-1.3.6h0s-.2.2-.2.3c-.1.2-.4.5-.3.8,0,.5.6.7,1.1.8.5,0,1.4-.2,1.7-.6.1-.2.2-.3.3-.5s0-.3.1-.5v-.5h-.1Z"/>
          <path class="cls-11" d="M143.78,100.24c0-.2-.3-.4-.4-.5h-.5c-.2,0-.4,0-.6.2-.1,0-.8.3-.6.6v.4c0,.2.2.3.4.3h0c0,.1.3,0,.4,0,.2,0,.4-.1.5-.3l.2-.2c.2-.2.4-.4.3-.6h.3v.1Z"/>
          <path class="cls-11" d="M78.38,96.74c0-.1-.6,0-.7,0-.2,0-.6.2-.7.4-.2.2-.4.4-.5.7v.6c0,.2.6.1.7,0h.3c-.3.1-.2.1,0,0h0s.2,0,.3-.1h0c.2-.1.3-.3.5-.5,0-.1.2-.4.2-.5s-.2-.3-.3-.4l.3-.2h-.1Z"/>
          <path class="cls-11" d="M186.38,44.44c-.1-.1-.2-.3-.4-.4-.3-.3-1-.3-1.4-.3s-.9.1-.9.4,0,.7.3.8c.4.2.8.4,1.2.4s1.1-.2,1.2-.6c0-.2,0-.3-.1-.4h0l.1.1Z"/>
          <path class="cls-11" d="M86.48,55.04c-.2-.3-.4-.4-.7-.6-.4-.2-.8-.3-1.1-.5-.2-.1-.7,0-.7.3s-.3.6-.3,1v.8c.4.7,1.4.7,2.1.5.3-.1.9-.4.9-.7s0-.5-.2-.7h0v-.1Z"/>
          <path class="cls-11" d="M109.08,29.14c0-.2-.9,0-.9.3s.1.9.6,1.1h.5s.4-.2.3-.3c-.3-.3-.5-.6-.5-1h0v-.1Z"/>
          <path class="cls-11" d="M128.48,69.74c0-.3-.9,0-1,0-.4.1-.8.3-1,.7-.3.5-.6.9-.7,1.5,0,.2-.1.4,0,.6,0,.2.3.3.5.4.4.3,1.3-.1,1.5-.4l.7-.7c.1-.2.2-.5.3-.7.1-.4,0-.8-.2-1.3h-.1v-.1Z"/>
          <path class="cls-11" d="M214.58,55.14v-.4s-.1-.2-.2-.2c-.1-.2-.5,0-.7,0s-.3.1-.4.2c0,0-.2.1-.1.2,0,0,0,.2.1.2,0,0,.1.1.2.2.2.1.3.3.5.3s.5,0,.7-.2v-.3h-.1Z"/>
          <path class="cls-11" d="M182.08,24.94c-.6.2-1.1.5-1.4,1,0,0-.1.4,0,.5.2.2.5,0,.6,0,0,0,.2,0,.2-.2-.1,0-.2,0-.3.2.4-.2.8-.5,1.1-.8l.3-.3v-.3c0-.2-.5,0-.6,0h0l.1-.1Z"/>
          <g>
            <path class="cls-11" d="M42.98,25.24v-.4c0-.2-.3-.3-.6-.4-.5-.2-1.1-.2-1.6-.3-.7,0-1.4,0-2-.2-.3,0-1.3,0-1.3.5s-.5.8-.7,1.3c0,.3-.2.8-.2,1.1,0,.5.6.8,1.1.9,1,.2,2.2,0,3.2-.5.4,0,.7-.3,1-.6.2-.2.2-.3.3-.5-.3-.3,0-.5.8-.7,0,0,0-.2,0-.2Z"/>
            <path class="cls-11" d="M38.58,30.74s-.2,0-.4-.2h-2.1c-.2,0-.6.3-.6.5v.2h0v.5c.2.5,1,.3,1.4.2.6,0,1.2-.3,1.6-.6,0,0,.7-.6.3-.7h-.2v.1Z"/>
            <path class="cls-5" d="M38.48,30.94c-.3.4-.6.9-1,1.2-.4.3-.9.5-1.4.4s-1-.5-1-1c.4.4,1.3.7,1.8.6.5-.2,1.3-.7,1.6-1.1h0v-.1Z"/>
            <path class="cls-5" d="M43.08,25.44s-.2-.2-.3,0h-.6v.2c0,.4-.3.8-.6,1-.4.2-.8.3-1.2.4-.5,0-1.1,0-1.6.2h-1.2c-.4,0-.7-.5-.8-.9.2.5.3,1.2.7,1.5.6.4,1.4.3,2.2.2.4,0,.8-.2,1.1-.3.4-.2.7-.5,1-.8s1.1-1,1.5-1.3h0l-.2-.2Z"/>
          </g>
          <path class="cls-5" d="M54.38,22.54c-.6,1-1.7,1.8-2.9,1.9h-.8c-.3,0-.5-.3-.6-.5,0,.5.3,1,.8,1.1s1,0,1.4-.2.8-.6,1.1-1c.3-.3.7-.9.9-1.2h0l.1-.1Z"/>
          <path class="cls-5" d="M86.48,56.04c-.3.5-.9.9-1.5.9s-1.3-.3-1-.8c.8.4,1.7.2,2.6,0h-.1v-.1Z"/>
          <path class="cls-5" d="M200.78,28.24c.4-.2.7-.7,1-1.1,0,.7-.5,1.4-1.2,1.6-.4,0-1.7,0-1.4-.6.5.2,1,.4,1.6,0h0v.1Z"/>
          <path class="cls-5" d="M222.58,28.74c-.5,1.1-1.4,1.9-2.4,2.5-.6.3-1,0-1.5,0,0,0-1.2-.4-1.1-.5-.6.5-1.5,1.1-2.2,1.4-.9.3-2,.3-2.8,0-.6-.3-1.1-.8-1.7-1.2-.6-.5-1.1-1-1.6-1.6.7.9,1.4,2.1,2.4,2.8,1,.7,2.2,1.1,3.3.9,1-.2,1.9-.9,2.7-1.5.7.2,1.4.5,2.1.4,1.3-.2,2.2-1.8,2.8-2.9v-.3h0Z"/>
          <path class="cls-5" d="M248.88,61.24c-.3,1-1.1,1.8-2,2.4-.9.6-1.9.9-2.9,1.3-1.5.5-2.3.8-3.4-.5.2.3.5.6.7.8.9,1.1,2.6.4,3.6-.1s1.6-.8,2.3-1.4c.7-.6,1.4-1.6,1.6-2.5h.1Z"/>
          <path class="cls-5" d="M236.38,66.94c-.2.4-.4.9-.7,1.2-.2.3-.5.5-.8.6s-.7.1-1,0c-.3-.2-.5-.6-.8-.6.4.3,1.2.5,1.7.5h.3s.2-.1.2-.2c.3-.4.8-1,1.1-1.4h0v-.1Z"/>
          <path class="cls-5" d="M165.58,97.94c-.4,1.7-2.4,2.5-4,2.1-.2,0-.4-.1-.6-.3.6.1,1.5.3,2.1.1.5-.2.8-.5,1.2-.8.6-.6,1.2-.6,1.3-1.5v.4Z"/>
          <path class="cls-5" d="M170.78,98.34c0,1,.3,2.2,1.3,2.6.6.3,1.6.3,2.3.4,2.1.2,4.3-1.1,5.5-2.8.2.5.7,1,1.3,1,.9,0,1.7-.8,1.9-1.6,0,.9-.6,1.8-1.4,2-.8.3-1.8,0-2.3-.8.2.2-.8,1.2-.9,1.3-.4.4-.9.7-1.4.9-.9.3-1.8.3-2.8.3s-1.9,0-2.7-.5c-.5-.3-1-.8-1-1.4s.2-.9.1-1.3h0l.1-.1Z"/>
          <path class="cls-5" d="M193.08,94.54c0,.3-.2.7-.4.9-.1.2-.3.3-.4.5,0,0-.2.1-.2.2-.1,0-.2,0-.4.1-.8.1-1.5.2-2.3,0-.4,0-.9-.2-1-.6,0,.4.2.8.6.9.4.1.8.1,1.1,0,.4,0,.9,0,1.3-.1.3,0,.7-.1.9-.3s.4-.4.5-.7c.2-.3.2-.6.2-1h0l.1.1Z"/>
          <g>
            <g>
              <path class="cls-5" d="M253.88,61.04c-1.5-.7-2.8-1.8-4.1-2.9-1-.8-1.9-1.5-3-2.2-.1,0-.3-.2-.4-.2-.2,0-.3,0-.4.1h0c.8,1,1.7,1.9,2.6,2.7,1.1,1,2.3,2.1,3.6,2.8-1.1.9-2.1,2-3.2,3-.6.5-1.2,1-1.7,1.6-.2.3-.5.5-.8.7-.2.2-.7.5-.7.8,0,.5,1.1.1,1.2,0,.8-.3,1.3-1,2-1.5.6-.5,1.2-1.1,1.8-1.6,1.1-1,2.4-2.1,3.2-3.3,0-.1,0-.2-.1-.2v.2h0Z"/>
              <path class="cls-5" d="M253.68,44.14c0-.4.1-1.3-.3-1.5s-1.2,0-1.6,0c-1.4.2-2.7.5-4.1.9s-2.8.8-4,1.5c-.5.2-.8.5-.5,1.1.5.7,1.1,1.3,1.6,2,1,1.2,1.9,2.5,3.1,3.4.4.2,1.7,0,1.8-.6.3-1.5.6-2.9.8-4.4,0-.6-2.2-.1-2.2.6s0,1.5-.2,2.2c-.3-.3-.5-.6-.8-.9-.8-.9-1.5-1.8-2.3-2.8s-.3-.3.2-.5c.2,0,.5-.2.7-.3.6-.2,1.1-.4,1.7-.6,1.1-.3,2.2-.6,3.4-.8.1,0,.8-.2.9-.1,0,0,0,.6,0,.5v5.6c0,1.3,0,2.6-.2,3.8,0,.6-.1,1.3-.2,1.9v.8h0c-.6-.3-1.1-.6-1.7-.9-.6-.3-1-.8-1.5-1.2-.3-.2-1.6-1.7-1.8-.8,0,.4.4.8.6,1,.7.7,1.6,1.3,2.4,1.8.3.2.6.4.9.6.2.2.5.4.7.5.4.1,1-.2,1.3-.4.4-.3.5-.7.5-1.1.1-.8.3-1.6.4-2.4.2-1.4.4-2.9.4-4.3v-4.6h0Z"/>
              <path class="cls-5" d="M254.48,79.54c0,.4.2,1.3-.3,1.6-.4.3-1.2,0-1.6,0-1.4-.2-2.7-.4-4.1-.8-1.4-.3-2.8-.7-4.1-1.3-.5-.2-.9-.5-.5-1,.4-.7,1-1.3,1.5-2,.9-1.2,1.8-2.5,3-3.5.4-.3,1.7,0,1.8.5.4,1.5.7,2.8.9,4.3,0,.6-2.2.2-2.2-.5s-.1-1.5-.2-2.2c-.3.3-.5.6-.8.9-.7.9-1.5,1.9-2.2,2.8-.3.5-.3.4.2.5.2,0,.5.2.7.3.6.2,1.1.4,1.7.5,1.1.3,2.3.5,3.4.7.1,0,.8.2.9,0,0,0,0-.6,0-.5v-1.9c0-1.2,0-2.5-.2-3.7,0-1.3-.2-2.6-.3-3.8,0-.6-.1-1.3-.2-1.9,0-.3,0-.5-.1-.8h0c-.8.5-1.4.9-2.1,1.5s-1.4,1.2-2.1,1.8c0,0-.2.1-.3.1-.3,0-.5-.3-.5-.5,0-.3.2-.5.4-.7.8-.7,1.7-1.5,2.5-2.1.3-.2.6-.4.9-.6.2-.2.5-.4.7-.5.4-.1,1,.1,1.3.4.4.3.5.7.6,1.1.2.8.3,1.6.4,2.4.2,1.4.4,2.9.5,4.3.1,1.5.2,3.1.1,4.6h.3Z"/>
            </g>
            <g>
              <path class="cls-1" d="M253.48,60.34c-1.5-.7-2.8-1.8-4.1-2.9-1-.8-1.9-1.5-3-2.2-.1,0-.3-.2-.4-.2-.2,0-.3,0-.4.1h0c.8,1,1.7,1.9,2.6,2.7,1.1,1,2.3,2.1,3.6,2.8-1.1.9-2.1,2-3.2,3-.6.5-1.2,1-1.7,1.6-.2.3-.5.5-.8.7-.2.2-.7.5-.7.8,0,.5,1.1.1,1.2,0,.8-.3,1.3-1,2-1.5.6-.5,1.2-1.1,1.8-1.6,1.1-1,2.4-2.1,3.2-3.3,0-.1,0-.2-.1-.2v.2h0Z"/>
              <path class="cls-1" d="M253.38,43.54c0-.4.1-1.3-.3-1.5s-1.2,0-1.6,0c-1.4.2-2.7.5-4.1.9s-2.8.8-4,1.5c-.5.2-.8.5-.5,1.1.5.7,1.1,1.3,1.6,2,1,1.2,1.9,2.5,3.1,3.4.4.2,1.7,0,1.8-.6.3-1.5.6-2.9.8-4.4,0-.6-2.2-.1-2.2.6s0,1.5-.2,2.2c-.3-.3-.5-.6-.8-.9-.8-.9-1.5-1.8-2.3-2.8s-.3-.3.2-.5c.2,0,.5-.2.7-.3.6-.2,1.1-.4,1.7-.6,1.1-.3,2.2-.6,3.4-.8.1,0,.8-.2.9-.1,0,0,0,.6,0,.5v5.6c0,1.3,0,2.6-.2,3.8,0,.6-.1,1.3-.2,1.9v.8h0c-.6-.3-1.1-.6-1.7-.9-.6-.3-1-.8-1.5-1.2-.3-.2-1.6-1.7-1.8-.8,0,.4.4.8.6,1,.7.7,1.6,1.3,2.4,1.8.3.2.6.4.9.6.2.2.5.4.7.5.4.1,1-.2,1.3-.4.4-.3.5-.7.5-1.1.1-.8.3-1.6.4-2.4.2-1.4.4-2.9.4-4.3v-4.6h0Z"/>
              <path class="cls-1" d="M254.08,78.94c0,.4.2,1.3-.3,1.6-.4.3-1.2,0-1.6,0-1.4-.2-2.7-.4-4.1-.8-1.4-.3-2.8-.7-4.1-1.3-.5-.2-.9-.5-.5-1,.4-.7,1-1.3,1.5-2,.9-1.2,1.8-2.5,3-3.5.4-.3,1.7,0,1.8.5.4,1.5.7,2.8.9,4.3,0,.6-2.2.2-2.2-.5s-.1-1.5-.2-2.2c-.3.3-.5.6-.8.9-.7.9-1.5,1.9-2.2,2.8-.3.5-.3.4.2.5.2,0,.5.2.7.3.6.2,1.1.4,1.7.5,1.1.3,2.3.5,3.4.7.1,0,.8.2.9,0,0,0,0-.6,0-.5v-1.9c0-1.2,0-2.5-.2-3.7,0-1.3-.2-2.6-.3-3.8,0-.6-.1-1.3-.2-1.9,0-.3,0-.5-.1-.8h0c-.8.5-1.4.9-2.1,1.5s-1.4,1.2-2.1,1.8c0,0-.2.1-.3.1-.3,0-.5-.3-.5-.5,0-.3.2-.5.4-.7.8-.7,1.7-1.5,2.5-2.1.3-.2.6-.4.9-.6.2-.2.5-.4.7-.5.4-.1,1,.1,1.3.4.4.3.5.7.6,1.1.2.8.3,1.6.4,2.4.2,1.4.4,2.9.5,4.3.1,1.5.2,3.1.1,4.6h.3Z"/>
            </g>
          </g>
          <g>
            <g>
              <path class="cls-5" d="M15.68,59.44c1.5-.7,2.8-1.8,4.1-2.9,1-.8,1.9-1.5,3-2.2,0,0,.3-.2.4-.2.2,0,.3,0,.4.1h0c-.8,1-1.7,1.9-2.6,2.7-1.1,1-2.3,2.1-3.6,2.8,1.1.9,2.1,2,3.2,3,.6.5,1.2,1,1.7,1.6.2.3.5.5.8.7.2.2.7.5.7.8,0,.5-1.1.1-1.2,0-.8-.3-1.3-1-2-1.5-.6-.5-1.2-1.1-1.8-1.6-1.1-1-2.4-2.1-3.2-3.3v-.2.2h.1Z"/>
              <path class="cls-5" d="M15.88,42.54c0-.4,0-1.3.3-1.5s1.2,0,1.6,0c1.4.2,2.7.5,4.1.9s2.8.8,4,1.5c.5.2.8.5.5,1.1-.5.7-1.1,1.3-1.6,2-1,1.2-1.9,2.5-3.1,3.4-.4.2-1.7,0-1.8-.6-.3-1.5-.6-2.9-.8-4.4,0-.6,2.2-.1,2.2.6s0,1.5.2,2.2c.3-.3.5-.6.8-.9.8-.9,1.5-1.8,2.3-2.8s.3-.3-.2-.5c-.2,0-.5-.2-.7-.3-.6-.2-1.1-.4-1.7-.6-1.1-.3-2.2-.6-3.4-.8,0,0-.8-.2-.9-.1,0,0,0,.6,0,.5v5.6c0,1.3,0,2.6.2,3.8,0,.6,0,1.3.2,1.9v.8h0c.6-.3,1.1-.6,1.7-.9.6-.3,1-.8,1.5-1.2.3-.2,1.6-1.7,1.8-.8,0,.4-.4.8-.6,1-.7.7-1.6,1.3-2.4,1.8-.3.2-.6.4-.9.6-.2.2-.5.4-.7.5-.4.1-1-.2-1.3-.4-.4-.3-.5-.7-.5-1.1,0-.8-.3-1.6-.4-2.4-.2-1.4-.4-2.9-.4-4.3v-4.6h0Z"/>
              <path class="cls-5" d="M15.08,77.94c0,.4-.2,1.3.3,1.6.4.3,1.2,0,1.6,0,1.4-.2,2.7-.4,4.1-.8,1.4-.3,2.8-.7,4.1-1.3.5-.2.9-.5.5-1-.4-.7-1-1.3-1.5-2-.9-1.2-1.8-2.5-3-3.5-.4-.3-1.7,0-1.8.5-.4,1.5-.7,2.8-.9,4.3,0,.6,2.2.2,2.2-.5s0-1.5.2-2.2c.3.3.5.6.8.9.7.9,1.5,1.9,2.2,2.8.3.5.3.4-.2.5-.2,0-.5.2-.7.3-.6.2-1.1.4-1.7.5-1.1.3-2.3.5-3.4.7,0,0-.8.2-.9,0,0,0,0-.6,0-.5v-1.9c0-1.2,0-2.5.2-3.7,0-1.3.2-2.6.3-3.8,0-.6,0-1.3.2-1.9v-.8h0c.8.5,1.4.9,2.1,1.5s1.4,1.2,2.1,1.8c0,0,.2.1.3.1.3,0,.5-.3.5-.5s-.2-.5-.4-.7c-.8-.7-1.7-1.5-2.5-2.1l-.9-.6c-.2-.2-.5-.4-.7-.5-.4-.1-1,.1-1.3.4-.4.3-.5.7-.6,1.1-.2.8-.3,1.6-.4,2.4-.2,1.4-.4,2.9-.5,4.3,0,1.5-.2,3.1,0,4.6h-.3,0Z"/>
            </g>
            <g>
              <path class="cls-1" d="M15.58,58.64c1.5-.7,2.8-1.8,4.1-2.9,1-.8,1.9-1.5,3-2.2,0,0,.3-.2.4-.2.2,0,.3,0,.4.1h0c-.8,1-1.7,1.9-2.6,2.7-1.1,1-2.3,2.1-3.6,2.8,1.1.9,2.1,2,3.2,3,.6.5,1.2,1,1.7,1.6.2.3.5.5.8.7.2.2.7.5.7.8,0,.5-1.1.1-1.2,0-.8-.3-1.3-1-2-1.5-.6-.5-1.2-1.1-1.8-1.6-1.1-1-2.4-2.1-3.2-3.3v-.2.2h.1Z"/>
              <path class="cls-1" d="M15.78,41.74c0-.4,0-1.3.3-1.5s1.2,0,1.6,0c1.4.2,2.7.5,4.1.9s2.8.8,4,1.5c.5.2.8.5.5,1.1-.5.7-1.1,1.3-1.6,2-1,1.2-1.9,2.5-3.1,3.4-.4.2-1.7,0-1.8-.6-.3-1.5-.6-2.9-.8-4.4,0-.6,2.2-.1,2.2.6s0,1.5.2,2.2c.3-.3.5-.6.8-.9.8-.9,1.5-1.8,2.3-2.8s.3-.3-.2-.5c-.2,0-.5-.2-.7-.3-.6-.2-1.1-.4-1.7-.6-1.1-.3-2.2-.6-3.4-.8,0,0-.8-.2-.9-.1,0,0,0,.6,0,.5v5.6c0,1.3,0,2.6.2,3.8,0,.6,0,1.3.2,1.9v.8h0c.6-.3,1.1-.6,1.7-.9.6-.3,1-.8,1.5-1.2.3-.2,1.6-1.7,1.8-.8,0,.4-.4.8-.6,1-.7.7-1.6,1.3-2.4,1.8-.3.2-.6.4-.9.6-.2.2-.5.4-.7.5-.4.1-1-.2-1.3-.4-.4-.3-.5-.7-.5-1.1,0-.8-.3-1.6-.4-2.4-.2-1.4-.4-2.9-.4-4.3v-4.6h0Z"/>
              <path class="cls-1" d="M14.98,77.14c0,.4-.2,1.3.3,1.6.4.3,1.2,0,1.6,0,1.4-.2,2.7-.4,4.1-.8,1.4-.3,2.8-.7,4.1-1.3.5-.2.9-.5.5-1-.4-.7-1-1.3-1.5-2-.9-1.2-1.8-2.5-3-3.5-.4-.3-1.7,0-1.8.5-.4,1.5-.7,2.8-.9,4.3,0,.6,2.2.2,2.2-.5s0-1.5.2-2.2c.3.3.5.6.8.9.7.9,1.5,1.9,2.2,2.8.3.5.3.4-.2.5-.2,0-.5.2-.7.3-.6.2-1.1.4-1.7.5-1.1.3-2.3.5-3.4.7,0,0-.8.2-.9,0,0,0,0-.6,0-.5v-1.9c0-1.2,0-2.5.2-3.7,0-1.3.2-2.6.3-3.8,0-.6,0-1.3.2-1.9v-.8h0c.8.5,1.4.9,2.1,1.5s1.4,1.2,2.1,1.8c0,0,.2.1.3.1.3,0,.5-.3.5-.5,0-.3-.2-.5-.4-.7-.8-.7-1.7-1.5-2.5-2.1l-.9-.6c-.2-.2-.5-.4-.7-.5-.4-.1-1,.1-1.3.4-.4.3-.5.7-.6,1.1-.2.8-.3,1.6-.4,2.4-.2,1.4-.4,2.9-.5,4.3,0,1.5-.2,3.1,0,4.6h-.3,0Z"/>
            </g>
          </g>
        </g>
      </g>
    </g>
  </g>
</svg>