<?xml version="1.0" encoding="UTF-8"?>
<svg id="Layer_2" data-name="Layer 2" xmlns="http://www.w3.org/2000/svg" viewBox="0 0 173.8 15.6">
  <defs>
    <style>
      .cls-1 {
        fill: #904b4f;
      }

      .cls-1, .cls-2 {
        stroke-width: 0px;
      }

      .cls-2 {
        fill: #f0c996;
      }
    </style>
  </defs>
  <g id="Layer_1-2" data-name="Layer 1">
    <g>
      <g>
        <path class="cls-2" d="M.4,9c-.4,1.4,45,1.1,89.5,1.2,42.3,0,83.9.6,83.9-.9s-42-1.3-84.6-1.3S.7,8,.4,9Z"/>
        <g>
          <path class="cls-2" d="M86.8.7c1.5.4,1.5,14.8.4,14.9-1.2.1-1.7-15.2-.4-14.9Z"/>
          <path class="cls-2" d="M40.4,4.9c1.5.2,1.5,9,.3,9.1-1.2,0-1.6-9.3-.3-9.1Z"/>
          <path class="cls-2" d="M133.3,4.4c1.5.2,1.5,9,.3,9.1s-1.6-9.3-.3-9.1Z"/>
        </g>
      </g>
      <g>
        <path class="cls-1" d="M0,8.2c-.4,1.4,45,1.1,89.5,1.2,42.3,0,83.9.6,83.9-.9s-42-1.3-84.6-1.3S.3,7.2,0,8.2h0Z"/>
        <g>
          <path class="cls-1" d="M86.4,0c1.5.4,1.5,14.8.4,14.9S85.1-.3,86.4,0Z"/>
          <path class="cls-1" d="M40,4.2c1.5.2,1.5,9,.3,9.1-1.2,0-1.6-9.3-.3-9.1Z"/>
          <path class="cls-1" d="M132.9,3.6c1.5.2,1.5,9,.3,9.1-1.2,0-1.6-9.3-.3-9.1Z"/>
        </g>
      </g>
    </g>
  </g>
</svg>