<?xml version="1.0" encoding="UTF-8"?>
<svg id="Layer_2" data-name="Layer 2" xmlns="http://www.w3.org/2000/svg" xmlns:xlink="http://www.w3.org/1999/xlink" viewBox="0 0 12.9 12.79">
  <defs>
    <style>
      .cls-1 {
        fill: url(#linear-gradient);
      }

      .cls-1, .cls-2, .cls-3, .cls-4 {
        stroke-width: 0px;
      }

      .cls-2 {
        fill: url(#linear-gradient-4);
      }

      .cls-3 {
        fill: url(#linear-gradient-2);
      }

      .cls-4 {
        fill: url(#linear-gradient-3);
      }
    </style>
    <linearGradient id="linear-gradient" x1="-3.2" y1="-520.47" x2="3.8" y2="-538.57" gradientTransform="translate(2.38 -522.84) rotate(-.4) scale(1 -1)" gradientUnits="userSpaceOnUse">
      <stop offset="0" stop-color="#b64349"/>
      <stop offset="1" stop-color="#5b1135"/>
    </linearGradient>
    <linearGradient id="linear-gradient-2" x1="-3.06" y1="-519.95" x2="4.14" y2="-542.55" gradientTransform="translate(2.38 -522.84) rotate(-.4) scale(1 -1)" gradientUnits="userSpaceOnUse">
      <stop offset="0" stop-color="#c66261"/>
      <stop offset="1" stop-color="#5d1930"/>
    </linearGradient>
    <linearGradient id="linear-gradient-3" x1="-1.51" y1="-519.54" x2="5.79" y2="-542.14" xlink:href="#linear-gradient-2"/>
    <linearGradient id="linear-gradient-4" x1="-4.7" y1="-522.97" x2="-.4" y2="-534.07" xlink:href="#linear-gradient"/>
  </defs>
  <g id="Layer_1-2" data-name="Layer 1">
    <g>
      <g>
        <path class="cls-1" d="M12.9,6.45h0c0,.9-.3,1.8-.9,2.6-.2.3-.4.5-.7.8-.2.2-.4.5-.6.7-.6.6-1.2,1.1-1.8,1.6-.3.3-.6.5-1,.6-.5.1-1.1,0-1.6-.2-1.6-.6-3.1-1.5-4.4-2.7,0,0,0-.1-.2-.2-.2-.1-.3-.3-.4-.5l-.3-.3c-.2-.2-.4-.4-.6-.6-.2-.2-.3-.4-.4-.7h0c0-.3,0-.6.2-.8,0-.3.3-.6.5-.9,0-.2.2-.4.3-.6.3-.5.6-1,.9-1.4,0-.1.2-.3.3-.4.2-.3.4-.5.6-.8C3.6,1.65,4.1.25,5.5.05s1.4.2,2.1.5c.5.3,1,.5,1.4.9.2.2.5.3.7.5s.4.3.6.5.5.4.7.7l.3.3c.3.4.7.8.9,1.2.2.3.4.6.5,1h0c0,.3.2.6.2.9h0v-.1Z"/>
        <path class="cls-3" d="M11.5,4.85c0,.5-.2,1-.5,1.4s-.6.8-1,1.1c0-.4,0-.9-.2-1.2s-.6-.3-1-.4c-.6,0-1.3.1-1.7.6-.3.3-.5.6-.6,1v1.1c0,.3.4.6.7.7-.3.2-.7.3-1,.5-.6.2-1.2.5-1.9.4-1,0-1.9-.6-2.7-1.2-.3-.2-.6-.4-.8-.6-.3-.2-.5-.4-.7-.6,0-.3,0-.6.2-.8,0-.3.3-.6.5-.9,0-.2.2-.4.3-.6.3-.5.6-1,.9-1.4,0-.1.2-.3.3-.4.2-.3.4-.5.6-.8C3.7,1.75,4.2.35,5.6.15s1.4.2,2.1.5c.5.3,1,.5,1.4.9.2.2.5.3.7.5s.4.3.6.5.5.4.7.7c0,.1,0,.2.2.3.2.4.3.9.3,1.4h0l-.1-.1Z"/>
      </g>
      <path class="cls-4" d="M7.8,8.85c.4,0,.8-.3,1.1-.6.4-.3.7-.7.7-1.2s0-.4-.2-.5c-.2-.2-.6-.2-.9,0-.6.3-1.2.8-1.7,1.2-.7.7.2,1.2.9,1.1h.1Z"/>
      <path class="cls-2" d="M3.4,3.95h.5s.2.2.2.3c0,.2.2.4.2.6v.5c0,.4-.3.7-.7.8-.4.1-.8,0-1.1-.3-.6-.6.2-1.8.8-2.1v.2h.1Z"/>
    </g>
  </g>
</svg>