<?xml version="1.0" encoding="UTF-8"?>
<svg xmlns="http://www.w3.org/2000/svg" xmlns:xlink="http://www.w3.org/1999/xlink" viewBox="0 0 80.62 47.68">
  <defs>
    <style>
      .cls-1 {
        fill: url(#linear-gradient);
      }

      .cls-1, .cls-2, .cls-3, .cls-4, .cls-5 {
        stroke-width: 0px;
      }

      .cls-2 {
        fill: #802940;
      }

      .cls-3 {
        fill: #e0a186;
      }

      .cls-4 {
        fill: url(#linear-gradient-2);
      }

      .cls-6, .cls-5 {
        isolation: isolate;
      }

      .cls-5 {
        fill: #f2e4d7;
        mix-blend-mode: multiply;
      }
    </style>
    <linearGradient id="linear-gradient" x1="40.72" y1="566.5" x2="39.52" y2="631" gradientTransform="translate(0 -578)" gradientUnits="userSpaceOnUse">
      <stop offset="0" stop-color="#b64349"/>
      <stop offset="1" stop-color="#5b1135"/>
    </linearGradient>
    <linearGradient id="linear-gradient-2" x1="40.55" y1="584.6" x2="40.55" y2="687.2" gradientTransform="translate(0 -578)" gradientUnits="userSpaceOnUse">
      <stop offset="0" stop-color="#c66261"/>
      <stop offset="1" stop-color="#5d1930"/>
    </linearGradient>
  </defs>
  <g class="cls-6">
    <g id="Layer_2" data-name="Layer 2">
      <g id="Layer_1-2" data-name="Layer 1">
        <g>
          <path class="cls-1" d="M1,8.3C3.6,5.2,6.5,2.7,9.7.6c.6-.4,1.4-.6,2.1-.6,10.8.3,21.6.7,32.5,1,2.9,0,5.7.2,8.6.3,1.3,0,2.5,0,3.7.5.8.4.9.7,1.8.6,1.7-.3,2.7-.8,4.6-.8s3.3.1,5,.2c1.4,0,2.8,0,4.2.1.7,0,1.4.2,1.9.6,2.2,1.5,4.1,3.2,5.7,5.3.6.7.9,1.6.8,2.5-.5,9.2-1,18.7-1.6,28.5,0,1-.5,1.9-1.3,2.6-2.5,2.3-5.3,4.2-8.4,5.8-.5.3-1.1.4-1.7.4h-23.5c-3.7,0-7.6.4-11.2-.6l-2.9-.8c-.2,0-.4-.1-.6,0,0,0-.3.1-.4.2-1.9,1.5-3.2,1.2-5.6,1.2h-10.4c-.4,0-.9,0-1.3-.2-3.5-1.3-6.5-3.5-9-6.4-.6-.6-.9-1.4-1-2.3-.3-4.3-1.1-9-.7-13.2,1-.2,1.9-.2,2.9-.2-1.1-1.2-2.6-.5-3.1-2.4-.4-1.7-.3-3.7-.4-5.4,0-2.1-.3-4.2-.4-6.3,0-.9.2-1.9.8-2.6l.2-.3h0Z"/>
          <path class="cls-4" d="M76.8,10.1l-.2,4c-.1,2-.2,4.1-.3,6.1,0,.7,0,1.4-.1,2.1-.1,2.3-.2,4.6-.4,6.9v2.4c-.2,1.2-.3,2.3-.3,3.5s-.1,2.3-.2,3.4c-1.2,1.1-2.6,2.2-4,3.1-1.1.8-2.3,1.5-3.6,2.1h-34.3c-1.9,0-3.5-.4-5.3-.2-.3,0-.7,0-1,.1h-8.2c-1.5,0-4.1.5-5.6,0-2.8-1-5.3-2.8-7.5-5.4-.5-.6-.3-3.7-.3-4.6h0v-1.8c0-1,0-2.1-.2-3.1,0-.5-.4-3.3,0-3.8h1.9c-.3-.2-.6-.5-.9-.7h0c-1.3-1.4-1.7-3.1-1.8-4.9v-3.3c0-.8-.9-4.7-.3-5.3,2.2-2.6,4.7-4.8,7.5-6.7,0,0,.2-.1.3-.2,1.5,0,3.1,0,4.6.1,9.5.3,19,.6,28.5.9,2.4,0,4.7.1,7.1.2,1,0,2.4-.2,3.3.2s1.6,1.5,2.8,1.1c3.2-1.3,6.3-.9,9.7-.7.9,0,3.5-.4,4.3.1,1.9,1.3,3.5,2.8,4.8,4.5h-.4l.1-.1Z"/>
          <path class="cls-3" d="M6.6,24.9c.2.3.5.5.9.6-.3.6-1.3.2-1.8.7-.2.2-.2.5-.2.7,0,1.7.3,4.2-.3,5.8h0c0-1.3-.2-2.7-.3-4,0-.5-.4-3.3,0-3.8h1.7Z"/>
          <path class="cls-3" d="M76.8,10.1l-.2,4c-.4,6.9-.7,13.9-1.1,21v.7c.2-5.9.5-11.8.7-17.7,0-2.1.2-4.3-.3-6.3-.4-1.7-1.2-3.4-2.6-4.5-1.4-1.1-2.8-.9-4.4-1-2.4,0-4.9-.4-7.2-.2-.8,0-1.6.2-2.4.5-.4.2-.8.5-1.2.5-1.1.2-2.1-.9-3.2-1.2-.5-.2-1.1-.2-1.6-.2-10.8-.4-21.6-.8-32.4-1.2-2.6-.1-6.6-.8-8.9.8-1,.7-1.9,1.4-2.7,2.2-1.1,1.1-2.3,2.2-3.4,3.3-.2.2-.4.4-.5.7-.2.4,0,.8,0,1.3.5,2.7.4,5.3.5,8,0,1,0,2.3.5,3.4-2.1-2.1-1.7-5.2-1.9-8.2,0-.8-.9-4.7-.3-5.3,2.2-2.7,4.9-5,7.8-6.8,11,.3,22.1.7,33.1,1,2.4,0,4.7.1,7.1.2,1,0,2.4-.2,3.3.2s1.6,1.5,2.8,1.1c3.2-1.3,6.3-.9,9.7-.7.9,0,3.5-.4,4.3.1,1.9,1.3,3.5,2.8,4.8,4.5l-.3-.2h0Z"/>
          <path class="cls-3" d="M74.9,12.4c-.2,6.5-.7,13-.8,19.6,0,.5-.1,1.8-.9,1.6-.7-.2,0-4.4,0-4.9.2-5.4.3-10.9.7-16.3v-.3s-.1-.1-.2-.2c-.7-.5-1.4-1-2.1-1.5s-1.5-1.1-2.4-1h-.7c-4.4.3-9,0-13.5-.1-4.6-.1-9.1-.3-13.7-.5-4.7-.2-9.5-.4-14.2-.7-4.4-.3-9.2-1.2-13.6-.7-1.6,1.9-3.3,3.7-4.9,5.5,1.2.6,2.5,1.2,3.8,1.6h.5s.2-.1.2-.2c.9-1.1,1.7-2.2,2.5-3.4-.7.1-1.4.2-2.1.3-.2,0-.6.2-.8,0-.3-.1-.4-.8-.2-1h0c.8-.1,1.6-.2,2.4-.2s2.1-.3,2.2.3v.2c-.7,2-2.1,3.7-3.6,5.2,0,.1-.3.3-.5.3-.4.2-1-.2-1.4-.3-.5-.2-1.1-.4-1.6-.6-1.1-.3-2.2-.9-3.2-1.4v-.2c.6-1.3,2-2.5,3-3.6.9-1.1,2-2.1,2.9-3.2,0,0,.2-.2.3-.2h.3c4.3,0,8.5.3,12.8.6,4.7.3,9.4.6,14.1.8,9.1.4,18.2.7,27.3.7h2.2c1.1.1,2.2,1.2,3.2,1.7.7.3,1.6.6,1.9,1.3v.7h0l.1.1ZM73,37.9v-.2c-.4-1.8-1.4-4-3.1-5h-.2c-1.1,1.1-2.3,1.9-3.5,3-.5.5-1.1,1-1.6,1.6-.4.4-.9.8-.9,1.3s.3.1.4.1c1,0,1.9.1,2.9.3.3,0,2-.6,1.5-.8-.8-.5-1.9-.5-2.9-.4.2-.4.9-1,1.1-1.1.5-.5,1-1.1,1.6-1.6.5-.4,1-.7,1.5-1,1,.9,1.7,2.1,2.1,3.4h0v.2c-.8.8-1.9,1.4-2.9,2.1-.9.6-1.8,1.2-2.6,1.9-8.9,0-17.8-.2-26.7-.3-8.4,0-16.8-.5-25.1-.6-.3-.1-.6-.2-.9-.4-1-.5-1.8-1.2-2.7-1.9-.9-.7-1.8-1.3-1.8-2.5,0-6.3-.9-12.5-.8-18.7v-.9c-.3-.7-.7-.6-.8,0s0,1.4,0,2.1c0,1.3,0,2.6.2,4v4.6c0,1.7.2,3.5.3,5.2v3.9c0,.4-.2.6,0,1,0,.3.3.5.5.7,1.1,1.1,2.2,2.2,3.5,3.1,0,0,.2.1.3.2h.4c8.1,1.6,16.9,1,25.1,1s15.1.1,22.6.2h3.6c.9,0,2,.3,2.8-.2,1.1-.7,2.1-1.4,3.1-2.2.5-.4,1-.7,1.5-1.1.3-.2,1.1-.6,1.1-1h.4Z"/>
          <path class="cls-2" d="M74.9,11.9c-.2,6.5-.7,13-.8,19.6,0,.5-.1,1.8-.9,1.6-.7-.2,0-4.4,0-4.9.2-5.4.3-10.9.7-16.3v-.3s-.1-.1-.2-.2c-.7-.5-1.4-1-2.1-1.5s-1.5-1.1-2.4-1h-.7c-4.4.3-9,0-13.5-.1-4.6-.1-9.1-.3-13.7-.5-4.7-.2-9.5-.4-14.2-.7-4.4-.3-9.2-1.2-13.6-.7-1.6,1.9-3.3,3.7-4.9,5.5,1.2.6,2.5,1.2,3.8,1.6h.5s.2-.1.2-.2c.9-1.1,1.7-2.2,2.5-3.4-.7.1-1.4.2-2.1.3-.2,0-.6.2-.8,0-.3-.1-.4-.8-.2-1h0c.8-.1,1.6-.2,2.4-.2s2.1-.3,2.2.3v.2c-.7,2-2.1,3.7-3.6,5.2,0,.1-.3.3-.5.3-.4.2-1-.2-1.4-.3-.5-.2-1.1-.4-1.6-.6-1.1-.3-2.2-.9-3.2-1.4v-.2c.6-1.3,2-2.5,3-3.6.9-1.1,2-2.1,2.9-3.2,0,0,.2-.2.3-.2h.3c4.3,0,8.5.3,12.8.6,4.7.3,9.4.6,14.1.8,9.1.4,18.2.7,27.3.7h2.2c1.1.1,2.2,1.2,3.2,1.7.7.3,1.6.6,1.9,1.3v.7h0l.1.1ZM73,37.4v-.2c-.4-1.8-1.4-4-3.1-5h-.2c-1.1,1.1-2.3,1.9-3.5,3-.5.5-1.1,1-1.6,1.6-.4.4-.9.8-.9,1.3s.3.1.4.1c1,0,1.9.1,2.9.3.3,0,2-.6,1.5-.8-.8-.5-1.9-.5-2.9-.4.2-.4.9-1,1.1-1.1.5-.5,1-1.1,1.6-1.6.5-.4,1-.7,1.5-1,1,.9,1.7,2.1,2.1,3.4h0v.2c-.8.8-1.9,1.4-2.9,2.1-.9.6-1.8,1.2-2.6,1.9-8.9,0-17.8-.2-26.7-.3-8.4,0-16.8-.5-25.1-.6-.3-.1-.6-.2-.9-.4-1-.5-1.8-1.2-2.7-1.9-.9-.7-1.8-1.3-1.8-2.5,0-6.3-.9-12.5-.8-18.7v-.9c-.3-.7-.7-.6-.8,0s0,1.4,0,2.1c0,1.3,0,2.6.2,4v4.6c0,1.7.2,3.5.3,5.2v3.9c0,.4-.2.6,0,1,0,.3.3.5.5.7,1.1,1.1,2.2,2.2,3.5,3.1,0,0,.2.1.3.2h.4c8.1,1.6,16.9,1,25.1,1s15.1.1,22.6.2h3.6c.9,0,2,.3,2.8-.2,1.1-.7,2.1-1.4,3.1-2.2.5-.4,1-.7,1.5-1.1.3-.2,1.1-.6,1.1-1h.4Z"/>
          <g>
            <path class="cls-5" d="M24.5,28.6c-.5-.4-1.3-.4-2-.3-.3,0-.7.2-.9.4,0-1-.8-1.8-1.6-2.5-1-.8-2-1.3-3.3-.9-1,.3-2.4,1-2.7,2.2-.3,1.1.7,2.1,1.3,2.9.3.5.7.9,1,1.1h0c.8,1,2.1.5,3,.1.7-.3,1.3-.8,1.7-1.4h0c.2.3.3.5.6.7.3.2.8.4,1.1.5.5.1,1.3-.3,1.6-.7.2-.3.4-.8.4-1.2s-.2-.7-.5-.9h.3Z"/>
            <path class="cls-5" d="M23.9,34.3c-.2-.3-.6-.4-1-.5-.5-.1-.9,0-1.4,0s-.7.2-.8.4c-.2.3-.3.6,0,.9,0,.2.4.4.7.6.4.2,1,.2,1.4.1.4,0,.8-.2,1.1-.5.3-.3.4-.8,0-1.1h0v.1Z"/>
            <path class="cls-5" d="M12.3,26.6c0-.2-.2-.4-.4-.5,0-.2-.8.1-.8.4v.6c0,.2.3.3.5.4,0,0,.4,0,.5-.2,0-.2.2-.4,0-.7h.2Z"/>
            <path class="cls-5" d="M29.2,37.6v-.2s-.2-.1-.3-.2c-.3-.1-.6-.1-.8-.2-.2,0-.4,0-.5.1,0,0-.4.2-.3.3,0,.2.3.4.5.5.4.1.7,0,1.1,0,0,0,.6-.2.5-.4h0l-.2.1Z"/>
            <path class="cls-3" d="M24.8,30.4c-.3.4-.7.8-1.2.9h-.5c-.8,0-1.5-.5-1.8-1.2-.3.6-1,1-1.6,1.4-.4.3-.9.5-1.4.6-.4,0-.8,0-1.2-.1-.4,0-.6-.4-.9-.7-.8-1-1.6-2.1-2-3.4,0,.7.3,1.4.7,2,.6,1,1.2,1.9,2,2.8h1.6c.3,0,.5-.2.8-.4.7-.4,1.4-.9,1.9-1.5-.2.2,1.6.7,1.7.8,1.2.3,1.3-.2,2-1.2h-.1Z"/>
            <path class="cls-3" d="M24.1,34.7c0,.4-.4.8-.8.9-.6.2-3,.4-2.7-.8,0,.5,0,1,.5,1.2.6.3,1.2.3,1.9.1.6-.2,1.1-.8,1.1-1.4h0Z"/>
          </g>
          <path class="cls-5" d="M66.4,14.3c-.3-.5-.8-.7-1.3-.9-.8-.3-1.8-.3-2.6-.1-.5.1-1,.2-1.5.4-.3.1-.6.2-.8.4-.3.2-.5.4-.7.6-.6.4-.9,1.2-.6,1.9.2.5.8.9,1.3,1s1.1,0,1.7,0c-.3,0,.7,0,.8,0,.9-.2,1.8-.5,2.6-1.1.6-.5,1.7-1.2,1.3-2.2h-.2Z"/>
          <path class="cls-5" d="M59.7,12.1c-.3-.1-.7-.1-1-.1h-.7c-.3,0-.6.2-.9.4-.2,0-.4.2-.5.4,0,0-.2.2-.2.4v.3h0c0,.3.3.3.5.4h1.2c-.4,0-.3,0,0,0,.4-.1.9-.3,1.3-.6.2-.2.5-.5.4-.8,0-.1-.2-.2-.4-.2l.3-.2h0Z"/>
          <path class="cls-5" d="M68.2,19.9h0s-.2-.1-.3-.1h-.6c-.3,0-.5.2-.7.4h0v.4c0,.1.2.1.3.1.3,0,.5,0,.8-.2,0,0,.9-.4.6-.7h0l-.1.1Z"/>
          <path class="cls-5" d="M63.5,33c-.2,0-.6,0-.8.1-.2,0-.5.2-.7.4-.2.3-.5.7-.4,1.2.2.5.8.5,1.3.4.3,0,.5,0,.8-.2.4-.2.8-.5.9-.9.2-.6-.7-.9-1.1-1.1h0v.1Z"/>
          <path class="cls-5" d="M17.5,18.2h-.9c-.2,0-.5,0-.7.2-.2,0-.4.2-.4.4s0,.3-.2.4v.2c0,.1.3.3.5.3h.8c.6,0,1.1-.3,1.3-.9h0c0-.2-.2-.5-.4-.5h0v-.1Z"/>
          <path class="cls-3" d="M66.7,14.8c-.6.9-1.5,1.5-2.5,2-.6.3-1.1.6-1.7.8-1.2.3-2.5,0-3.5-.7.6.4,1.3.8,2,1,.4.1.8.2,1.3.2s1.3-.4,1.9-.8c.9-.7,1.9-1.6,2.5-2.5Z"/>
          <path class="cls-3" d="M59.9,12.4c0,.4-.8.7-1.1.9-.4.2-.7.3-1.1.4-.4,0-.8,0-1.2-.2.2.3.4.6.8.7,0,0,.3.1.4.1s.3,0,.4-.1c.8-.4,1.6-.7,1.7-1.7h0l.1-.1Z"/>
          <path class="cls-3" d="M61.6,34.5c.2.5.4.5.9.6.9.1,2.4-.6,2-1.6.2.3,0,.8,0,1.2-.2.3-.5.6-.9.8-.2,0-.4.2-.6.2-.3,0-.7-.2-.9-.4-.2-.2-.3-.5-.4-.7h0l-.1-.1Z"/>
        </g>
      </g>
    </g>
  </g>
</svg>