<svg xmlns="http://www.w3.org/2000/svg" viewBox="0 0 100 100" preserveAspectRatio="xMidYMid" width="309" height="309" style="shape-rendering: auto; display: block; background: transparent;" xmlns:xlink="http://www.w3.org/1999/xlink"><g><g transform="rotate(0 50 50)">
  <rect fill="#fae69f" height="5" width="5" ry="2.5" rx="2.5" y="34.5" x="47.5">
    <animate repeatCount="indefinite" begin="-0.9881422924901185s" dur="1.0869565217391304s" keyTimes="0;1" values="1;0" attributeName="opacity"></animate>
  </rect>
</g><g transform="rotate(32.72727272727273 50 50)">
  <rect fill="#fae69f" height="5" width="5" ry="2.5" rx="2.5" y="34.5" x="47.5">
    <animate repeatCount="indefinite" begin="-0.8893280632411066s" dur="1.0869565217391304s" keyTimes="0;1" values="1;0" attributeName="opacity"></animate>
  </rect>
</g><g transform="rotate(65.45454545454545 50 50)">
  <rect fill="#fae69f" height="5" width="5" ry="2.5" rx="2.5" y="34.5" x="47.5">
    <animate repeatCount="indefinite" begin="-0.7905138339920947s" dur="1.0869565217391304s" keyTimes="0;1" values="1;0" attributeName="opacity"></animate>
  </rect>
</g><g transform="rotate(98.18181818181819 50 50)">
  <rect fill="#fae69f" height="5" width="5" ry="2.5" rx="2.5" y="34.5" x="47.5">
    <animate repeatCount="indefinite" begin="-0.6916996047430829s" dur="1.0869565217391304s" keyTimes="0;1" values="1;0" attributeName="opacity"></animate>
  </rect>
</g><g transform="rotate(130.9090909090909 50 50)">
  <rect fill="#fae69f" height="5" width="5" ry="2.5" rx="2.5" y="34.5" x="47.5">
    <animate repeatCount="indefinite" begin="-0.592885375494071s" dur="1.0869565217391304s" keyTimes="0;1" values="1;0" attributeName="opacity"></animate>
  </rect>
</g><g transform="rotate(163.63636363636363 50 50)">
  <rect fill="#fae69f" height="5" width="5" ry="2.5" rx="2.5" y="34.5" x="47.5">
    <animate repeatCount="indefinite" begin="-0.49407114624505927s" dur="1.0869565217391304s" keyTimes="0;1" values="1;0" attributeName="opacity"></animate>
  </rect>
</g><g transform="rotate(196.36363636363637 50 50)">
  <rect fill="#fae69f" height="5" width="5" ry="2.5" rx="2.5" y="34.5" x="47.5">
    <animate repeatCount="indefinite" begin="-0.39525691699604737s" dur="1.0869565217391304s" keyTimes="0;1" values="1;0" attributeName="opacity"></animate>
  </rect>
</g><g transform="rotate(229.0909090909091 50 50)">
  <rect fill="#fae69f" height="5" width="5" ry="2.5" rx="2.5" y="34.5" x="47.5">
    <animate repeatCount="indefinite" begin="-0.2964426877470355s" dur="1.0869565217391304s" keyTimes="0;1" values="1;0" attributeName="opacity"></animate>
  </rect>
</g><g transform="rotate(261.8181818181818 50 50)">
  <rect fill="#fae69f" height="5" width="5" ry="2.5" rx="2.5" y="34.5" x="47.5">
    <animate repeatCount="indefinite" begin="-0.19762845849802368s" dur="1.0869565217391304s" keyTimes="0;1" values="1;0" attributeName="opacity"></animate>
  </rect>
</g><g transform="rotate(294.54545454545456 50 50)">
  <rect fill="#fae69f" height="5" width="5" ry="2.5" rx="2.5" y="34.5" x="47.5">
    <animate repeatCount="indefinite" begin="-0.09881422924901184s" dur="1.0869565217391304s" keyTimes="0;1" values="1;0" attributeName="opacity"></animate>
  </rect>
</g><g transform="rotate(327.27272727272725 50 50)">
  <rect fill="#fae69f" height="5" width="5" ry="2.5" rx="2.5" y="34.5" x="47.5">
    <animate repeatCount="indefinite" begin="0s" dur="1.0869565217391304s" keyTimes="0;1" values="1;0" attributeName="opacity"></animate>
  </rect>
</g><g></g></g><!-- [ldio] generated by https://loading.io --></svg>