<?xml version="1.0" encoding="UTF-8"?>
<svg xmlns="http://www.w3.org/2000/svg" xmlns:xlink="http://www.w3.org/1999/xlink" viewBox="0 0 64.65 66.2">
  <defs>
    <style>
      .cls-1 {
        fill: url(#linear-gradient);
      }

      .cls-1, .cls-2, .cls-3, .cls-4, .cls-5 {
        stroke-width: 0px;
      }

      .cls-2 {
        fill: #e0a186;
      }

      .cls-3 {
        fill: url(#linear-gradient-2);
      }

      .cls-4 {
        fill: url(#linear-gradient-3);
      }

      .cls-6, .cls-5 {
        isolation: isolate;
      }

      .cls-5 {
        fill: #f2e4d7;
        mix-blend-mode: multiply;
      }
    </style>
    <linearGradient id="linear-gradient" x1="31.71" y1="-858.7" x2="33.41" y2="-956.2" gradientTransform="translate(0 -873.8) scale(1 -1)" gradientUnits="userSpaceOnUse">
      <stop offset="0" stop-color="#b64349"/>
      <stop offset="1" stop-color="#5b1135"/>
    </linearGradient>
    <linearGradient id="linear-gradient-2" x1="31.76" y1="-885.2" x2="37.56" y2="-1003.5" gradientTransform="translate(0 -873.8) scale(1 -1)" gradientUnits="userSpaceOnUse">
      <stop offset="0" stop-color="#c66261"/>
      <stop offset="1" stop-color="#5d1930"/>
    </linearGradient>
    <linearGradient id="linear-gradient-3" x1="34.18" y1="-944.7" x2="31.48" y2="-895.7" xlink:href="#linear-gradient"/>
  </defs>
  <g class="cls-6">
    <g id="Layer_2" data-name="Layer 2">
      <g id="Layer_1-2" data-name="Layer 1">
        <g>
          <g>
            <path class="cls-1" d="M.92,12.9C4.12,8.3,7.62,4.6,11.62,2.2c.9-.5,1.9-.9,3-.9L49.52,0c1.3,0,2.6.3,3.7,1.1,4.6,3.2,8,7.3,10.4,11.4.6,1,.9,2.1.9,3.2v18.2c0,1.7.6,6.4-.7,7.8-.4.4-1.2.6-1.4,1.2,0-.3,1.5.8,1.6.9.6.8.3,1.5.3,2.4v3.5c0,1.3-.5,2.6-1.3,3.7-4.2,5.5-8.9,9.5-14.1,12.2-.8.4-1.7.6-2.6.6h-26.4c-1,0-2.1-.3-3-.8-4.6-2.5-8.3-5.6-12.4-9.7s-1.7-2.4-1.8-3.9c-.5-5.3-1.2-10.4,0-15.6,0-.3.1-.7.1-1s-.3-.7-.4-1.1C.02,29.3.42,22.2.02,16.9c-.1-1.4.3-2.8,1.1-4h-.2Z"/>
            <path class="cls-3" d="M57.12,36.4c0,1.6.1,3.2,0,4.7v8.4c-3.3,4.4-7,7.7-11.1,9.8h-25.9c-3.4-1.9-6.4-4.3-10.4-8.2h0c-.1-1.5-.2-2.8-.3-4.2v-.7c0-.5,0-1.1-.1-1.6-.2-2.2-.5-4.4-.5-6.5s.8-2.9.7-4.1c0-.3-.2-.6-.4-.9-1.8-2.9-1.3-7.3-1.6-10.7,0-.3,0-.7-.2-1.3-.3-1.6-.7-3.9-.3-4.5.4-.6.8-1.2,1.3-1.7,2.3-3,4.6-5.3,6.9-6.7l34.3-1.2c1.5,0,4.8,4.3,5.7,5.4,1.1,1.4,1.9,3.6,2.1,5.8v2.7h0c0,.5-.1,1-.3,1.5-.1.6-.3,1.1-.6,1.6-.4.7-2.6,2.5-2.6,3.2s0,.4.2.5c.6.6,2.3,0,3.1-.2v3.5c0,1.8,0,3.7.2,5.5h-.2v-.1Z"/>
            <g>
              <path class="cls-2" d="M57.12,20.8c.4-3.9-4.6-8.5-6.7-11.1-.2-.2-.3-.4-.6-.5-.3-.1-.6-.1-.9-.1-5.1.3-10.1-.5-15.3-.2-5.5.3-10.9.9-16.4,1.5-5.1.6-5.9,3.2-9,6.7-.3.3-.6.7-.7,1.1s-.1.8-.1,1.2c0,1.6.2,3.2.2,4.8s.2,3.6.9,5.2c.9,2.1,2.9,4.2,2.1,6.4-.2.7-.7,1.2-1.1,1.8-1.4,2.7,0,5.7-.3,8.5,0-.5,0-1.1-.1-1.6-.2-2.2-.5-4.4-.5-6.5s.8-2.9.7-4.1c0-.3-.2-.6-.4-.9-1.8-2.9-1.3-7.3-1.6-10.7,0-1-1-5-.5-5.8,2.8-3.9,5.5-6.7,8.2-8.4l34.3-1.2c1.5,0,4.8,4.3,5.7,5.4,1.6,2,2.4,5.5,2.1,8.5h0Z"/>
              <path class="cls-2" d="M57.12,41.1v3.4c-.6-3.3-1.2-6.5-1.4-9.8-.2-2.3-.3-5-2.1-6.5,0-.2.2-.4.3-.6.6.6,2.3,0,3.1-.2-.2,4.5.2,9.2.2,13.8h-.1v-.1Z"/>
            </g>
          </g>
          <g>
            <path class="cls-5" d="M13.82,19.2c2.4-2.4,6.9-2.4,9.8-1.2,1.1.5,1.9,1,2.3,2.2.3.9,0,1.9-.5,2.6-.9,1.1-2.8,1.5-4.1,1.7-1.1.1-2.4.3-3.5,0-1.2-.2-3.2-1.1-3.8-1.5-.5-.4-.9-.8-1-1.5,0-.7.4-1.8.9-2.3h-.1Z"/>
            <path class="cls-5" d="M12.82,27.3v-.2c0-.3.3-.5.6-.7h.1c.4-.2.9-.3,1.4-.4.7-.2,1.4-.2,2-.1.7,0,1.4.2,2,.5.7.3,2,.8,1.8,1.7,0,.6-1,.9-1.5,1.1-.8.2-1.8.2-2.7.2s-1.8-.2-2.6-.6c-.3-.1-.6-.3-.8-.5-.2-.2-.5-.5-.5-.8l.2-.2Z"/>
            <path class="cls-5" d="M26.82,14h.4c.2,0,.5,0,.7.2,0,0,.1,0,.1.1h-.3c0,.1-.2.1-.3.1h-.4s-.2-.2-.2-.3v-.3.2h0Z"/>
            <path class="cls-5" d="M35.12,50.7c-.1-.3-.4-.7-.4-1h0c0-.7,1.3-1,1.8-1.1,1-.2,2-.2,2.9,0-1.7-.6-3.2-1.5-4.2-3.1-1.1-1.8-1.5-3.9-.9-5.9.7-2.4,2.6-3.3,4.9-3.8,3.7-.7,9.8-.5,12.5,2.7,1.1,1.3,1.5,3.3.9,5-.6,1.6-1.6,2.7-3,3.4h0c0,2.8-4.4,2.6-6.4,2.5-.4,0-.8,0-1.2-.1.8.3,1.5.8,2.2,1.6,0,.2,0,.3.1.5v.2c-.4.9-1.5,1.1-2.5,1.2-.4.3-1,.5-1.4.5-1.1.1-2.3,0-3.3-.4-.5-.2-.9-.4-1.2-.7-.3-.2-.5-.6-.6-.9,0,0-.2-.1-.2-.2v-.4h0Z"/>
            <path class="cls-5" d="M47.02,29.7v-.4c0-.2.8-.1.9,0,0,.2,0,.5.1.7h-.4c-.1,0-.3,0-.4-.1,0,0-.1,0-.1-.2v-.2.2h-.1Z"/>
            <path class="cls-5" d="M18.52,48.3c0-.1.2-.2.2-.4.1-.3.7-.3,1-.3s1,0,1.2.4c.1.1.2.3.3.4,0,.2.2.4,0,.6-.1.2-.4.3-.5.4-.3.2-.6.2-1,.3-.4,0-.9,0-1.2-.3-.1-.1-.2-.3-.3-.4-.1-.2,0-.4.1-.5l.2-.2h0Z"/>
          </g>
          <g>
            <path class="cls-4" d="M48.92,51.5v.2c-1,.8-18.1-13-18.1-13,0,0-14.5,12.6-15.3,11.8s10.3-16.6,10.3-16.6c0,0-10.3-12.8-8.8-14.7h.2c1.9-.9,13.9,8.2,13.9,8.2,0,0,14.3-12.8,17-14,.2,0,.3-.1.4,0,1.2.4-11.2,19-11.5,19.5h0s12,16.7,12,18.7h-.1v-.1Z"/>
            <path class="cls-2" d="M48.92,51.5v.2c-1,.8-18.1-13-18.1-13,0,0-14.5,12.6-15.3,11.8,2.7-3,14.5-15.9,15.3-15.9s12.1,11,18.2,17h-.1v-.1Z"/>
            <path class="cls-2" d="M25.72,33.8s-10.3-12.8-8.8-14.7h.2c3.7,4.1,10.5,10.5,10.5,11.9,0,0-2.1,2.6-1.8,2.8h-.1Z"/>
            <path class="cls-2" d="M36.92,32.7h0s-.4-1.3-.6-2c-.2-.4,6.4-10.4,11.8-17.5.2,0,.3-.1.4,0,1.2.4-11.2,19-11.5,19.5h-.1Z"/>
          </g>
        </g>
      </g>
    </g>
  </g>
</svg>