<?xml version="1.0" encoding="UTF-8"?>
<svg id="Layer_2" data-name="Layer 2" xmlns="http://www.w3.org/2000/svg" xmlns:xlink="http://www.w3.org/1999/xlink" viewBox="0 0 193 232.9">
  <defs>
    <style>
      .cls-1 {
        fill: #904b4f;
      }

      .cls-1, .cls-2, .cls-3, .cls-4, .cls-5, .cls-6, .cls-7 {
        stroke-width: 0px;
      }

      .cls-2 {
        fill: url(#linear-gradient);
      }

      .cls-3 {
        fill: url(#radial-gradient);
      }

      .cls-4 {
        fill: #f0c996;
      }

      .cls-8, .cls-7 {
        mix-blend-mode: multiply;
      }

      .cls-5 {
        fill: #6f71c7;
      }

      .cls-6, .cls-7 {
        fill: #f2e4d7;
      }

      .cls-9, .cls-7 {
        isolation: isolate;
      }
    </style>
    <linearGradient id="linear-gradient" x1="96.5" y1="348.44" x2="96.5" y2="40.04" gradientTransform="translate(0 296.54) scale(1 -1)" gradientUnits="userSpaceOnUse">
      <stop offset="0" stop-color="#d89979"/>
      <stop offset=".3" stop-color="#ac645f"/>
      <stop offset=".6" stop-color="#792640"/>
      <stop offset=".8" stop-color="#5b316c"/>
      <stop offset="1" stop-color="#4b3884"/>
    </linearGradient>
    <radialGradient id="radial-gradient" cx="102.2" cy="299.04" fx="102.2" fy="299.04" r="434.3" gradientTransform="translate(0 296.54) scale(1 -1)" gradientUnits="userSpaceOnUse">
      <stop offset="0" stop-color="#e4a482"/>
      <stop offset="1" stop-color="#865f6a"/>
    </radialGradient>
  </defs>
  <g id="Layer_1-2" data-name="Layer 1">
    <g class="cls-9">
      <g id="objects">
        <g>
          <path class="cls-5" d="M193,11.8c0,9.6-.2,19.1-.3,28.7-.2,19.2-.5,38.4-1.2,57.6,0,.2,0,.5-.2.7-.1.1-.3.2-.5.3-.7.3-.9,1.2-.7,1.9s.6,1.3,1,1.9c.8,1.6.8,3,.6,4.7-.2,1.9-.2,3.9-.2,5.8,0,4.1-.2,8.1-.3,12.2-.2,8.1-.4,16.3-.6,24.4-.2,9.7-.5,19.5-.7,29.2-.1,4.9-.3,9.9-.4,14.8,0,3.4.6,7.8-.9,10.8-.2.4-.6.7-1,.7.6.9,1.2,1.7,1.5,2.7.6,2.1,0,4.9,0,7,0,2.6-.1,5.3-.2,7.9,0,1.1-.4,2.2-1,3-1.6,2.1-3.9,4-6.6,5.8-.9.6-2,.9-3.1.9-3.1,0-6.2-.1-9.3-.2-4.9,0-9.9-.2-14.8-.3-3.3,0-8.3.6-10.3-2.8-.2.7-.3,1.3-.5,2,0,.2-.1.4-.3.6-.2.1-.4.2-.7.2-11,0-22.1-.3-33.2-.4h-29.9c-5,0-10,0-15,.1h-7.5c-1.6,0-4.3,0-5.7-.7-.3-.2-.6-.5-1-.6-.7-.3-1.6.1-2.2.6-1.5,1-2.5.9-4.2,1-9.5.2-19.1.4-28.6.6-1.1,0-2.2-.3-3.1-.9-2.7-1.8-5-3.7-6.6-5.8-.7-.9-1-1.9-1.1-3-.4-13.5-.8-27-1.1-40.5,0-2.2-.3-4.5-.4-6.7,0-1.6.2-3.3,2-3.9-.2-.8-1.4-.5-2-1.1-.2-.3-.3-.6-.3-1-.1-1-.2-2-.3-3-.1-1.1-.2-2.2.5-3,.9-1,1.3-1.6.7-3-.4-.9-1.2-1.3-1.2-2.4.2-2.8.3-5.4.2-8.2-.1-4.6-.2-9.3-.3-13.9-.2-7.5-.3-15-.5-22.5-.1-7.3-.7-14.4.5-21.7.1-.8.3-1.6,0-2.3-.1-.3-.3-.6-.4-1-.2-.5-.2-.9-.3-1.4-.9-6.2-.5-12.5-.6-18.7-.1-6.6-.2-13.2-.3-19.8C.2,36.7.1,24.3,0,11.9c0-1.2.4-2.4,1.1-3.3C3.1,6,5.3,3.6,7.8,1.8c.9-.7,2.1-1.1,3.2-1.1h171c1.2,0,2.3.4,3.2,1.1,2.5,1.9,4.7,4.2,6.7,6.8.7,1,1.1,2.1,1.1,3.3v-.1Z"/>
          <path class="cls-2" d="M193,11.1c0,9.6-.2,19.1-.3,28.7-.2,19.2-.5,38.4-1.2,57.6,0,.2,0,.5-.2.7-.1.1-.3.2-.5.3-.7.3-.9,1.2-.7,1.9s.6,1.3,1,1.9c.8,1.6.8,3,.6,4.7-.2,1.9-.2,3.9-.2,5.8,0,4.1-.2,8.1-.3,12.2-.2,8.1-.4,16.3-.6,24.4-.2,9.7-.5,19.5-.7,29.2-.1,4.9-.3,9.9-.4,14.8,0,3.4.6,7.8-.9,10.8-.2.4-.6.7-1,.7.6.9,1.2,1.7,1.5,2.7.6,2.1,0,4.9,0,7,0,2.6-.1,5.3-.2,7.9,0,1.1-.4,2.2-1,3-1.6,2.1-3.9,4-6.6,5.8-.9.6-2,.9-3.1.9-3.1,0-6.2-.1-9.3-.2-4.9,0-9.9-.2-14.8-.3-3.3,0-8.3.6-10.3-2.8-.2.7-.3,1.3-.5,2,0,.2-.1.4-.3.6-.2.1-.4.2-.7.2-11,0-22.1-.3-33.2-.4h-29.9c-5,0-10,0-15,.1h-7.5c-1.6,0-4.3,0-5.7-.7-.3-.2-.6-.5-1-.6-.7-.3-1.6.1-2.2.6-1.5,1-2.5.9-4.2,1-9.5.2-19.1.4-28.6.6-1.1,0-2.2-.3-3.1-.9-2.7-1.8-5-3.7-6.6-5.8-.7-.9-1-1.9-1.1-3-.4-13.5-.8-27-1.1-40.5,0-2.2-.3-4.5-.4-6.7,0-1.6.2-3.3,2-3.9-.2-.8-1.4-.5-2-1.1-.2-.3-.3-.6-.3-1-.1-1-.2-2-.3-3-.1-1.1-.2-2.2.5-3,.9-1,1.3-1.6.7-3-.4-.9-1.2-1.3-1.2-2.4.2-2.8.3-5.4.2-8.2-.1-4.6-.2-9.3-.3-13.9-.2-7.5-.3-15-.5-22.5-.1-7.3-.7-14.4.5-21.7.1-.8.3-1.6,0-2.3-.1-.3-.3-.6-.4-1-.2-.5-.2-.9-.3-1.4-.9-6.2-.5-12.5-.6-18.7-.1-6.6-.2-13.2-.3-19.8C.2,36,.1,23.6,0,11.2c0-1.2.4-2.4,1.1-3.3C3.1,5.3,5.3,2.9,7.8,1.1c.9-.7,2.1-1.1,3.2-1.1h171c1.2,0,2.3.4,3.2,1.1,2.5,1.9,4.7,4.2,6.7,6.8.7,1,1.1,2.1,1.1,3.3v-.1Z"/>
          <path class="cls-3" d="M189,10.6v4.6c0,4.8,0,9.6-.1,14.6v1.3c0,4.9-.1,9.8-.2,14.9v1.1c0,7.5-.2,15.2-.3,23.1v1.5c0,2.4,0,4.8-.1,7.2v.7c0,2.6,0,5.3-.1,8v1.5c0,1.9,0,3.9-.1,5.8,0,.7.2,1.8,0,2.5-.3.7-1.1,1-1.5,1.6-.8,1-.4,2.4.2,3.5,1.4,2.8,1.1,5.5,1.1,8.5v2.4c0,3.6-.2,7.3-.2,11v1.6c0,1.6,0,3.2-.1,4.9v2.7c-.1,4.9-.2,9.9-.3,14.9-.2,7.8-.4,15.8-.6,23.9,0,1.3,0,2.6-.1,3.8-.2,4.5-.2,9-.3,13.5-.1,4.2.4,9-.6,13.1-4-1.3-7.8-3-11.4-5,3.5,2.9,7.3,5.4,11.4,7.5.2.1.4.2.5.4.1.2,0,.5,0,.8-1,4.9-.6,10.3-.7,15.4,0,.4-.1.7-.3.9-1.3,1.6-3.2,3.3-5.8,5-.3.2-.7.3-1,.3h0c-24-.5-55.6-1.1-87.1-1.1s-32.4.2-47.6.5l-28.6.6c-.4,0-.7-.1-1.1-.3-2.6-1.7-4.5-3.4-5.8-5-.2-.2-.3-.6-.3-.9,0-3.6-.2-7.1-.3-10.6v-3.3c-.1-4.9-.3-9.8-.4-14.6v-1.1c-.2-3.9-.2-7.8-.3-11.7,0-1.9,0-4-.2-5.9-.2-1.3-.9-2.3.3-3.4.6-.6,1.3-.9,2.1-1.2,3-1.3,6-2.5,9-3.8,1.2-.5,2.5-1,3.8-1.3-5.1,1.3-10.2,2.7-15.3,4.3-.4-2.3-.1-4.7-.2-6.9,0-2.3-.2-4.6-.2-6.9s0-.5,0-.7v-3.9c0-3.3-.2-6.7-.2-9.9v-1.1c-.2-6.6-.3-13-.4-19.3v-1.3c-.1-6.2-.3-12.4-.4-18.4v-1.8c0-4.1-.2-8.1-.2-12.1v-1.9c-.2-10.1-.3-19.9-.5-29.3v-1.1c0-4.9-.1-9.6-.2-14.3v-1.7c0-5.4-.1-10.6-.2-15.8v-12.1c0-.4.1-.8.4-1.1,2-2.6,4-4.6,6-6.1.3-.2.7-.4,1.1-.4h171c.4,0,.8.1,1.1.4,2.1,1.5,4.1,3.5,6,6.1.2.3.4.7.4,1.1l-1.1-.2Z"/>
          <path class="cls-4" d="M189,10.6c0,17.3-.3,34.6-.6,51.9,0,6.3-.2,12.7-.3,19,0,3.2-.1,6.4-.2,9.7v5c0,1.8-.4,1.9-1.3,3.3-.5.7-.1,1.7.3,2.4,1.7,2.8.8,7,.7,10.2,0,4-.2,7.9-.3,11.9-.2,8.1-.4,16.2-.6,24.3-.7-8.9-.9-17.8-.9-26.7,0-4.5,0-8.9.2-13.4,0-1,0-2,.2-3,.1-.5.5-1,.4-1.5,0-.7-2.4-3.8-1.7-4.4.4-.4.9-.8,1.2-1.3.6-1.3.2-3.8.2-5.2,0-2,.1-4,.2-5.9.1-4,.3-7.9.4-11.9.3-6.4-.6-12.8,0-19.3.2-2.4.5-4.9.5-7.4s-.3-5.2-.5-7.8c-.5-5.5-.5-11.1-.2-16.7.2-3.9,2.2-9.7.3-13.4-1.4-2.8-4.8-5.9-8-6.7-3.3-.8-6.9-.2-10.2,0-6.7.3-13.4.4-20.1.2-6-.1-11.9-.9-17.8,0-2.1.3-4.1.8-6.2.9-2.2.2-4.4,0-6.6,0-18.8-.9-37.4-1.2-56.3-.9-9.5.1-18.9.3-28.4.5-4.7.1-9.4.2-14.2.3-3.9,0-7.9-.8-11.1,1.7-1.4,1-3.9,2.9-4.5,4.5-.2.5-.2,1-.2,1.6.3,15.5.9,31,1.4,46.6.3,9.4.6,18.8.4,28.3,0,2.2-.4,4.6,0,6.7.2,1.4.7,2.7.7,4.2.1,4.5,0,9,0,13.4,0,12.5-.3,25.1-.9,37.6v1.5C3.7,96.7,2.9,50.5,2.7,10.6c0-.4.1-.8.4-1.1,2-2.6,4-4.6,6-6.1.3-.2.7-.4,1.1-.4h171c.4,0,.8.1,1.1.4,2.1,1.5,4.1,3.5,6,6.1.2.3.4.7.4,1.1h.3Z"/>
          <path class="cls-4" d="M183.1,13.6c-1-1.2-2.1-2.5-3.3-3.6-3.2-2.7-7.7-2.5-11.8-2.6-5.1-.1-10.2-.2-15.2-.3-7.2-.2-14.3-.2-21.5-.2s-43.4.1-50.4.3c-7-.2-14-.3-21-.3s-14.3,0-21.5.2c-5.1.1-10.2.2-15.2.3-4.1.1-8.5-.1-11.8,2.6-1.3,1.1-2.3,2.3-3.3,3.6-.8.9-2.2,1.7-1.6,2.9,1.1,2.5,3.9,4.4,6.2,5.9,1.3.9,3-1.8,3.6-2.6,1-1.3,1.9-2.8,3-4.1.7-.8,1.4-1,.6-1.8-.7-.7-1.4-1.3-2-2.1-.4-.5-1.6.2-1.9.5-1.4,1.3-2.6,2.7-4,4-.8.7,1.4.3,1.8-.1.8-1,1.8-1.9,2.9-2.7.7-.5.5-.4,1,0,.4.3.8.8.8,1.3,0,.2,0,.4-.2.6-1.1,2-3.1,3.4-4.4,5.3-.3.4-4.3-3.3-4.7-3.7-1-.9-1-1.6,0-2.6,1.4-1.5,2.9-3.4,4.7-4.5,2.7-1.6,5.8-1.1,8.8-1.1,5,0,10.1-.1,15.1-.3,7.6-.2,14.9-.5,22.5-.5,3.7,0,7.5,0,11.2.2,10,.3,49.4-.2,59.4-.2,7.6,0,14.9.4,22.5.5,5,.1,10.1.2,15.1.3,3,0,6.2-.4,8.8,1.1,1.8,1.1,3.3,2.9,4.7,4.5.9,1,.9,1.6,0,2.6-.4.4-4.4,4.1-4.7,3.7-1.3-1.9-3.3-3.3-4.4-5.3-.1-.2-.2-.4-.2-.6,0-.5.4-1,.8-1.3.5-.5.3-.6,1,0,1,.8,2,1.7,2.9,2.7.4.5,2.7.9,1.8.1-1.4-1.2-2.7-2.7-4-4-.3-.3-1.5-.9-1.9-.5-.6.7-1.3,1.4-2,2.1-.9.9-.2,1,.6,1.8,1.1,1.3,2.1,2.8,3,4.1.6.8,2.3,3.4,3.6,2.6,2.3-1.5,5.1-3.4,6.2-5.9.6-1.3-.8-2-1.6-2.9h0Z"/>
          <path class="cls-1" d="M183,13c-1-1.2-2.1-2.5-3.3-3.6-3.2-2.7-7.7-2.5-11.8-2.6-5.1-.1-10.2-.2-15.2-.3-7.2-.2-14.3-.2-21.5-.2s-43.4.1-50.4.3c-7-.2-14-.3-21-.3s-14.3,0-21.5.2c-5.1.1-10.2.2-15.2.3-4.1.1-8.5-.1-11.8,2.6-1.3,1.1-2.3,2.3-3.3,3.6-.8.9-2.2,1.7-1.6,2.9,1.1,2.5,3.9,4.4,6.2,5.9,1.3.9,3-1.8,3.6-2.6,1-1.3,1.9-2.8,3-4.1.7-.8,1.4-1,.6-1.8-.7-.7-1.4-1.3-2-2.1-.4-.5-1.6.2-1.9.5-1.4,1.3-2.6,2.7-4,4-.8.7,1.4.3,1.8-.1.8-1,1.8-1.9,2.9-2.7.7-.5.5-.4,1,0,.4.3.8.8.8,1.3,0,.2,0,.4-.2.6-1.1,2-3.1,3.4-4.4,5.3-.3.4-4.3-3.3-4.7-3.7-1-.9-1-1.6,0-2.6,1.4-1.5,2.9-3.4,4.7-4.5,2.7-1.6,5.8-1.1,8.8-1.1,5,0,10.1-.1,15.1-.3,7.6-.2,14.9-.5,22.5-.5,3.7,0,7.5,0,11.2.2,10,.3,49.4-.2,59.4-.2,7.6,0,14.9.4,22.5.5,5,.1,10.1.2,15.1.3,3,0,6.2-.4,8.8,1.1,1.8,1.1,3.3,2.9,4.7,4.5.9,1,.9,1.6,0,2.6-.4.4-4.4,4.1-4.7,3.7-1.3-1.9-3.3-3.3-4.4-5.3-.1-.2-.2-.4-.2-.6,0-.5.4-1,.8-1.3.5-.5.3-.6,1,0,1,.8,2,1.7,2.9,2.7.4.5,2.7.9,1.8.1-1.4-1.2-2.7-2.7-4-4-.3-.3-1.5-.9-1.9-.5-.6.7-1.3,1.4-2,2.1-.9.9-.2,1,.6,1.8,1.1,1.3,2.1,2.8,3,4.1.6.8,2.3,3.4,3.6,2.6,2.3-1.5,5.1-3.4,6.2-5.9.6-1.3-.8-2-1.6-2.9h0Z"/>
          <path class="cls-4" d="M181.9,219.5c-1,1.2-2,2.4-3.2,3.5-3.1,2.6-7.5,2.4-11.4,2.5-4.9.1-9.9.2-14.8.3-7,.2-13.9.2-20.9.2s-42.2-.1-49-.3c-6.8.2-13.6.3-20.4.3s-13.9,0-20.9-.2c-4.9-.1-9.9-.2-14.8-.3-3.9-.1-8.3.1-11.4-2.5-1.2-1-2.2-2.3-3.2-3.5-.8-.9-2.1-1.6-1.6-2.9,1-2.4,3.8-4.3,6-5.7,1.3-.8,3,1.7,3.5,2.5.9,1.3,1.9,2.8,3,4,.7.8,1.4.9.5,1.8-.7.7-1.4,1.3-2,2-.4.5-1.6-.2-1.9-.5-1.3-1.3-2.5-2.7-3.9-3.9-.8-.7,1.4-.3,1.8.1.8.9,1.8,1.9,2.8,2.6.7.5.5.4,1,0,.4-.3.8-.8.8-1.3,0-.2,0-.4-.2-.6-1.1-1.9-3-3.3-4.3-5.2-.3-.4-4.2,3.2-4.6,3.6-.9.9-1,1.5,0,2.5,1.4,1.5,2.8,3.3,4.6,4.3,2.6,1.5,5.7,1.1,8.6,1.1,4.9,0,9.9.1,14.7.3,7.4.2,14.5.5,21.9.5,3.6,0,7.3,0,10.9-.2,9.7-.3,48.1.2,57.8.2,7.4,0,14.5-.3,21.9-.5,4.9-.1,9.8-.2,14.7-.3,2.9,0,6,.4,8.6-1.1,1.8-1.1,3.2-2.8,4.6-4.3.9-1,.9-1.6,0-2.5-.4-.4-4.3-4-4.6-3.6-1.3,1.8-3.2,3.3-4.3,5.2,0,.2-.2.4-.2.6,0,.5.4,1,.8,1.3.5.5.3.6,1,0,1-.7,2-1.7,2.8-2.6.4-.5,2.6-.8,1.8-.1-1.4,1.2-2.6,2.6-3.9,3.9-.3.3-1.5.9-1.9.5-.6-.7-1.3-1.3-2-2-.9-.9-.2-1,.5-1.8,1.1-1.2,2-2.7,3-4,.5-.8,2.2-3.3,3.5-2.5,2.2,1.4,5,3.3,6,5.7.5,1.2-.8,2-1.6,2.9h-.1Z"/>
          <path class="cls-1" d="M181.8,218.8c-1,1.2-2,2.4-3.2,3.5-3.1,2.6-7.5,2.4-11.4,2.5-4.9.1-9.9.2-14.8.3-7,.2-13.9.2-20.9.2s-42.2-.1-49-.3c-6.8.2-13.6.3-20.4.3s-13.9,0-20.9-.2c-4.9-.1-9.9-.2-14.8-.3-3.9-.1-8.3.1-11.4-2.5-1.2-1-2.2-2.3-3.2-3.5-.8-.9-2.1-1.6-1.6-2.9,1-2.4,3.8-4.3,6-5.7,1.3-.8,3,1.7,3.5,2.5.9,1.3,1.9,2.8,3,4,.7.8,1.4.9.5,1.8-.7.7-1.4,1.3-2,2-.4.5-1.6-.2-1.9-.5-1.3-1.3-2.5-2.7-3.9-3.9-.8-.7,1.4-.3,1.8.1.8.9,1.8,1.9,2.8,2.6.7.5.5.4,1,0,.4-.3.8-.8.8-1.3,0-.2,0-.4-.2-.6-1.1-1.9-3-3.3-4.3-5.2-.3-.4-4.2,3.2-4.6,3.6-.9.9-1,1.5,0,2.5,1.4,1.5,2.8,3.3,4.6,4.3,2.6,1.5,5.7,1.1,8.6,1.1,4.9,0,9.9.1,14.7.3,7.4.2,14.5.5,21.9.5,3.6,0,7.3,0,10.9-.2,9.7-.3,48.1.2,57.8.2,7.4,0,14.5-.3,21.9-.5,4.9-.1,9.8-.2,14.7-.3,2.9,0,6,.4,8.6-1.1,1.8-1.1,3.2-2.8,4.6-4.3.9-1,.9-1.6,0-2.5-.4-.4-4.3-4-4.6-3.6-1.3,1.8-3.2,3.3-4.3,5.2,0,.2-.2.4-.2.6,0,.5.4,1,.8,1.3.5.5.3.6,1,0,1-.7,2-1.7,2.8-2.6.4-.5,2.6-.8,1.8-.1-1.4,1.2-2.6,2.6-3.9,3.9-.3.3-1.5.9-1.9.5-.6-.7-1.3-1.3-2-2-.9-.9-.2-1,.5-1.8,1.1-1.2,2-2.7,3-4,.5-.8,2.2-3.3,3.5-2.5,2.2,1.4,5,3.3,6,5.7.5,1.2-.8,2-1.6,2.9h-.1Z"/>
          <g>
            <path class="cls-7" d="M35.6,201.1c-.9-.6-2.2-.7-3.3-.5-.5,0-1.2.3-1.5.6-.2-1.7-1.3-3-2.6-4.1-1.7-1.3-3.3-2.1-5.4-1.4-1.7.5-4,1.7-4.4,3.6-.4,1.8,1.1,3.4,2.1,4.8.6.8,1.1,1.4,1.7,1.8,0,0,0,.1.1.2,1.3,1.5,3.5.7,5,0,1.1-.5,2.2-1.3,2.9-2.4h0c.3.5.5.9,1,1.2.5.3,1.3.6,1.9.8.8.2,2.2-.4,2.7-1.2.3-.5.7-1.3.7-1.9,0-.7-.3-1.1-.9-1.5Z"/>
            <path class="cls-7" d="M34.6,210.7c-.4-.5-1.1-.6-1.6-.8-.8-.2-1.6-.1-2.4,0-.5.1-1.1.3-1.4.7-.3.5-.5.9-.2,1.5.2.4.7.7,1.1.9.7.3,1.6.3,2.3.2.6,0,1.4-.3,1.8-.8.5-.5.6-1.4.2-1.9l.2.2Z"/>
            <path class="cls-7" d="M15.2,197.8c0-.4-.4-.6-.6-.9-.2-.3-1.4.2-1.4.6,0,.3,0,.7.1,1.1s.5.6.8.7c.2,0,.7-.1.8-.4.2-.3.3-.7.2-1.1h.1Z"/>
            <path class="cls-7" d="M43.4,216.1c-.1-.1-.1-.3-.2-.4-.1-.2-.3-.2-.5-.3-.4-.2-.9-.2-1.4-.4-.3,0-.6,0-.9.2-.1,0-.6.4-.5.6.2.4.4.7.8.9.6.2,1.2,0,1.8,0,.1,0,1.1-.4.9-.6h0Z"/>
            <path class="cls-4" d="M36.1,204.1c-.5.6-1.1,1.3-1.9,1.5h-.9c-1.3-.1-2.5-.9-3.1-2-.6,1.1-1.6,1.7-2.6,2.3-.7.4-1.5.9-2.4,1-.7.1-1.3-.1-2-.2-.6,0-1.1-.6-1.4-1.1-1.3-1.7-2.7-3.5-3.4-5.6,0,1.2.6,2.3,1.2,3.3,1,1.6,2.1,3.2,3.3,4.7.8.1,1.9.1,2.7-.1.5-.1.9-.4,1.3-.7,1.2-.7,2.3-1.4,3.2-2.5-.3.3,2.6,1.2,2.8,1.3,2,.6,2.2-.4,3.3-1.9h-.1Z"/>
            <path class="cls-4" d="M34.9,211.4c0,.7-.7,1.3-1.3,1.5-1.1.4-5,.7-4.4-1.4-.2.8,0,1.7.8,2,1,.4,2,.6,3.1.2s1.8-1.3,1.9-2.4l-.1.1Z"/>
          </g>
          <path class="cls-7" d="M177.9,133c-.7-1.6-2.7-1.3-4.1-1-.9.2-1.9.7-2.9,1.4-.3,0-.7.2-.9.4-1.5,1.3-1.9,2.9-2.1,4.8-.1,1.3,0,2.5,1.5,2.7,3.2.6,7.1-1.7,8.2-4.7.4-1,.7-2.6.2-3.6h.1Z"/>
          <path class="cls-7" d="M174.1,143c-.2-.3-.8-.2-1.1-.1-.6.1-1.1.4-1.6.7-.2.2-.5.3-.7.5-.3.3-.4.5-.6.8-.2.5,0,.8.4,1,.5.2,1.1,0,1.7-.2h.1c.2-.1.4-.2.5-.4h-.1c.1,0,.2-.1.3-.2.3-.3.6-.5.8-.8.1-.2.2-.5.3-.7,0-.3,0-.4-.2-.6h.2Z"/>
          <path class="cls-7" d="M174.3,125.9c-.3-.1-.7,0-1,0-.3.1-.8.3-1.1.6-.4.6-.8,1.3-.4,1.9.4.8,1.6.8,2.3.6.8-.2,1.5-.8,1.5-1.7,0-.8-.7-1.2-1.3-1.5v.1Z"/>
          <path class="cls-7" d="M171.4,204c0-.5-.3-.9-.7-1.3-1.1-1.2-3.4-.5-4.6.1-.8.5-1.8,1.2-1.7,2.3,0,.8.4,1.4,1.1,1.7,1.6.7,3.8.3,4.9-1.1.5-.5.9-1,.9-1.7h.1Z"/>
          <g>
            <path class="cls-7" d="M165.3,208.8s.1,0,.2-.1c-.3.2-.3.3-.2.1Z"/>
            <path class="cls-7" d="M165.8,207.9s-.2-.1-.3-.1c-.2,0-.6,0-.8.2s-.6.3-.7.6v.5c.1.2.5,0,.7,0,.3,0,.6-.2.8-.4,0,0,.1,0,.2-.2.1-.1.2-.2.2-.4v-.2h-.1Z"/>
          </g>
          <path class="cls-7" d="M155.3,212.4s-.3,0-.2.2v.3h.2s.1,0,.2-.1v-.3c0-.1-.2,0-.2,0v-.1Z"/>
          <path class="cls-7" d="M179,183.6c-.2-.3-.6-.3-.9-.3-.6,0-1.2.2-1.7.4-.3.1-.7.3-.8.6,0,0,0,.1-.1.2,0,.1,0,.2.1.3-.2-.2-.3-.2-.2,0h0c0,.2.3.2.5.3h1.3c.4,0,.8-.2,1.2-.4.2-.1.6-.3.7-.6,0-.2.1-.3,0-.5h-.1Z"/>
          <path class="cls-7" d="M142.4,195s0-.2-.1-.2c0,0-.2,0-.3-.1-.3-.1-.9.2-1.2.4-.2.2-.4.3-.4.6,0,.2-.1.4,0,.6,0,.1.2.3.3.4.2.1.6,0,.9,0s.6-.2.8-.5c.1-.1.3-.4.3-.6v-.5l-.3-.1Z"/>
          <path class="cls-7" d="M27.5,142.8c-.1-.3-.4-.5-.7-.7-.4-.2-.8-.3-1.2-.4h-1c-.7-.3-1.6,0-2.2.2-.4.1-.7.3-1.1.5-.2.1-.8.5-.8.8v.1c-.3.3-.5.7-.7,1.1-.2.7.4,1.2.9,1.5.5.2,1.1.2,1.7.1.4,0,.5,0,.2,0-.4,0-.2,0,.5,0,.5,0,1.1-.2,1.6-.4.6-.2,1.3-.5,1.8-.9.2-.2.5-.5.5-.7v-.2c-.2-.2,0-.2.5,0,0,.1-.1.3-.2.4.2-.3.5-.7.4-1.2l-.2-.2Z"/>
          <path class="cls-7" d="M60.9,158.3c-.3,0-.7.2-.9.5-.4.4-.8.8-1.1,1.3-.2.4-.3.6-.1,1,0,.3.8-.1.9-.2.5-.4,1-.7,1.4-1.3.3-.4.3-.7.5-1.2,0-.3-.5-.2-.6-.2l-.1.1Z"/>
          <path class="cls-7" d="M32.2,72.7c-.6-.5-1.4-.7-2-1.1,0,0-.6,0-.5.2.3.5.5,1.1.9,1.5.5.5,1.2.8,1.8,1.1.1,0,.8,0,.7-.3-.2-.6-.4-1-.9-1.4Z"/>
          <path class="cls-7" d="M150.5,65.6v-.4c0-.6-1.2,0-1.5,0-.9.4-1.7.9-2.5,1.4-.4.3-.9.7-1.2,1.1-.3.3-.3.6-.3,1s1,.3,1.1.2c.2,0,.5,0,.7-.2h0c.4-.1.8-.3,1.1-.5h0c.2-.1.3-.2.5-.3.5-.3,1-.7,1.4-1.2l.1-.1c.1-.1.2-.3.2-.4.1-.1.2-.3.1-.4l.1-.2h.2Z"/>
          <path class="cls-7" d="M159.2,81.7c-.6,0-1.1,0-1.7.2-.4.1-.8.3-1.2.6-.2.1-.5.3-.5.5s.3.2.4.2h.4c.3,0,.5-.2.8-.3.5-.2.9-.5,1.4-.7,0,0,.6-.3.3-.4l.1-.1Z"/>
          <path class="cls-7" d="M152.8,161.3c-.2-.2-.5-.3-.8-.5-.2,0-1.1.2-.9.4.2.2.4.4.7.5s.5.3.9.4c.1,0,.7,0,.7-.3,0-.2-.3-.4-.5-.5h-.1Z"/>
          <path class="cls-7" d="M31.3,26.4c-.7-1-2-1.4-3.2-1.6-.5,0-1.3.2-1.6.6-1.2,2.3,1.3,4.1,3.4,4.5.5.1,1.7-.2,1.9-.8.4-.9,0-2.1-.5-2.8v.1Z"/>
          <path class="cls-7" d="M25.4,30.2c0-.1-.1-.2-.3-.3-.1,0-.3-.1-.4-.2h-.5c-.1,0-.4.1-.4.3,0,.1-.1.4,0,.5,0,0,0,.1.1.2,0,0,.2.1.3.1,0,0,.2,0,.3.1h.5s.2,0,.2-.1c0,0,.2-.1.2-.2v-.5.1Z"/>
          <g class="cls-8">
            <path class="cls-6" d="M164.3,21.4c-1.5-.5-3.3-.3-5.1.2.2-.2.2-.5.2-.8h0c-.5-1-2.6-.5-3.4-.3h-.5.2c-.3,0-.6.2-.9.3-.1,0-.3.1-.4.2-.1,0-.2,0-.4.1-.4.1-2.4.9-.5.2-.9.3-1.7.7-2.5,1.3-.4.3-1.1.8-1.2,1.3-.3,1.3,1.9,1,2.6,1,.4,0,.9-.1,1.3-.2-.4.4-.9.9-1.2,1.5,0,.1-.2.3-.3.4-.7,1.2-1.2,2.3-1.2,3.8,0,3.6,3.8,3.5,6.4,2.8,3.4-.9,6.8-3,8.6-6.2,1.1-2,.8-4.8-1.6-5.6h-.1Z"/>
          </g>
          <path class="cls-7" d="M171.5,32.1c-.3-.5-1.3-.3-1.7-.1-.3,0-.6.2-.9.3,0,0,.1,0,.2-.1-.1,0-.3.1-.4.2,0,0-.2.1-.2.2-.2.1-.4.2-.6.4,0,0-.1,0-.2.1h-.1c-.2.2-.4.4-.5.7-.2.3-.3.7,0,1,.2.3.8.4,1.1.4.9,0,1.7-.6,2.4-1.1.6-.4,1.3-1.3.9-2h0Z"/>
          <path class="cls-7" d="M148.7,17.1c-.5,0-1.1,0-1.5.1-1.1.3-2.4.7-3.2,1.7-.2.2-.2.3-.2.6h0c.3.5,1,.3,1.4.3.9,0,2-.5,2.8-1,.3-.2.7-.4.9-.7,0-.1.2-.3.2-.4.2-.3-.3-.5-.5-.5l.1-.1Z"/>
          <g>
            <path class="cls-7" d="M132,18.1c0-.3-.1-.4-.3-.6s-.5-.1-.7,0c-.2,0-.4.1-.6.2h0c-.3.2-.5.4-.8.6-.2.3-.4.5-.2.8,0,.2.4.2.5.2.4,0,.7,0,1.1-.1.2,0,.4-.2.6-.4.3-.2.5-.4.6-.7h-.2Z"/>
            <path class="cls-7" d="M130.4,17.6c-.2,0-.3.2-.4.3.2-.1.3-.2.4-.3Z"/>
          </g>
          <path class="cls-7" d="M176.6,62.2c-.4-.5-1.3-.3-1.8-.3-.8,0-1.5.2-2.2.6-.4.2-1.2.6-1.3,1.1,0,.2-.1.4,0,.6,0,.1.2.3.4.4.4.3,1.1.2,1.6.1.4,0,.8-.2,1.2-.3.6-.2,1.3-.5,1.8-.9.3-.2.8-.8.5-1.2l-.2-.1Z"/>
          <path class="cls-7" d="M16,66.4l-.1-.1s-.2-.2-.2-.3-.3,0-.4,0c0,0-.3.2-.2.3.1,0,.2.2.3.3,0,0,.1,0,.2.1h.2s.3,0,.3-.2v-.2l-.1.1Z"/>
          <path class="cls-7" d="M20.5,45.3c-.2-.2-.4-.3-.6-.4,0,0-.5,0-.4.2,0,.2.2.3.3.5s.4.3.5.4c0,0,.5,0,.5-.2-.1-.1-.2-.3-.3-.5Z"/>
          <g>
            <path class="cls-7" d="M119.2,17.3h0s-.1,0-.2.1h.1l.1-.1Z"/>
            <path class="cls-7" d="M119.7,16.2c-.3,0-.7.2-.9.4-.1.1-.2.3-.3.4v.4c0,.1.3,0,.4,0,.2,0,.3-.1.5-.2h0c.1,0,.2-.2.3-.3.1-.1.2-.3.3-.5.2-.2-.2-.3-.3-.2Z"/>
          </g>
          <path class="cls-7" d="M111.6,206.5c-.3-.2-1.1.2-1.3.5s-.3.7-.2,1c.1.4.4.5.7.7.2.1.7,0,.9-.3.3-.4.4-.6.4-1.1,0-.4-.3-.6-.6-.8h.1Z"/>
          <path class="cls-7" d="M71.7,210.3c0-.1,0-.2-.1-.3h-.3s-.3.1-.3.2c0,0,.1.2.2.3,0,0,.1.2.2.2,0,0,.3,0,.4-.1v-.3h-.1Z"/>
          <path class="cls-7" d="M83.8,214.8s-.4.2-.2.2.4-.2.2-.2Z"/>
          <path class="cls-7" d="M130.5,212.6s-.1-.2-.2-.3c-.1-.2-.2-.3-.4-.5-.2-.3-.7,0-1,0-.1,0-.8.4-.5.6.2.1.4.3.5.4,0,0,.2.1.2.2.1,0,.3,0,.4.1h.5s.3-.1.3-.2v-.3h.2Z"/>
          <path class="cls-4" d="M27.6,142.9c-.4.6-.9,1.1-1.4,1.6-1.2,1.2-3.1,1.3-4.7,1.3-.8,0-1.1-.6-1.8-.7.2.5.7.8,1.2,1,.9.3,1.8.5,2.8.3.8-.2,1.6-.7,2.2-1.3s1.2-1.5,1.7-2.2h0Z"/>
          <path class="cls-4" d="M27,28.2c.7.9,1.9,1.5,3,1.6,1.2.1,1.5-.4,2-1.4.2.2.2.4,0,.6-.5.7-1.2,1.3-1.9,1.7-.1,0-.2.1-.3.1h-.3c-1.1-.5-2-1.3-2.6-2.3-.5-.8-.7-1.9-.4-2.8-.1.8.1,1.9.6,2.5h-.1Z"/>
          <path class="cls-4" d="M151.2,31.2c0,1.1.9,1.6,1.8,1.9,2.7.9,5.7-.1,8.2-1.6,2.9-1.6,5.4-4.6,5.2-8.1.4,2.8-.8,5.9-3,7.7-1.3,1.1-2.9,1.7-4.5,2.2-1.9.7-4,1.3-5.9.6-1.3-.4-2.1-1.4-1.8-2.8v.1Z"/>
          <path class="cls-4" d="M171.6,32.2c0,.5-.2,1.1-.6,1.4-.4.4-.9.6-1.3.9-.5.2-.9.5-1.5.5s-1.1-.2-1.3-.7c.3,1,1.2,1.5,2.2,1.2.4-.1.7-.3,1-.5.4-.3.9-.7,1.2-1.1.3-.5.5-1.2.3-1.7h0Z"/>
          <path class="cls-4" d="M176.9,62.2c-.2.5-.5.9-.9,1.3-.3.2-.7.4-1,.5-.5.2-1,.4-1.5.5-.3.1-.6.2-.9.2-.5,0-1-.1-1.3-.5.5.3.8.9,1.4,1,.3,0,.7,0,1-.1.6-.2,1.2-.3,1.7-.7.7-.5,1.2-1.4,1.6-2.2h-.1Z"/>
          <path class="cls-4" d="M150.3,65.6c-.5,1.3-1.2,2.5-2.4,3.1-.7.3-1.4.3-2.1.3.7.3,1.8.4,2.6,0,.6-.3,1-.8,1.3-1.3.3-.6.6-1.5.6-2.1h0Z"/>
          <path class="cls-4" d="M175.5,127c.1.5-.1,1.1-.6,1.5-.4.4-1,.5-1.5.6-.4,0-.9,0-1.2-.3-.4-.2-.6-.7-.5-1.1,0,.6,0,1.5.7,1.8.2.1.5.1.7.1.6,0,1.3,0,1.7-.5.6-.6.7-1.3.7-2.1h0Z"/>
          <path class="cls-4" d="M178.1,133.8c.4,2-.2,4.1-1.6,5.6-1.3,1.5-3.2,2.4-5.2,2.6-.7,0-1.4,0-2-.3s-1.1-.9-1.1-1.6c.2.7,1.1,1.1,1.7,1.3.7.2,1.4,0,2,0,3.3-.9,5.9-4.1,6.2-7.5v-.1Z"/>
          <path class="cls-4" d="M174.2,143.5c-.3,1-1.1,1.8-2.1,2.3-.5.2-1.3.4-1.7,0,.7.4,1.5.7,2.2.3.3-.2.6-.5.9-.7.4-.5.8-1.1.7-1.8v-.1Z"/>
          <path class="cls-4" d="M171.4,203.4c.3.9,0,1.9-.8,2.5-.7.6-1.7.9-2.6,1-.7.1-1.4.2-2,0-.7-.2-1.3-.6-1.5-1.3.4.5.9,1.2,1.4,1.5s1.1.6,1.7.5c.3,0,.6-.1,1-.2.8-.3,1.6-.7,2.2-1.4.6-.7.9-1.9.7-2.7l-.1.1Z"/>
        </g>
      </g>
    </g>
  </g>
</svg>