<?xml version="1.0" encoding="UTF-8"?>
<svg xmlns="http://www.w3.org/2000/svg" xmlns:xlink="http://www.w3.org/1999/xlink" viewBox="0 0 104.46 86.88">
  <defs>
    <style>
      .cls-1 {
        fill: #904b4f;
      }

      .cls-1, .cls-2, .cls-3, .cls-4, .cls-5, .cls-6, .cls-7, .cls-8, .cls-9, .cls-10, .cls-11, .cls-12, .cls-13, .cls-14, .cls-15 {
        stroke-width: 0px;
      }

      .cls-2 {
        fill: url(#linear-gradient);
      }

      .cls-3 {
        fill: url(#radial-gradient);
      }

      .cls-4 {
        fill: #d7bdcf;
      }

      .cls-4, .cls-16, .cls-15 {
        isolation: isolate;
      }

      .cls-4, .cls-15 {
        mix-blend-mode: multiply;
      }

      .cls-5 {
        fill: #f0c996;
      }

      .cls-6 {
        fill: #6f71c7;
      }

      .cls-7 {
        fill: #fbc433;
      }

      .cls-8 {
        fill: url(#linear-gradient-4);
      }

      .cls-9 {
        fill: url(#linear-gradient-2);
      }

      .cls-10 {
        fill: url(#linear-gradient-3);
      }

      .cls-11 {
        fill: url(#linear-gradient-8);
      }

      .cls-12 {
        fill: url(#linear-gradient-7);
      }

      .cls-13 {
        fill: url(#linear-gradient-5);
      }

      .cls-14 {
        fill: url(#linear-gradient-6);
      }

      .cls-15 {
        fill: #f2e4d7;
      }
    </style>
    <linearGradient id="linear-gradient" x1="-1682.35" y1="126.71" x2="-1698.25" y2="98.01" gradientTransform="translate(-1348.16 -974.5) rotate(-147.1) scale(1 -1)" gradientUnits="userSpaceOnUse">
      <stop offset="0" stop-color="#cb910b"/>
      <stop offset=".5" stop-color="#947133"/>
      <stop offset="1" stop-color="#584f60"/>
    </linearGradient>
    <linearGradient id="linear-gradient-2" x1="-1668.68" y1="78.1" x2="-1694.68" y2="103.8" xlink:href="#linear-gradient"/>
    <linearGradient id="linear-gradient-3" x1="-1679.33" y1="91.37" x2="-1704.43" y2="104.07" xlink:href="#linear-gradient"/>
    <linearGradient id="linear-gradient-4" x1="-1686.12" y1="126.5" x2="-1698.82" y2="82.1" xlink:href="#linear-gradient"/>
    <linearGradient id="linear-gradient-5" x1="60.71" y1="559.68" x2="63.91" y2="683.48" gradientTransform="translate(0 -578)" gradientUnits="userSpaceOnUse">
      <stop offset="0" stop-color="#d89979"/>
      <stop offset=".3" stop-color="#ac645f"/>
      <stop offset=".6" stop-color="#792640"/>
      <stop offset=".8" stop-color="#5b316c"/>
      <stop offset="1" stop-color="#4b3884"/>
    </linearGradient>
    <radialGradient id="radial-gradient" cx="59.3" cy="576.88" fx="59.3" fy="576.88" r="141.4" gradientTransform="translate(0 -578)" gradientUnits="userSpaceOnUse">
      <stop offset="0" stop-color="#e4a482"/>
      <stop offset="1" stop-color="#865f6a"/>
    </radialGradient>
    <linearGradient id="linear-gradient-6" x1="72.47" y1="604.14" x2="35.97" y2="649.24" gradientTransform="translate(0 -578)" xlink:href="#linear-gradient"/>
    <linearGradient id="linear-gradient-7" x1="47.23" y1="632.8" x2="37.23" y2="651" gradientTransform="translate(0 -578)" xlink:href="#linear-gradient"/>
    <linearGradient id="linear-gradient-8" x1="46.32" y1="640.06" x2="61.52" y2="653.76" gradientTransform="translate(0 -578)" xlink:href="#linear-gradient"/>
  </defs>
  <g class="cls-16">
    <g id="Layer_2" data-name="Layer 2">
      <g id="Layer_1-2" data-name="Layer 1">
        <g>
          <path class="cls-6" d="M102.9,52.88c-.7-.4-1.3-.7-2-1.1.9-.1,1.9-.3,2.5-1,1.3-1.4.8-5.2.6-6.9-.2-2.7-.6-5.4-1.1-8.1-1.1-5.3-2.7-10.5-4.9-15.5-.9-2-1.9-3.9-3.3-5.5-3.1-3.7-7.3-6.3-11.7-8.2-2.3-1-4.7-1.8-7.2-2.5-1.2-.4-2.5-.9-3.8-1.1-1.1-.1-1.8.8-2.7.7-.6,0-.6-1.3-1-1.6-.6-.5-2.2-.5-2.9-.7-4-1-8.6-.9-12.5.3-6,1.9-11.6,4.6-16.6,8.3-3.5,2.5-7,5.4-9.7,8.8-.2-.3-.4-.7-.8-.9,0,0-.1,0-.2-.1-.4-.3-1-.3-1.5-.4-2.3-.3-4.6-.5-6.9-.5h-3.2c-.3,0-.6,0-.9.1h-.3c-.2,0-.5,0-.7.1h-.4c-.2,0-.4,0-.6.1h-.4c-.7.2-1.4.4-2,.6-1,.3-2,.5-2.8,1.1-.4.2-.7.5-1,.8s-.7.7-1.1,1.1c-.3.3-.6.6-.7.6,2-.5,4.3-.2,6,.9,1.9,1.2,2.4,3.2,3.5,5,.3.6.7,1.2,1,1.8-1.4.1-2.8.4-4.2.9-.7.2-1.5.5-2.1.9-.3.2-.6.3-.9.6-1.1.8-1.9,1.9-2.7,3-1.6,2.5-2.9,5.2-3.7,8,2.6-1.5,6-1.4,8.7-.5,1.8.6,3.6,1.5,5.5,1.5h1.3c-.9,2.6-.7,5.7,1.2,7.7,1.3,1.4,3,2.4,4.9,3.1,0,.1,0,.3.1.4,0,.6.1,1.2.5,1.6.9,2.5,2.2,4.9,3.8,7,4.9,6.4,11.4,11.7,18.8,15.1,5.7,2.6,13,4.4,19.7,4.3,0,.6-.1,1.3-.4,2.2-.8-.2-1.4-1.1-1.7-1.8,0,0,0-.2-.1-.2-.1-.1-.3-.2-.5-.2-.8,0-1.5-.1-2.3-.2h-1c.1.6,1,1.5,1.4,2,.6.6,1.4,1.1,2.1,1.5,1.5.7,3.3,1.1,4.9.8.3,0,.6-.1.8-.3.2-.3.2-.6.2-.9,0-1-.1-2-.3-2.9.9,0,1.8-.2,2.6-.4,1.5-.3,2.9-1,4.3-1.5.9-.3,1.1-1.5,1.2-2.4.7.3,1.4.5,2.1.8.2,0,.5.2.7.1.2,0,.4-.1.6-.2,1.9-1,3.8-1.8,5.7-2.8.9-.5,1.9-1,2.8-1.6.5-.3,2.1-1.9,2.7-1.9,6.3-5,11.3-11.1,13.2-19,0-.2.1-.5,0-.7s-.3-.3-.5-.5v.3h-.1ZM18.7,47.68c-.2-.3-.2-.7-.2-1,0-.5,0-.9.2-1.4.1-.6.4-1.2.7-1.8.2-.4.6-.8.8-1.3,0,2.1,0,4.3.3,6.4-.3-.1-.6-.2-.9-.3-.4-.1-.7-.3-.9-.6h0Z"/>
          <g>
            <g>
              <path class="cls-2" d="M3.8,34.28c-1.6,2.5-2.9,5.2-3.7,8,2.6-1.5,6-1.4,8.7-.5,1.8.6,3.6,1.5,5.5,1.5h.8c1.3-.1,2.5-.7,3.6-1.3,2.6-1.6,6.4-4.4,7.8-7.2.2-.5.4-1,.2-1.5-.7-2.5-5.4-3.6-7.5-4.1-3.2-.6-6.5-.5-9.6.6-.7.2-1.5.5-2.1.9-.3.2-.6.3-.9.6-1.1.8-1.9,1.9-2.7,3h-.1Z"/>
              <g>
                <path class="cls-9" d="M3.2,21.18c2-.5,4.3-.2,6,.9,1.9,1.2,2.4,3.2,3.5,5,.6,1,1.2,2.1,1.7,3.2.5,1,.9,2,1.4,3.1.2.5.4,1,.8,1.3.4.3.9.3,1.3.3,3.2.2,6.5,0,9.7-.5,1.3-3.2,1.1-5.7,1.1-9.2s-.6-4.8-1.8-6.9c-.2-.4-.5-.9-.9-1.1,0,0-.1,0-.2-.1-.4-.3-1-.3-1.5-.4-5.4-.6-10.6-1.1-15.8,1-1.1.4-2.2.9-3.3,1.6-.3.2-.8.8-1.3,1.3-.3.3-.6.6-.7.6h0v-.1Z"/>
                <path class="cls-10" d="M3.8,20.98h0c.5-.1,1.1-.2,1.6-.2,1.3,0,2.6,0,3.8.7,1.4.8,2.3,2.2,3.2,3.6s1.8,2.8,2.7,4.2c.3.4.5.8.9,1.1,1.2.7,3.6-1.8,4.6-2.4.4-.3.8-.6,1-1.1,0-.4-.1-.9-.3-1.3-1-1.7-2.1-3.4-3.5-4.8,2,.9,4.1,1.9,6.1,2.8.4.2.9.4,1.3.3.7-.2,1-1,1.1-1.6.3-1.7,0-3.4-.2-5.1,0,0-.1,0-.2-.1-.4-.3-1-.3-1.5-.4-2.9-.3-5.9-.6-8.9-.5-1.5,0-2.9.3-4.4.6-.7.2-1.4.4-2.1.7-1,.3-2,.6-2.9,1.1s-1.5,1.4-2.2,2.2v.2h-.1Z"/>
              </g>
              <path class="cls-8" d="M3.8,34.28c-1.6,2.5-2.9,5.2-3.7,8,2.6-1.5,6-1.4,8.7-.5,1.8.6,3.6,1.5,5.5,1.5,1.3-.8,2.5-1.8,3-3,.8-1.9-.3-3-1.9-3.6-1.9-.8-4.7-.9-6-.9,1.5-.2,3-.5,4.6-.7.3-2.4-2.3-4.5-4.7-4.5s-1.2,0-1.8.2c-.3.2-.6.3-.9.6-1.1.8-1.9,1.9-2.7,3h-.1v-.1Z"/>
            </g>
            <g>
              <g>
                <path class="cls-13" d="M98.1,19.58c-.9-2-1.9-3.9-3.3-5.5-3.1-3.7-7.3-6.3-11.7-8.2-2.3-1-4.7-1.8-7.2-2.5-1.2-.4-2.5-.9-3.8-1.1-1.1-.1-1.8.8-2.7.7-.6,0-.6-1.3-1-1.6-.6-.5-2.2-.5-2.9-.7-4-1-8.6-.9-12.5.3-6,1.9-11.6,4.6-16.6,8.3-5.3,3.9-10.6,8.5-13.2,14.8-.1.2-.2.5-.2.8s.2.6.3.9c.3.8.5,1.7.5,2.6-1.4,1.6-2.3,1.7-2.7,3.9-1.6,10.2-1.6,22.2,5,30.8,4.9,6.4,11.4,11.7,18.8,15.1,7.4,3.4,17.3,5.4,25.4,3.7,1.5-.3,2.9-1,4.3-1.5.9-.3,1.1-1.5,1.2-2.4.7.3,1.4.5,2.1.8.2,0,.5.2.7.1.2,0,.4-.1.6-.2,1.9-1,3.8-1.8,5.7-2.8.9-.5,1.9-1,2.8-1.6.5-.3,2.1-1.9,2.7-1.9,6.3-5,11.3-11.1,13.2-19,0-.2.1-.5,0-.7s-.3-.3-.5-.5c-.7-.4-1.3-.7-2-1.1.9-.1,1.9-.3,2.5-1,1.3-1.4.8-5.2.6-6.9-.2-2.7-.6-5.4-1.1-8.1-1.1-5.3-2.7-10.5-4.9-15.5h-.1Z"/>
                <path class="cls-3" d="M99.9,50.48h0c-.3,0-.7,0-1-.1-1-.1-1.9-.2-2.9-.4,1.5,1.2,3.6,1.9,3.1,4.1-.4,1.7-1.4,3.5-2.4,5h0c-.7,1.1-1.5,2.2-2.4,3.3-1.9,2.3-4.1,4.3-6.5,6.2-.2.2-.4.3-.6.5-.8.6-1.7,1.3-2.7,1.9-3,2-6.6,3.6-9.8,3.1h-.5c-.1,0-.2.2-.3.3-.9,2-2.1,2.4-4.3,2.8-1.7.3-3.5.5-5.4.5s-.1,0-.2,0c-1.7,0-3.5-.1-5.3-.4-4.1-.6-8.2-1.8-11.9-3.5-1.5-.7-3-1.5-4.4-2.3-1.2-.7-2.3-1.4-3.4-2.3-3.5-2.6-6.7-5.7-9.4-9.2-2.8-3.7-4.3-8.2-4.8-12.8,0-.3,0-.6-.1-.9-.2-2.6-.2-5.1,0-7.7,0-.8,0-1.6.2-2.5,0-.9.2-1.8.5-2.6.3-1.1.9-2.1,1.9-2.8.3-.2.6-.4.8-.7.2-.3.2-.6.2-.9.1-1.9-.1-3.7.2-5.6.3-1.7,1.5-3,2.7-4.3.8-.9,1.6-1.8,2.5-2.6.8-.8,1.7-1.5,2.6-2.2,1-.8,2-1.5,3-2.3,1.3-.9,2.6-1.8,3.9-2.6.3-.2.7-.4,1-.6,3.2-1.8,6.7-3.3,10.4-4.5,1.7-.5,3.7-.8,5.7-.8s3.3.2,4.8.6c.3,0,.7.2,1,.4.6.3,1.1.7,1.6.8h1.3c1.5,0,3.2.5,4.7,1,.4.1.8.3,1.1.4.4.1.7.2,1.1.3,1.8.6,3.7,1.2,5.4,1.9,3.4,1.4,6.7,3.2,9.3,5.8.3.3.6.6.8.9.2.2.3.4.5.6,1,1.3,1.9,2.8,2.7,4.6,3.8,8.8,7,19.9,5.5,29.6h-.2Z"/>
                <path class="cls-5" d="M99.9,50.48h0c-.4.1-.7,0-1.1-.1q-.2,0,0,0c1-1.2,1-2.9,1-4.4-.5-7.4-2.3-14.4-4.8-21.4-2-5.6-4.7-9.7-10-12.7-4.6-2.6-9.9-3.9-14.9-5.4-1.6-.5-2.7,0-4.1-.3-.4,0-.8-.3-1.2-.6-4.4-2.3-10.4-.8-14.6,1-3.6,1.6-6.9,3.9-10.1,6.3-2.4,1.8-4.8,3.6-7.2,5.4-1.1.9-2.3,1.8-3,3-1.4,2.4-.9,5.5-.8,8.3,0,.5,0,.9-.3,1.3s-.7.5-1.2.7c-2.2,1.1-2.7,3.8-2.9,6.2-.2,2.7-.3,5.5-.2,8.2v.4c-.2-2.6-.2-5.1,0-7.7.2-2.7,0-6.1,2.5-7.9.3-.2.6-.4.8-.7.2-.3.2-.6.2-.9.1-1.9-.1-3.7.2-5.6.3-1.7,1.5-3,2.7-4.3,2.4-2.7,5.1-5,8-7.1,4.6-3.3,9.7-5.9,15.3-7.7,1.7-.5,3.7-.8,5.7-.8s3.3.2,4.8.6c1,.2,1.8,1.1,2.6,1.2h.9c1.9-.3,4.4.8,6.2,1.4,2.2.6,4.4,1.4,6.6,2.3,4,1.6,7.9,3.9,10.7,7.2,1,1.3,1.9,2.8,2.7,4.6,3.8,8.8,7,19.9,5.5,29.6h0v-.1Z"/>
              </g>
              <g>
                <path class="cls-5" d="M67,10.98c-2.1-1.9-4.4-3.2-7.3-2.8-3.4.6-6.7,1.7-9.8,3-4.3,1.8-10.6,3.5-13.2,7.8-4,3.4-5.7,9.6-6.6,14.6-1.3,6.8-.9,14.1.5,20.9h.1c-.6-7-1.4-14,0-21,.6-2.8,1.4-5.7,2.9-8.2,1.3-2.3,3.3-4.3,4.4-6.6,3.2-3.3,7.4-5,11.6-6.8,2.3-.9,4.6-1.8,7-2.4,2-.5,3.9-.9,5.9,0,1,.5,1.8,1.3,2.6,2.1-4.7,2.6-9.9,3.8-15.2,3.5,2.3-1.4,4.8-2.3,7.4-2.9,1.2-.2,3.2-2,.8-1.4-3.8.9-7.4,2.5-10.7,4.6-.1,0-.8.6-.2.7,6.9.5,13.6-1,19.5-4.6.1,0,.5-.3.3-.5h0Z"/>
                <path class="cls-5" d="M66.5,73.58c-3.3-.4-6.5-.9-9.7-1.5-3.6-.6-6.7-2-9.9-3.7-5.4-2.9-10.5-6.2-14.2-11.2,0-.1-.5,0-.4.2,3.4,5.2,8.6,8.5,13.9,11.4,2.5,1.4,5,3.2,7.8,4,3.7,1.1,7.7,1.2,11.4,1.5.3,0,1.5-.6,1.1-.7h0Z"/>
                <path class="cls-5" d="M94.9,51.68c-3.2,6.7-8,12.5-14.6,16.8-1.7,1.1-3.5,2.1-5.4,3-1,.4-4.4,2.4-5.2.9-.2-.3,1.2-2.2,1.4-2.6.5-.8,1-1.7,1.5-2.5,1.2-1.8,2.9-2.3,5.1-2.5h1.6c1.2.1,1.4.4.6,1-.7,1.3-3.2,2.2-4.5,2.6-.2,0-.6.4-.1.3,2.9-.5,5.3-1.9,6.9-4.2v-.2c-2.8-.3-6.4-.3-8.9,1.1-2.8,1.5-4.2,5.7-5.4,8.2,0,.2.2.2.3.2,6.2,0,12.4-3.9,16.9-7.5,5.1-4,9.1-9.1,11.5-14.8.1-.3-1.4,0-1.6.4v-.2h-.1Z"/>
                <path class="cls-5" d="M95.9,40.18c-.4-3.6-.6-7.2-1.4-10.7-1.3-6-3.9-11.8-9.7-14.4-.3-.1-1.1.4-.9.4,5.6,2.7,8.7,8.3,10,14.2.7,3.1,1,6.2,1.3,9.4.3,3.3,1,6.8.6,10.1h.2c.9-2.9.2-6,0-9h-.1Z"/>
                <path class="cls-5" d="M81,13.48c-.6-.6-1.7-.7-2.6-1-1.2-.4-2.3-1-3.5-1.5-1.9-.8-3.8-1.5-5.9-1.6,0,0-.7.3-.5.3,2.2,1,4.5,1.7,6.7,2.7,1.7.8,3.4,1.5,5.3,1.3,0,0,.6-.2.4-.3h.1v.1Z"/>
              </g>
              <g>
                <path class="cls-1" d="M66.7,10.68c-2.1-1.9-4.4-3.2-7.3-2.8-3.4.6-6.7,1.7-9.8,3-4.3,1.8-10.6,3.5-13.2,7.8-4,3.4-5.7,9.6-6.6,14.6-1.3,6.8-.9,14.1.5,20.9h.1c-.6-7-1.4-14,0-21,.6-2.8,1.4-5.7,2.9-8.2,1.3-2.3,3.3-4.3,4.4-6.6,3.2-3.3,7.4-5,11.6-6.8,2.3-.9,4.6-1.8,7-2.4,2-.5,3.9-.9,5.9,0,1,.5,1.8,1.3,2.6,2.1-4.7,2.6-9.9,3.8-15.2,3.5,2.3-1.4,4.8-2.3,7.4-2.9,1.2-.2,3.2-2,.8-1.4-3.8.9-7.4,2.5-10.7,4.6-.1,0-.8.6-.2.7,6.9.5,13.6-1,19.5-4.6.1,0,.5-.3.3-.5h0Z"/>
                <path class="cls-1" d="M66.1,73.18c-3.3-.4-6.5-.9-9.7-1.5-3.6-.6-6.7-2-9.9-3.7-5.4-2.9-10.5-6.2-14.2-11.2,0-.1-.5,0-.4.2,3.4,5.2,8.6,8.5,13.9,11.4,2.5,1.4,5,3.2,7.8,4,3.7,1.1,7.7,1.2,11.4,1.5.3,0,1.5-.6,1.1-.7h0Z"/>
                <path class="cls-1" d="M94.6,51.38c-3.2,6.7-8,12.5-14.6,16.8-1.7,1.1-3.5,2.1-5.4,3-1,.4-4.4,2.4-5.2.9-.2-.3,1.2-2.2,1.4-2.6.5-.8,1-1.7,1.5-2.5,1.2-1.8,2.9-2.3,5.1-2.5h1.6c1.2.1,1.4.4.6,1-.7,1.3-3.2,2.2-4.5,2.6-.2,0-.6.4-.1.3,2.9-.5,5.3-1.9,6.9-4.2v-.2c-2.8-.3-6.4-.3-8.9,1.1-2.8,1.5-4.2,5.7-5.4,8.2,0,.2.2.2.3.2,6.2,0,12.4-3.9,16.9-7.5,5.1-4,9.1-9.1,11.5-14.8.1-.3-1.4,0-1.6.4v-.2h-.1Z"/>
                <path class="cls-1" d="M95.6,39.88c-.4-3.6-.6-7.2-1.4-10.7-1.3-6-3.9-11.8-9.7-14.4-.3-.1-1.1.4-.9.4,5.6,2.7,8.7,8.3,10,14.2.7,3.1,1,6.2,1.3,9.4.3,3.3,1,6.8.6,10.1h.2c.9-2.9.2-6,0-9h-.1Z"/>
                <path class="cls-1" d="M80.7,13.18c-.6-.6-1.7-.7-2.6-1-1.2-.4-2.3-1-3.5-1.5-1.9-.8-3.8-1.5-5.9-1.6,0,0-.7.3-.5.3,2.2,1,4.5,1.7,6.7,2.7,1.7.8,3.4,1.5,5.3,1.3,0,0,.6-.2.4-.3h.1v.1Z"/>
              </g>
              <path class="cls-15" d="M87.5,27.48c-.2-1.6-1.6-2.9-2.6-4-1.3-1.4-2.8-2.4-4.7-2.2-1.7.1-3.5.8-4.8,1.8-1.4,1-1.6,2.4-.9,3.9.9,2.2,2.6,3.9,4.6,4.5.7.5,1.3.8,2,.9,2.8.3,6.8-1.8,6.4-5h0v.1Z"/>
              <path class="cls-15" d="M80.5,18.08c-1.1-.5-2.1-.7-3.2-.6-.2,0-.6,0-.7.3-.5,1.8,3.5,2.4,4.6,2.4s1.1-.2,1-.6c-.1-.7-1.1-1.3-1.7-1.6h0v.1Z"/>
              <path class="cls-15" d="M88.2,34.78h0c0-.1-.2-.1-.3-.1-.2,0-.5.1-.6.3,0,0-.2.2-.1.3,0,0,0,.1.1.2h.4c.1,0,.3,0,.4-.2,0,0,.2-.2.2-.3h0v-.2h-.1Z"/>
              <path class="cls-15" d="M39.3,28.78c-.2-.4-.5-.7-1-.8-.3,0-.7,0-1,.3-.5.4-.9.8-1.1,1.4-.1.4-.2,1,.1,1.4.5.6,1.7.8,2.4.2.8-.6,1-1.7.5-2.5h.1Z"/>
              <path class="cls-15" d="M40.6,24.68h-.9c-.2,0-.4.1-.6.3-.1,0-.3.2-.4.3,0,0-.1.1-.2.2,0,0-.1.2,0,.3,0,0,0,.1.2.1h.9c.1,0,.2,0,.3-.1,0,0,.1,0,.2-.1.1,0,.3-.2.4-.3.1-.1.2-.2.3-.4v-.2h-.2v-.1Z"/>
              <path class="cls-5" d="M87.5,26.88c-.1,1,.1,1.8-.4,2.7-.5.8-1.2,1.5-1.9,2-1.1.8-2.5.7-3.8.9h-.8c-.2,0-.37-.07-.5-.2-.4,0-.5-.5-.8-.8-.2-.2-.5-.2-.8-.3-1.2-.3-2.2-1.1-3-2.1-.7-1-1.2-2.2-1.5-3.4.5,2.4,1.5,4.6,3.4,6.2,1.1.9,2.6.9,4,1s2.9-.1,4-.9c.7-.4,1-1.1,1.4-1.7.2-.3.3-.6.4-.9.2-.7.2-1.7,0-2.4h.3v-.1Z"/>
              <path class="cls-5" d="M82.1,19.38c0,.2-.1.4-.3.6-1.2,0-2.4,0-3.5-.4-.7-.2-1.4-.6-1.6-1.3.4,1,.9,1.8,2,2.1.9.3,1.8.3,2.8.3h.4c.4-.2.3-.8.3-1.2h0l-.1-.1Z"/>
              <g>
                <path class="cls-15" d="M55.3,54.18c-.8-.5-1.8-.6-2.7-.4-.4,0-1,.3-1.3.5-.1-1.5-1.1-2.5-2.2-3.4-1.4-1.1-2.8-1.8-4.6-1.2-1.4.4-3.3,1.5-3.7,3s1,2.9,1.8,4c.5.6.9,1.2,1.5,1.5,0,0,0,.1.1.2,1.1,1.3,2.9.6,4.2,0,.9-.5,1.9-1.1,2.4-2h0c.2.4.4.8.8,1,.4.3,1.1.5,1.6.6.7.2,1.9-.4,2.2-1,.3-.4.6-1.1.6-1.6s-.3-.9-.7-1.2h0Z"/>
                <path class="cls-15" d="M54.5,62.18c-.3-.4-.9-.5-1.3-.6-.7-.2-1.3-.1-2,0-.4,0-.9.3-1.1.6-.2.4-.4.8-.1,1.2.2.3.6.6.9.8.6.2,1.4.2,2,.2s1.1-.3,1.5-.6c.4-.4.5-1.1.2-1.6h-.1Z"/>
                <path class="cls-15" d="M38.3,51.38c0-.3-.3-.5-.5-.8-.2-.2-1.2.2-1.1.5v.9c.1.3.4.5.7.6.2,0,.6-.1.7-.3.1-.3.2-.6.2-.9h0Z"/>
                <path class="cls-15" d="M61.8,66.78c-.1-.1-.1-.2-.2-.3,0-.1-.2-.2-.4-.2-.4-.2-.8-.2-1.2-.3-.2,0-.5,0-.7.2-.1,0-.5.3-.4.5.2.3.4.6.7.7.5.2,1,0,1.5,0s.9-.3.7-.5h0v-.1Z"/>
                <path class="cls-5" d="M55.8,56.68c-.5.5-1,1.1-1.6,1.2h-.7c-1-.1-2.1-.8-2.6-1.7-.5.9-1.4,1.4-2.2,1.9-.6.4-1.3.7-2,.9-.6,0-1.1-.1-1.7-.2-.5,0-.9-.5-1.2-.9-1.1-1.5-2.3-2.9-2.8-4.7,0,1,.5,1.9,1,2.8.9,1.4,1.7,2.7,2.8,3.9.7,0,1.6.1,2.2,0,.4-.1.7-.3,1.1-.5,1-.6,1.9-1.2,2.7-2.1-.2.3,2.2,1,2.4,1.1,1.6.5,1.8-.3,2.7-1.6h0l-.1-.1Z"/>
                <path class="cls-5" d="M54.8,62.78c0,.6-.6,1.1-1.1,1.3-.9.3-4.2.6-3.7-1.1-.2.7,0,1.4.7,1.7.8.4,1.7.5,2.6.2.9-.3,1.5-1.1,1.6-2h-.1v-.1Z"/>
              </g>
              <path class="cls-5" d="M39.5,30.18c-.3.6-.5,1.3-1.3,1.5-.5.2-1.2,0-1.7-.4-.4-.4-.3-1.1-.2-1.7-.2.6-.5,1.4-.1,1.9.2.3.5.5.8.6.5.2,1,.2,1.4,0,.2-.2.4-.4.5-.7l.6-1.2h0Z"/>
            </g>
            <path class="cls-4" d="M26.2,56.68c.9.2,1.9.4,2.8.6,4.9,1.1,9.7,2.6,14.3,4.5,2.1.8,4.2,1.8,6.1,3.1.4.3.9.5,1.4.8.2.2.8,1.1.9,1.1-1.9-.5-4-.6-6-.3-.5,0-1.1.2-1.5.5,0,0-.2.1-.2.3s0,.2.1.3c.5.5,1.1.8,1.8,1.1,1.5.7,3,1.2,4.6,1.5.8.2,1.6.3,2.4.3s1.7-.2,2.2.1c.5.2.9,1,1.2,1.4.5.7,1,1.3,1.5,2,.9,1.3,1.9,2.6,2.8,3.9.9,1.2,1.1,2.8,1.3,4.2,1.1.1,2.2.1,3.3.2,0,0-1.5-4.9-1.7-5.3-1-2-2.3-3.9-3.5-5.8-1.1-1.7-2.2-3.4-3.3-5-1.1-1.7-2.3-3.5-3.8-4.9-1.8-1.7-3.9-2.9-6.2-3.9-4.1-1.9-8.7-3-13.1-4-2.6-.6-5.3-1.2-8-1.3-.9,0-1.9,0-2.7.2-1.4.5-1.8,3.1-.5,4,.5.3,2.2.1,2.7.2.3,0,.6.1.9.2h.2Z"/>
            <path class="cls-14" d="M67.8,86.18c-.2.2-.5.3-.8.3-1.7.3-3.4,0-4.9-.8-.8-.4-1.5-.9-2.1-1.5s-1.3-1.3-1.4-2h1c.8,0,1.5.1,2.3.2.2,0,.4,0,.5.2s0,.1.1.2c.4.7.9,1.6,1.7,1.8.8-2.2.4-3.3-.8-5.3-1.1-1.8-2.2-3.5-3.4-5.2-2.4-3.3-5.1-6.5-8.1-9.4-1.1-1.1-2.3-2.2-3.6-3.2-4.7-3.3-10.5-4.1-16.1-5.1-4.9-.8-11.8-1.8-15.4-5.7-1.9-2-2.1-5.2-1.1-7.8,1-2.6,2.9-4.7,5-6.6-.5,1.4-.5,2.7-.3,4.2,0,.9-.6,1.4-1,2.1-.3.6-.5,1.2-.7,1.8-.1.4-.2.9-.2,1.4s0,.7.2,1,.6.5.9.6c8.4,3.5,17.8,4.1,26.3,7.3,1.9.7,3.9,1.5,5.4,2.9,3.4,3.2,6.2,6.8,8.9,10.6,1.8,2.6,3.9,5.1,5.4,7.9.8,1.4,1.4,2.9,1.8,4.3h0c.4,1.5.6,3.1.7,4.7,0,.3,0,.7-.2.9v.2h-.1Z"/>
            <path class="cls-12" d="M67.4,80.48h0c0,.4-.1.9-.5,1.2-.6.4-1.4-.3-1.8-1-4.6-7.7-8.9-16.1-16.5-20.8-7.7-4.8-17.3-4.8-25.9-7.6-1.8-.6-3.7-1.3-4.7-2.9-1-1.5-.9-3.9.7-4.8-.1.4-.2.9-.2,1.4s0,.7.2,1,.6.5.9.6c8.4,3.5,17.8,4.1,26.3,7.3,1.9.7,3.9,1.5,5.4,2.9,3.4,3.2,6.2,6.8,8.9,10.6,1.8,2.6,3.9,5.1,5.4,7.9.8,1.4,1.4,2.9,1.8,4.3h0v-.1Z"/>
            <path class="cls-7" d="M32.9,52.08c-2-1.3-5.2-1.5-7.6-1.6,0,0-.4.1-.3.2,2.2,1.2,4.8,1.7,7.3,1.8,0,0,.8-.2.6-.4Z"/>
            <path class="cls-7" d="M38.6,53.68c-.5-1.1-2.4-1-3.4-1,0,0-.4.1-.3.2,1,.7,1.9,1.1,3.1,1.1,0,0,.6-.1.5-.3h.1Z"/>
            <path class="cls-11" d="M48.4,66.28c.8,1,1.7,1.9,2.8,2.5.8.5,1.8,1,2.7,1.1,1.2,0,2.4,0,3.5-.2-.5-.2-1-1.1-1.4-1.5-.7-.6-1.4-1.1-2.1-1.5-1.5-.9-3-1.5-4.6-2.1-.6-.2-1.3-.4-1.9-.2.3.7.7,1.3,1.1,1.8h-.1v.1Z"/>
          </g>
        </g>
      </g>
    </g>
  </g>
</svg>