<?xml version="1.0" encoding="UTF-8"?>
<svg xmlns="http://www.w3.org/2000/svg" xmlns:xlink="http://www.w3.org/1999/xlink" viewBox="0 0 39.3 33.33">
  <defs>
    <style>
      .cls-1 {
        fill: url(#linear-gradient);
      }

      .cls-1, .cls-2, .cls-3, .cls-4 {
        stroke-width: 0px;
      }

      .cls-2 {
        fill: #e0a186;
      }

      .cls-3 {
        fill: url(#linear-gradient-2);
      }

      .cls-5, .cls-4 {
        isolation: isolate;
      }

      .cls-4 {
        fill: #f2e4d7;
        mix-blend-mode: multiply;
      }
    </style>
    <linearGradient id="linear-gradient" x1="20.54" y1="-47.32" x2="17.74" y2="-108.12" gradientTransform="translate(0 -62.23) scale(1 -1)" gradientUnits="userSpaceOnUse">
      <stop offset="0" stop-color="#b64349"/>
      <stop offset="1" stop-color="#5b1135"/>
    </linearGradient>
    <linearGradient id="linear-gradient-2" x1="19.85" y1="-59.71" x2="20.55" y2="-123.31" gradientTransform="translate(0 -62.23) scale(1 -1)" gradientUnits="userSpaceOnUse">
      <stop offset="0" stop-color="#c66261"/>
      <stop offset="1" stop-color="#5d1930"/>
    </linearGradient>
  </defs>
  <g class="cls-5">
    <g id="Layer_2" data-name="Layer 2">
      <g id="Layer_1-2" data-name="Layer 1">
        <g>
          <path class="cls-1" d="M39.3,4.98c0-.3,0-.7-.1-1-.2-1-.8-1.8-1.7-2.4-2.5-1.8-5.6-1.2-8.5-1.3C22.6.08,16.4-.12,10,.08,7.2.08,4-.02,1.7,1.58c-.8.5-1.4,1.4-1.7,2.4.5,3.7,2.3,6.9,4.2,10.1,1.1,1.9,2.3,3.8,3.4,5.7.3.6.7,1.6,1.2,2,.8.6,1.8.2,2,1.4.6,2.5,1.6,4.2,3.2,6.1.9,1.1,3.7,4.5,5.5,4,4.3-1.1,7.3-6.9,9.8-10.1.1-.2.3-.4.4-.6,1-1.2,2-3,2.7-4.4s.3-2.4.7-3.8c0-.4.4-.6.8-.8,2.3-1.5,3-2.3,4.1-4.8.5-1.2,1.2-2.7,1.3-4.1v.3Z"/>
          <path class="cls-3" d="M34.4,7.08l-.2.4c-.8,1.8-.9,2-2.5,3h0c-.2.1-.4.3-.6.5h0c-.6.5-1.4,1.3-1.7,2.6v.2c-.2.9-.3,1.7-.3,2.3v.9c-.7,1.4-1.4,2.6-2.1,3.4-.2.2-.4.5-.5.6-.6.8-1.2,1.6-1.8,2.5-.9,1.3-2.9,5.2-4.7,5.2-1.9,0-3.4-2.9-4.3-4.2-1.1-1.5-.4-3.8-1.6-5.1-.6-.7-1.5-.4-2.2-.8-.6-.4-.9-1.2-1.3-1.8-.9-1.5-1.8-3.1-2.8-4.6-.3-.6-.7-1.1-1-1.7-.5-.8-1-1.6-1.4-2.5s-.7-2-.2-2.9c.7-1.2,3.4-1,4.7-1.3,4.8-1,10.1.1,15,.4,1.4,0,2.8.2,4.2.2h3c1.8,0,3.5.6,2.6,2.7h-.3Z"/>
          <path class="cls-4" d="M9.2,9.88c.5-.6,1.1-1.1,1.8-1.4.4-.2.8-.3,1.2-.2.6,0,1.2.3,1.7.7,1.1.8,1.9,1.9,2.4,3.1.2.5.3,1,.2,1.5-.1.7-.7,1.4-1.4,1.7-.2,0-.4.2-.7.2-.1.1-.2.2-.4.3-.3.2-.6.4-.9.5-.4.1-.8.3-1.2.2-.8-.1-1.4-.6-2-1.2-.8-.8-1.5-1.8-1.7-2.9-.2-1,.2-1.8.8-2.5h.2Z"/>
          <path class="cls-4" d="M17.7,15.28l.1-.1h.7s.1.2.2.2c0,.2.1.5.2.7v.6s0,.2-.1.2v.1h-.7c-.1,0-.3-.2-.4-.3,0-.1-.2-.3-.2-.4v-.8l.1-.1.1-.1Z"/>
          <path class="cls-4" d="M26.6,8.08h.5s.2,0,.2.1l.2.2s.1.2.1.3v.2l-.3.2h-.6s-.1-.1-.2-.2v-.4l.1-.1v-.3Z"/>
          <path class="cls-4" d="M25.5,14.38c-.2-.2-.4-.5-.6-.7,0,0-.2-.2-.3-.3-.2-.1-.4-.2-.6-.2h-.6c-.1,0,.1,0,0,0-.3,0-.7,0-.9.1-.3,0-.6.2-.8.5h0s-.2.1-.3.2c0,0,0,.1-.1.2-.1.2-.3.4-.3.6v1.4c0,.2.2.4.3.5,0,0,.1,0,.2.1,0,0,.2.1.2.2,0,0,.1,0,.2.1.1,0,.3.1.4.1.2,0,.4.1.6.2h1.1c.5-.1,1.1-.4,1.3-.9,0-.1.1-.3.2-.4,0-.1.2-.3.2-.4v-.4c.1-.3,0-.6-.2-.9h0Z"/>
          <path class="cls-2" d="M34.4,7.08l-.2.4c-.8,1.8-.9,2-2.5,3h0c-.2.1-.4.3-.6.5h0c-.6.5-1.4,1.3-1.7,2.6v.2c-.2.9-.3,1.7-.3,2.3v.9c-.1-1.6,0-3.3.8-4.7.7-1.1,1.9-1.8,2.8-2.7.9-.9,1.5-2.4.7-3.5-1-1.5-4.8-.4-6.3-.5s-2.9-.3-4.4-.4c-1.5-.2-3-.3-4.5-.3-3.3,0-6.4.8-9.7.7-.7,0-1.5,0-1.9.6-1.1,1.7,0,2.9.3,4.4-.5-.8-1-1.6-1.4-2.5s-.7-2-.2-2.9c.7-1.2,3.4-1,4.7-1.3,4.8-1,10.1.1,15,.4,1.4,0,2.8.2,4.2.2h3c1.8,0,3.5.6,2.6,2.7l-.4-.1Z"/>
        </g>
      </g>
    </g>
  </g>
</svg>