<?xml version="1.0" encoding="UTF-8"?>
<svg xmlns="http://www.w3.org/2000/svg" xmlns:xlink="http://www.w3.org/1999/xlink" viewBox="0 0 59 35.26">
  <defs>
    <style>
      .cls-1 {
        fill: #904b4f;
      }

      .cls-1, .cls-2, .cls-3, .cls-4, .cls-5, .cls-6 {
        stroke-width: 0px;
      }

      .cls-2 {
        fill: url(#linear-gradient);
      }

      .cls-3 {
        fill: url(#radial-gradient);
      }

      .cls-4 {
        fill: #f0c996;
      }

      .cls-5 {
        fill: #6f71c7;
      }

      .cls-7, .cls-6 {
        isolation: isolate;
      }

      .cls-6 {
        fill: #f2e4d7;
        mix-blend-mode: multiply;
      }
    </style>
    <linearGradient id="linear-gradient" x1="29.77" y1="-186.3" x2="28.97" y2="-233.6" gradientTransform="translate(0 -194.8) scale(1 -1)" gradientUnits="userSpaceOnUse">
      <stop offset="0" stop-color="#d89979"/>
      <stop offset=".3" stop-color="#ac645f"/>
      <stop offset=".6" stop-color="#792640"/>
      <stop offset=".8" stop-color="#5b316c"/>
      <stop offset="1" stop-color="#4b3884"/>
    </linearGradient>
    <radialGradient id="radial-gradient" cx="28.3" cy="-189.6" fx="28.3" fy="-189.6" r="166.5" gradientTransform="translate(0 -194.8) scale(1 -1)" gradientUnits="userSpaceOnUse">
      <stop offset="0" stop-color="#e4a482"/>
      <stop offset="1" stop-color="#865f6a"/>
    </radialGradient>
  </defs>
  <g class="cls-7">
    <g id="Layer_2" data-name="Layer 2">
      <g id="Layer_1-2" data-name="Layer 1">
        <g>
          <path class="cls-5" d="M.7,6.5C2.6,4.2,4.7,2.4,7.1.9c.5-.3,1-.4,1.5-.4,7.9.2,15.9.5,23.8.7,2.1,0,4.2.1,6.3.2,1,0,1.8,0,2.7.4.6.3.7.5,1.3.4,1.3-.2,2-.6,3.3-.6,1.2,0,2.5,0,3.7.1h3.1c.5,0,1,.2,1.4.4,1.6,1.1,3,2.4,4.2,3.9.4.5.6,1.2.6,1.9-.4,6.8-.7,13.7-1.2,20.9,0,.7-.4,1.4-.9,1.9-1.8,1.7-3.9,3.1-6.2,4.2-.4.2-.8.3-1.3.3h-17.2c-2.7,0-5.6.3-8.2-.5-.7-.2-1.4-.4-2.1-.6h-.4c-.1,0-.2,0-.3.2-1.4,1.1-2.3.9-4.1.9h-7.6c-.3,0-.6,0-.9-.2-2.5-1-4.7-2.5-6.6-4.7-.4-.5-.7-1.1-.7-1.7-.2-3.2-.8-6.6-.5-9.7.7-.1,1.4-.2,2.1-.1-.8-.9-1.9-.4-2.3-1.8-.3-1.2-.2-2.7-.3-4,0-1.6-.2-3.1-.3-4.7,0-.7.2-1.4.6-1.9l.1.1Z"/>
          <g>
            <path class="cls-2" d="M.7,6C2.6,3.7,4.7,1.9,7.1.4c.5-.3,1-.4,1.5-.4,7.9.2,15.9.5,23.8.7,2.1,0,4.2.1,6.3.2,1,0,1.8,0,2.7.4.6.3.7.5,1.3.4,1.3-.2,2-.6,3.3-.6,1.2,0,2.5,0,3.7.1h3.1c.5,0,1,.2,1.4.4,1.6,1.1,3,2.4,4.2,3.9.4.5.6,1.2.6,1.9-.4,6.8-.7,13.7-1.2,20.9,0,.7-.4,1.4-.9,1.9-1.8,1.7-3.9,3.1-6.2,4.2-.4.2-.8.3-1.3.3h-17.2c-2.7,0-5.6.3-8.2-.5-.7-.2-1.4-.4-2.1-.6h-.4c-.1,0-.2,0-.3.2-1.4,1.1-2.3.9-4.1.9h-7.6c-.3,0-.6,0-.9-.2-2.5-1-4.7-2.5-6.6-4.7-.4-.5-.7-1.1-.7-1.7-.2-3.2-.8-6.6-.5-9.7.7-.1,1.4-.2,2.1-.1-.8-.9-1.9-.4-2.3-1.8-.3-1.2-.2-2.7-.3-4,0-1.6-.2-3.1-.3-4.7,0-.7.2-1.4.6-1.9l.1.1Z"/>
            <path class="cls-3" d="M56.4,7.3v3c-.2,1.5-.3,3-.4,4.5v1.5c0,1.7-.2,3.4-.3,5.1v1.8c-.1.8-.2,1.7-.2,2.6,0,.8,0,1.7-.1,2.5-.9.8-1.9,1.6-2.9,2.3-.8.6-1.7,1.1-2.6,1.5h-25.3c-1.4,0-2.6-.3-3.9-.1h-6.8c-1.1,0-3,.4-4.1,0-2.1-.8-3.9-2.1-5.5-3.9-.4-.5-.2-2.7-.2-3.4h0v-1.4c0-.8,0-1.5-.1-2.3,0-.4-.3-2.4,0-2.8h1.3c-.2-.2-.5-.4-.7-.5h0c-1-1-1.2-2.2-1.3-3.6v-2.4c0-.6-.6-3.4-.2-3.9,1.6-1.9,3.4-3.6,5.5-4.9,0,0,.1,0,.2-.1,1.1,0,2.2,0,3.4.1,7,.2,14,.4,20.9.7,1.7,0,3.5.1,5.2.2.8,0,1.7-.1,2.5.1.7.2,1.2,1.1,2,.8,2.4-.9,4.6-.6,7.1-.5.6,0,2.6-.3,3.2,0,1.4.9,2.6,2,3.5,3.3l-.2-.2Z"/>
            <path class="cls-4" d="M4.9,18.1c.2.2.4.4.7.5-.2.4-1,.1-1.3.5-.1.1-.1.3-.1.5,0,1.2.2,3.1-.2,4.2h0c0-1-.1-2-.2-2.9,0-.4-.3-2.4,0-2.8h1.1Z"/>
            <path class="cls-4" d="M56.4,7.3v3c-.4,5-.7,10.2-1,15.4v.5c.2-4.3.3-8.7.5-13,0-1.5.1-3.1-.2-4.6-.3-1.2-.9-2.5-1.9-3.3s-2-.7-3.2-.7c-1.7,0-3.6-.3-5.3-.1-.6,0-1.2.1-1.7.4-.3.1-.6.3-.9.4-.8.1-1.5-.6-2.3-.9-.4-.1-.8-.1-1.2-.2-7.9-.3-15.8-.6-23.7-.9-1.9,0-4.9-.6-6.5.6-.7.5-1.4,1-2,1.6-.8.8-1.7,1.6-2.5,2.4-.2.1-.3.3-.4.5-.1.3,0,.6,0,.9.4,2,.3,3.9.3,5.9,0,.7,0,1.7.4,2.5-1.5-1.6-1.3-3.8-1.4-6,0-.6-.6-3.4-.2-3.9,1.6-2,3.6-3.7,5.7-5,8.1.2,16.2.5,24.3.8,1.7,0,3.5.1,5.2.2.8,0,1.7-.1,2.5.1.7.2,1.2,1.1,2,.8,2.4-.9,4.6-.6,7.1-.5.6,0,2.6-.3,3.2,0,1.4.9,2.6,2,3.5,3.3l-.3-.2Z"/>
            <path class="cls-4" d="M55,9c-.1,4.8-.5,9.6-.6,14.3,0,.4,0,1.3-.7,1.2-.5-.1,0-3.2,0-3.6.2-4,.3-8,.5-12v-.2s0-.1-.2-.1c-.5-.4-1-.7-1.6-1.1-.5-.3-1.1-.8-1.8-.8h-.5c-3.2.2-6.6,0-9.9,0s-6.7-.2-10.1-.3c-3.5-.1-6.9-.3-10.4-.5-3.2-.2-6.7-.9-9.9-.5-1.2,1.4-2.4,2.7-3.6,4,.9.5,1.8.9,2.8,1.2h.3s.1,0,.2-.2c.7-.8,1.3-1.6,1.9-2.5-.5,0-1,.2-1.5.2-.1,0-.5.1-.6,0-.2,0-.3-.6-.1-.7h.1c.6,0,1.2-.2,1.7-.2.3,0,1.6-.2,1.6.2v.1c-.5,1.5-1.5,2.7-2.7,3.8-.1,0-.2.2-.4.2-.3.1-.7-.1-1-.2-.4-.2-.8-.3-1.2-.4-.8-.2-1.6-.7-2.4-1.1v-.1c.4-1,1.5-1.8,2.2-2.6.7-.8,1.4-1.5,2.1-2.3,0,0,.1-.1.2-.2h.2c3.1,0,6.2.2,9.4.4,3.5.2,6.9.5,10.4.6,6.7.3,13.4.5,20.1.5h1.6c.8,0,1.6.9,2.3,1.3.5.2,1.2.4,1.4,1v.5l.2.1ZM53.5,27.7v-.1c-.3-1.3-1-2.9-2.3-3.7h-.2c-.8.8-1.7,1.4-2.5,2.2-.4.4-.8.8-1.1,1.1-.3.3-.7.6-.6,1,0,0,.2.1.3,0,.8,0,1.4.1,2.1.2.2,0,1.5-.4,1.1-.6-.6-.3-1.4-.4-2.1-.3.1-.3.6-.7.8-.8.4-.4.8-.8,1.2-1.2.3-.3.7-.5,1.1-.7.7.7,1.3,1.5,1.6,2.5v.1h0c-.6.6-1.4,1.1-2.1,1.5-.6.4-1.3.9-1.9,1.4-6.5,0-13-.1-19.5-.2-6.1,0-12.3-.4-18.4-.5-.2,0-.5-.2-.7-.3-.7-.4-1.3-.9-2-1.4-.6-.5-1.3-.9-1.3-1.8,0-4.6-.7-9.1-.6-13.7v-.7c-.2-.5-.5-.5-.6,0v1.5c0,1,0,1.9.1,2.9v3.4c0,1.3.1,2.5.2,3.8,0,.6,0,1.3.1,1.9v1c0,.3-.1.4,0,.7,0,.2.2.4.4.5.8.8,1.6,1.6,2.5,2.3,0,0,.1.1.2.1h.3c5.9,1.2,12.4.7,18.4.8,5.5,0,11.1,0,16.6.1h2.7c.7,0,1.5.3,2.1-.1.8-.5,1.5-1.1,2.3-1.6.4-.3.7-.5,1.1-.8.2-.1.8-.4.8-.7l-.1.2Z"/>
            <path class="cls-1" d="M55,8.6c-.1,4.8-.5,9.6-.6,14.3,0,.4,0,1.3-.7,1.2-.5-.1,0-3.2,0-3.6.2-4,.3-8,.5-12v-.2s0-.1-.2-.1c-.5-.4-1-.7-1.6-1.1-.5-.3-1.1-.8-1.8-.8h-.5c-3.2.2-6.6,0-9.9,0s-6.7-.2-10.1-.3c-3.5-.1-6.9-.3-10.4-.5-3.2-.2-6.7-.9-9.9-.5-1.2,1.4-2.4,2.7-3.6,4,.9.5,1.8.9,2.8,1.2h.3s.1,0,.2-.2c.7-.8,1.3-1.6,1.9-2.5-.5,0-1,.2-1.5.2-.1,0-.5.1-.6,0-.2,0-.3-.6-.1-.7h.1c.6,0,1.2-.2,1.7-.2.3,0,1.6-.2,1.6.2v.1c-.5,1.5-1.5,2.7-2.7,3.8-.1,0-.2.2-.4.2-.3.1-.7-.1-1-.2-.4-.2-.8-.3-1.2-.4-.8-.2-1.6-.7-2.4-1.1v-.1c.4-1,1.5-1.8,2.2-2.6.7-.8,1.4-1.5,2.1-2.3,0,0,.1-.1.2-.2h.2c3.1,0,6.2.2,9.4.4,3.5.2,6.9.5,10.4.6,6.7.3,13.4.5,20.1.5h1.6c.8,0,1.6.9,2.3,1.3.5.2,1.2.4,1.4,1v.5l.2.1ZM53.5,27.3v-.1c-.3-1.3-1-2.9-2.3-3.7h-.2c-.8.8-1.7,1.4-2.5,2.2-.4.4-.8.8-1.1,1.1-.3.3-.7.6-.6,1,0,0,.2.1.3,0,.8,0,1.4.1,2.1.2.2,0,1.5-.4,1.1-.6-.6-.3-1.4-.4-2.1-.3.1-.3.6-.7.8-.8.4-.4.8-.8,1.2-1.2.3-.3.7-.5,1.1-.7.7.7,1.3,1.5,1.6,2.5v.1h0c-.6.6-1.4,1.1-2.1,1.5-.6.4-1.3.9-1.9,1.4-6.5,0-13-.1-19.5-.2-6.1,0-12.3-.4-18.4-.5-.2,0-.5-.2-.7-.3-.7-.4-1.3-.9-2-1.4-.6-.5-1.3-.9-1.3-1.8,0-4.6-.7-9.1-.6-13.7v-.7c-.2-.5-.5-.5-.6,0v1.5c0,1,0,1.9.1,2.9v3.4c0,1.3.1,2.5.2,3.8,0,.6,0,1.3.1,1.9v1c0,.3-.1.4,0,.7,0,.2.2.4.4.5.8.8,1.6,1.6,2.5,2.3,0,0,.1.1.2.1h.3c5.9,1.2,12.4.7,18.4.8,5.5,0,11.1,0,16.6.1h2.7c.7,0,1.5.2,2.1-.2.8-.5,1.5-1.1,2.3-1.6.4-.3.7-.5,1.1-.8.2-.1.8-.4.8-.7l-.1.3Z"/>
            <g>
              <path class="cls-6" d="M18,20.8c-.4-.3-1-.3-1.4-.2-.2,0-.5.1-.7.3,0-.8-.6-1.3-1.2-1.8-.7-.6-1.5-.9-2.4-.6-.7.2-1.8.8-2,1.6-.2.8.5,1.5.9,2.1.2.3.5.6.8.8h0c.6.7,1.5.3,2.2,0,.5-.2,1-.6,1.3-1h0c.1.2.2.4.4.5s.6.3.8.3c.4,0,1-.2,1.2-.5.1-.2.3-.6.3-.9s-.1-.5-.4-.7l.2.1Z"/>
              <path class="cls-6" d="M17.6,25c-.2-.2-.5-.3-.7-.3h-1c-.2,0-.5.1-.6.3-.1.2-.2.4,0,.7.1.2.3.3.5.4.3.1.7.1,1,0,.3,0,.6-.1.8-.3.2-.2.3-.6,0-.8h0Z"/>
              <path class="cls-6" d="M9.1,19.4c0-.2-.2-.3-.3-.4s-.6.1-.6.3v.5c0,.2.2.3.4.3.1,0,.3,0,.4-.2,0-.1.1-.3,0-.5h.1Z"/>
              <path class="cls-6" d="M21.4,27.4s0-.1-.1-.2c0,0-.1,0-.2-.1-.2,0-.4,0-.6-.2h-.4s-.3.2-.2.2c0,.2.2.3.4.4h.8s.5-.2.4-.3l-.1.2Z"/>
              <path class="cls-4" d="M18.2,22.2c-.2.3-.5.6-.9.6h-.4c-.6,0-1.1-.4-1.4-.9-.2.5-.7.8-1.2,1-.3.2-.7.4-1,.5-.3,0-.6,0-.9-.1-.3,0-.5-.3-.6-.5-.6-.8-1.2-1.5-1.5-2.5,0,.5.3,1,.5,1.5.5.7.9,1.4,1.5,2.1h1.2c.2,0,.4-.2.6-.3.5-.3,1-.6,1.4-1.1-.1.1,1.1.5,1.2.6.9.3,1-.2,1.4-.8l.1-.1Z"/>
              <path class="cls-4" d="M17.7,25.4c0,.3-.3.6-.6.7-.5.2-2.2.3-2-.6,0,.4,0,.7.4.9.4.2.9.2,1.4.1s.8-.6.8-1v-.1Z"/>
            </g>
            <path class="cls-6" d="M48.7,10.4c-.2-.4-.6-.5-.9-.7-.6-.2-1.3-.2-1.9,0-.4,0-.7.2-1.1.3-.2,0-.4.2-.6.3s-.4.3-.5.4c-.4.3-.6.9-.5,1.4.1.4.6.6,1,.7s.8,0,1.2,0c-.2,0,.5,0,.6,0,.7-.1,1.3-.3,1.9-.8.4-.4,1.2-.9.9-1.6h-.1Z"/>
            <path class="cls-6" d="M43.8,8.7h-1.2c-.2,0-.5.1-.7.3-.1,0-.3.2-.4.3,0,0-.2.2-.1.3v.2h0c0,.1.2.2.3.2h.9c-.3,0-.2,0,0,0,.3,0,.7-.2.9-.4.2-.1.4-.4.3-.6,0,0-.1-.2-.3-.2l.3-.1Z"/>
            <path class="cls-6" d="M50,14.5h0c0-.1-.1-.1-.2-.1h-.4c-.2,0-.4.2-.5.3h0v.3h.3c.2,0,.4,0,.6-.1,0,0,.7-.3.4-.5l-.2.1Z"/>
            <path class="cls-6" d="M46.6,24.1h-.6c-.2,0-.4.2-.5.3-.2.2-.4.5-.3.8.1.4.6.4.9.3.2,0,.4,0,.6-.1.3-.1.6-.4.7-.6.2-.5-.5-.7-.8-.8v.1Z"/>
            <path class="cls-6" d="M12.8,13.2h-.6c-.2,0-.4,0-.5.1-.1,0-.3.1-.3.3,0,0,0,.2-.1.3v.2s.2.2.3.2h.6c.4,0,.8-.3.9-.6h0s-.2-.3-.3-.3v-.2Z"/>
            <path class="cls-4" d="M48.9,10.7c-.4.7-1.1,1.1-1.8,1.5-.4.2-.8.5-1.3.6-.9.2-1.8,0-2.5-.5.5.3.9.6,1.5.8.3,0,.6.2.9.1.5,0,1-.3,1.4-.6.7-.5,1.4-1.2,1.8-1.8v-.1Z"/>
            <path class="cls-4" d="M43.9,9c0,.3-.6.5-.8.6-.3.1-.5.2-.8.3-.3,0-.6,0-.8-.2.1.2.3.4.6.5h.6c.6-.3,1.2-.5,1.3-1.3l-.1.1Z"/>
            <path class="cls-4" d="M45.2,25.2c.2.3.3.4.7.5.6.1,1.7-.5,1.5-1.2.1.3,0,.6,0,.9s-.4.4-.6.6c-.1,0-.3.1-.4.1-.3,0-.5-.1-.7-.3-.1-.1-.2-.3-.3-.5l-.2-.1Z"/>
          </g>
        </g>
      </g>
    </g>
  </g>
</svg>